<mxfile host="app.diagrams.net" modified="2021-07-12T02:38:07.102Z" agent="5.0 (X11; Linux x86_64) AppleWebKit/537.36 (KHTML, like Gecko) Chrome/91.0.4472.114 Safari/537.36" etag="Xlaz_ZhlTgXt6tYEYqgn" version="14.8.5" type="github" pages="3">
  <diagram name="Copy of 3-tier-architecture" id="yYS4oJJaA7vCYqBvtehP">
    <mxGraphModel dx="868" dy="426" grid="1" gridSize="10" guides="1" tooltips="1" connect="1" arrows="1" fold="1" page="1" pageScale="1" pageWidth="850" pageHeight="1100" math="0" shadow="0">
      <root>
        <mxCell id="QerUD8kgje3U_ODFuda0-0" />
        <mxCell id="QerUD8kgje3U_ODFuda0-1" parent="QerUD8kgje3U_ODFuda0-0" />
        <mxCell id="QerUD8kgje3U_ODFuda0-2" value="" style="rounded=0;whiteSpace=wrap;html=1;strokeColor=#000000;fillColor=#FFFFFF;" parent="QerUD8kgje3U_ODFuda0-1" vertex="1">
          <mxGeometry x="100" y="180" width="290" height="220" as="geometry" />
        </mxCell>
        <mxCell id="QerUD8kgje3U_ODFuda0-3" value="Client" style="text;html=1;strokeColor=none;fillColor=none;align=center;verticalAlign=middle;whiteSpace=wrap;rounded=0;fontStyle=1" parent="QerUD8kgje3U_ODFuda0-1" vertex="1">
          <mxGeometry x="215" y="140" width="55" height="10" as="geometry" />
        </mxCell>
        <mxCell id="QerUD8kgje3U_ODFuda0-4" value="" style="rounded=0;whiteSpace=wrap;html=1;" parent="QerUD8kgje3U_ODFuda0-1" vertex="1">
          <mxGeometry x="212.5" y="170" width="65" height="20" as="geometry" />
        </mxCell>
        <mxCell id="QerUD8kgje3U_ODFuda0-5" value="&lt;b&gt;&lt;font style=&quot;font-size: 14px&quot;&gt;Port&lt;/font&gt;&lt;/b&gt;" style="text;html=1;strokeColor=none;fillColor=none;align=center;verticalAlign=middle;whiteSpace=wrap;rounded=0;" parent="QerUD8kgje3U_ODFuda0-1" vertex="1">
          <mxGeometry x="225" y="170" width="40" height="20" as="geometry" />
        </mxCell>
        <mxCell id="QerUD8kgje3U_ODFuda0-6" value="" style="rounded=1;whiteSpace=wrap;html=1;fillColor=#E6E6E6;" parent="QerUD8kgje3U_ODFuda0-1" vertex="1">
          <mxGeometry x="120" y="200" width="250" height="30" as="geometry" />
        </mxCell>
        <mxCell id="QerUD8kgje3U_ODFuda0-7" value="&lt;font style=&quot;font-size: 14px&quot;&gt;&lt;b&gt;Security Filter&lt;/b&gt;&lt;/font&gt;" style="text;html=1;strokeColor=none;fillColor=none;align=center;verticalAlign=middle;whiteSpace=wrap;rounded=0;" parent="QerUD8kgje3U_ODFuda0-1" vertex="1">
          <mxGeometry x="180" y="205" width="130" height="20" as="geometry" />
        </mxCell>
        <mxCell id="QerUD8kgje3U_ODFuda0-8" value="" style="rounded=0;whiteSpace=wrap;html=1;strokeColor=#000000;fillColor=#FFFFFF;" parent="QerUD8kgje3U_ODFuda0-1" vertex="1">
          <mxGeometry x="100" y="430" width="290" height="120" as="geometry" />
        </mxCell>
        <mxCell id="QerUD8kgje3U_ODFuda0-9" value="" style="shape=hexagon;perimeter=hexagonPerimeter2;whiteSpace=wrap;html=1;fixedSize=1;strokeColor=#000000;fillColor=#000066;" parent="QerUD8kgje3U_ODFuda0-1" vertex="1">
          <mxGeometry x="120" y="250" width="80" height="60" as="geometry" />
        </mxCell>
        <mxCell id="QerUD8kgje3U_ODFuda0-10" value="Service A" style="text;html=1;strokeColor=none;fillColor=none;align=center;verticalAlign=middle;whiteSpace=wrap;rounded=0;labelBackgroundColor=#000066;fontColor=#FFFFFF;" parent="QerUD8kgje3U_ODFuda0-1" vertex="1">
          <mxGeometry x="140" y="280" width="40" as="geometry" />
        </mxCell>
        <mxCell id="QerUD8kgje3U_ODFuda0-11" value="Service A" style="text;html=1;strokeColor=none;fillColor=none;align=center;verticalAlign=middle;whiteSpace=wrap;rounded=0;" parent="QerUD8kgje3U_ODFuda0-1" vertex="1">
          <mxGeometry x="310" y="270" width="40" as="geometry" />
        </mxCell>
        <mxCell id="QerUD8kgje3U_ODFuda0-12" value="" style="shape=hexagon;perimeter=hexagonPerimeter2;whiteSpace=wrap;html=1;fixedSize=1;strokeColor=#000000;fillColor=#000066;" parent="QerUD8kgje3U_ODFuda0-1" vertex="1">
          <mxGeometry x="290" y="250" width="80" height="60" as="geometry" />
        </mxCell>
        <mxCell id="QerUD8kgje3U_ODFuda0-13" value="" style="shape=hexagon;perimeter=hexagonPerimeter2;whiteSpace=wrap;html=1;fixedSize=1;strokeColor=#000000;fillColor=#000066;" parent="QerUD8kgje3U_ODFuda0-1" vertex="1">
          <mxGeometry x="205" y="250" width="80" height="60" as="geometry" />
        </mxCell>
        <mxCell id="QerUD8kgje3U_ODFuda0-14" value="" style="shape=hexagon;perimeter=hexagonPerimeter2;whiteSpace=wrap;html=1;fixedSize=1;strokeColor=#000000;fillColor=#000066;" parent="QerUD8kgje3U_ODFuda0-1" vertex="1">
          <mxGeometry x="160" y="320" width="80" height="60" as="geometry" />
        </mxCell>
        <mxCell id="QerUD8kgje3U_ODFuda0-15" value="" style="shape=hexagon;perimeter=hexagonPerimeter2;whiteSpace=wrap;html=1;fixedSize=1;strokeColor=#000000;fillColor=#000066;" parent="QerUD8kgje3U_ODFuda0-1" vertex="1">
          <mxGeometry x="250" y="320" width="80" height="60" as="geometry" />
        </mxCell>
        <mxCell id="QerUD8kgje3U_ODFuda0-16" value="" style="rounded=0;whiteSpace=wrap;html=1;" parent="QerUD8kgje3U_ODFuda0-1" vertex="1">
          <mxGeometry x="212.5" y="420" width="65" height="20" as="geometry" />
        </mxCell>
        <mxCell id="QerUD8kgje3U_ODFuda0-17" value="&lt;b&gt;&lt;font style=&quot;font-size: 14px&quot;&gt;Port&lt;/font&gt;&lt;/b&gt;" style="text;html=1;strokeColor=none;fillColor=none;align=center;verticalAlign=middle;whiteSpace=wrap;rounded=0;" parent="QerUD8kgje3U_ODFuda0-1" vertex="1">
          <mxGeometry x="225" y="420" width="40" height="20" as="geometry" />
        </mxCell>
        <mxCell id="QerUD8kgje3U_ODFuda0-18" value="" style="shape=datastore;whiteSpace=wrap;html=1;strokeColor=#000000;labelBackgroundColor=#FF8000;fillColor=#FF8000;" parent="QerUD8kgje3U_ODFuda0-1" vertex="1">
          <mxGeometry x="212.5" y="455" width="65" height="70" as="geometry" />
        </mxCell>
        <mxCell id="QerUD8kgje3U_ODFuda0-19" value="Service B" style="text;html=1;strokeColor=none;fillColor=none;align=center;verticalAlign=middle;whiteSpace=wrap;rounded=0;fontColor=#FFFFFF;" parent="QerUD8kgje3U_ODFuda0-1" vertex="1">
          <mxGeometry x="225" y="270" width="40" height="20" as="geometry" />
        </mxCell>
        <mxCell id="QerUD8kgje3U_ODFuda0-20" value="Service C" style="text;html=1;strokeColor=none;align=center;verticalAlign=middle;whiteSpace=wrap;rounded=0;fillColor=#000066;fontColor=#FFFFFF;" parent="QerUD8kgje3U_ODFuda0-1" vertex="1">
          <mxGeometry x="310" y="270" width="40" height="20" as="geometry" />
        </mxCell>
        <mxCell id="QerUD8kgje3U_ODFuda0-21" value="Service D" style="text;html=1;strokeColor=none;fillColor=none;align=center;verticalAlign=middle;whiteSpace=wrap;rounded=0;fontColor=#FFFFFF;" parent="QerUD8kgje3U_ODFuda0-1" vertex="1">
          <mxGeometry x="180" y="340" width="40" height="20" as="geometry" />
        </mxCell>
        <mxCell id="QerUD8kgje3U_ODFuda0-22" value="Service E" style="text;html=1;strokeColor=none;align=center;verticalAlign=middle;whiteSpace=wrap;rounded=0;fillColor=#000066;fontColor=#FFFFFF;" parent="QerUD8kgje3U_ODFuda0-1" vertex="1">
          <mxGeometry x="270" y="340" width="40" height="20" as="geometry" />
        </mxCell>
        <mxCell id="QerUD8kgje3U_ODFuda0-23" value="" style="outlineConnect=0;fontColor=#232F3E;gradientColor=none;fillColor=#232F3E;strokeColor=none;dashed=0;verticalLabelPosition=bottom;verticalAlign=top;align=center;html=1;fontSize=12;fontStyle=0;aspect=fixed;pointerEvents=1;shape=mxgraph.aws4.client;" parent="QerUD8kgje3U_ODFuda0-1" vertex="1">
          <mxGeometry x="214.21" y="70" width="61.57" height="60" as="geometry" />
        </mxCell>
        <mxCell id="QerUD8kgje3U_ODFuda0-24" value="Database" style="text;html=1;strokeColor=none;fillColor=none;align=center;verticalAlign=middle;whiteSpace=wrap;rounded=0;" parent="QerUD8kgje3U_ODFuda0-1" vertex="1">
          <mxGeometry x="225" y="490" width="40" height="20" as="geometry" />
        </mxCell>
        <mxCell id="QerUD8kgje3U_ODFuda0-25" value="" style="rounded=1;whiteSpace=wrap;html=1;labelBackgroundColor=#000066;fontColor=#FFFFFF;fillColor=none;dashed=1;strokeColor=#FF8000;strokeWidth=3;" parent="QerUD8kgje3U_ODFuda0-1" vertex="1">
          <mxGeometry x="110" y="240" width="410" height="150" as="geometry" />
        </mxCell>
        <mxCell id="QerUD8kgje3U_ODFuda0-26" value="" style="shape=image;html=1;verticalAlign=top;verticalLabelPosition=bottom;labelBackgroundColor=#ffffff;imageAspect=0;aspect=fixed;image=https://cdn4.iconfinder.com/data/icons/flat-mate-basic-1/30/Basic_lock_padlock_locked_protected_security-128.png;dashed=1;fontColor=#FFFFFF;strokeColor=#FF8000;strokeWidth=3;fillColor=none;" parent="QerUD8kgje3U_ODFuda0-1" vertex="1">
          <mxGeometry x="410" y="250" width="90" height="90" as="geometry" />
        </mxCell>
        <mxCell id="QerUD8kgje3U_ODFuda0-27" value="User Context" style="text;html=1;strokeColor=none;fillColor=none;align=center;verticalAlign=middle;whiteSpace=wrap;rounded=0;dashed=1;labelBackgroundColor=#FFFFFF;fontSize=16;" parent="QerUD8kgje3U_ODFuda0-1" vertex="1">
          <mxGeometry x="400" y="350" width="110" height="20" as="geometry" />
        </mxCell>
        <mxCell id="QerUD8kgje3U_ODFuda0-28" value="&lt;b&gt;Trust Domain&lt;/b&gt;" style="text;html=1;strokeColor=none;fillColor=none;align=center;verticalAlign=middle;whiteSpace=wrap;rounded=0;dashed=1;labelBackgroundColor=#FFFFFF;fontSize=16;" parent="QerUD8kgje3U_ODFuda0-1" vertex="1">
          <mxGeometry x="390" y="210" width="125" height="20" as="geometry" />
        </mxCell>
      </root>
    </mxGraphModel>
  </diagram>
  <diagram id="88ROGVAPgsZLtn2kjnbn" name="microservices-architecture">
    <mxGraphModel dx="868" dy="426" grid="1" gridSize="10" guides="1" tooltips="1" connect="1" arrows="1" fold="1" page="1" pageScale="1" pageWidth="850" pageHeight="1100" math="0" shadow="0">
      <root>
        <mxCell id="ZsBWkxgLUlCkCqr66Bi--0" />
        <mxCell id="ZsBWkxgLUlCkCqr66Bi--1" parent="ZsBWkxgLUlCkCqr66Bi--0" />
        <mxCell id="ueifHyYTu_WedTb0_qDB-13" value="" style="outlineConnect=0;fontColor=#232F3E;gradientColor=none;fillColor=#232F3E;strokeColor=none;dashed=0;verticalLabelPosition=bottom;verticalAlign=top;align=center;html=1;fontSize=12;fontStyle=0;aspect=fixed;pointerEvents=1;shape=mxgraph.aws4.client;" parent="ZsBWkxgLUlCkCqr66Bi--1" vertex="1">
          <mxGeometry x="291.72" y="240" width="61.57" height="60" as="geometry" />
        </mxCell>
        <mxCell id="ueifHyYTu_WedTb0_qDB-0" value="Client" style="text;html=1;strokeColor=none;fillColor=none;align=center;verticalAlign=middle;whiteSpace=wrap;rounded=0;fontStyle=1" parent="ZsBWkxgLUlCkCqr66Bi--1" vertex="1">
          <mxGeometry x="295.01" y="260" width="55" height="10" as="geometry" />
        </mxCell>
        <mxCell id="ueifHyYTu_WedTb0_qDB-1" value="" style="shape=hexagon;perimeter=hexagonPerimeter2;whiteSpace=wrap;html=1;fixedSize=1;strokeColor=#000000;fillColor=#000066;" parent="ZsBWkxgLUlCkCqr66Bi--1" vertex="1">
          <mxGeometry x="200" y="340" width="80" height="60" as="geometry" />
        </mxCell>
        <mxCell id="ueifHyYTu_WedTb0_qDB-2" value="Service A" style="text;html=1;strokeColor=none;fillColor=none;align=center;verticalAlign=middle;whiteSpace=wrap;rounded=0;labelBackgroundColor=#000066;fontColor=#FFFFFF;" parent="ZsBWkxgLUlCkCqr66Bi--1" vertex="1">
          <mxGeometry x="220" y="370" width="40" as="geometry" />
        </mxCell>
        <mxCell id="ueifHyYTu_WedTb0_qDB-3" value="Service A" style="text;html=1;strokeColor=none;fillColor=none;align=center;verticalAlign=middle;whiteSpace=wrap;rounded=0;" parent="ZsBWkxgLUlCkCqr66Bi--1" vertex="1">
          <mxGeometry x="390" y="360" width="40" as="geometry" />
        </mxCell>
        <mxCell id="ueifHyYTu_WedTb0_qDB-4" value="" style="shape=hexagon;perimeter=hexagonPerimeter2;whiteSpace=wrap;html=1;fixedSize=1;strokeColor=#000000;fillColor=#000066;" parent="ZsBWkxgLUlCkCqr66Bi--1" vertex="1">
          <mxGeometry x="370" y="340" width="80" height="60" as="geometry" />
        </mxCell>
        <mxCell id="ueifHyYTu_WedTb0_qDB-5" value="" style="shape=hexagon;perimeter=hexagonPerimeter2;whiteSpace=wrap;html=1;fixedSize=1;strokeColor=#000000;fillColor=#000066;" parent="ZsBWkxgLUlCkCqr66Bi--1" vertex="1">
          <mxGeometry x="285" y="340" width="80" height="60" as="geometry" />
        </mxCell>
        <mxCell id="ueifHyYTu_WedTb0_qDB-6" value="" style="shape=hexagon;perimeter=hexagonPerimeter2;whiteSpace=wrap;html=1;fixedSize=1;strokeColor=#000000;fillColor=#000066;" parent="ZsBWkxgLUlCkCqr66Bi--1" vertex="1">
          <mxGeometry x="240" y="410" width="80" height="60" as="geometry" />
        </mxCell>
        <mxCell id="ueifHyYTu_WedTb0_qDB-7" value="" style="shape=hexagon;perimeter=hexagonPerimeter2;whiteSpace=wrap;html=1;fixedSize=1;strokeColor=#000000;fillColor=#000066;" parent="ZsBWkxgLUlCkCqr66Bi--1" vertex="1">
          <mxGeometry x="330" y="410" width="80" height="60" as="geometry" />
        </mxCell>
        <mxCell id="ueifHyYTu_WedTb0_qDB-8" value="" style="shape=datastore;whiteSpace=wrap;html=1;strokeColor=#000000;fillColor=#FF8000;" parent="ZsBWkxgLUlCkCqr66Bi--1" vertex="1">
          <mxGeometry x="207.5" y="500" width="65" height="70" as="geometry" />
        </mxCell>
        <mxCell id="ueifHyYTu_WedTb0_qDB-9" value="Service B" style="text;html=1;strokeColor=none;fillColor=none;align=center;verticalAlign=middle;whiteSpace=wrap;rounded=0;fontColor=#FFFFFF;" parent="ZsBWkxgLUlCkCqr66Bi--1" vertex="1">
          <mxGeometry x="305" y="360" width="40" height="20" as="geometry" />
        </mxCell>
        <mxCell id="ueifHyYTu_WedTb0_qDB-10" value="Service C" style="text;html=1;strokeColor=none;align=center;verticalAlign=middle;whiteSpace=wrap;rounded=0;fillColor=#000066;fontColor=#FFFFFF;" parent="ZsBWkxgLUlCkCqr66Bi--1" vertex="1">
          <mxGeometry x="390" y="360" width="40" height="20" as="geometry" />
        </mxCell>
        <mxCell id="ueifHyYTu_WedTb0_qDB-11" value="Service D" style="text;html=1;strokeColor=none;fillColor=none;align=center;verticalAlign=middle;whiteSpace=wrap;rounded=0;fontColor=#FFFFFF;" parent="ZsBWkxgLUlCkCqr66Bi--1" vertex="1">
          <mxGeometry x="260" y="430" width="40" height="20" as="geometry" />
        </mxCell>
        <mxCell id="ueifHyYTu_WedTb0_qDB-12" value="Service E" style="text;html=1;strokeColor=none;align=center;verticalAlign=middle;whiteSpace=wrap;rounded=0;fillColor=#000066;fontColor=#FFFFFF;" parent="ZsBWkxgLUlCkCqr66Bi--1" vertex="1">
          <mxGeometry x="350" y="430" width="40" height="20" as="geometry" />
        </mxCell>
        <mxCell id="ueifHyYTu_WedTb0_qDB-14" value="Database" style="text;html=1;strokeColor=none;fillColor=none;align=center;verticalAlign=middle;whiteSpace=wrap;rounded=0;" parent="ZsBWkxgLUlCkCqr66Bi--1" vertex="1">
          <mxGeometry x="220" y="540" width="40" height="20" as="geometry" />
        </mxCell>
        <mxCell id="ueifHyYTu_WedTb0_qDB-15" value="" style="shape=datastore;whiteSpace=wrap;html=1;strokeColor=#000000;fillColor=#FF8000;" parent="ZsBWkxgLUlCkCqr66Bi--1" vertex="1">
          <mxGeometry x="290" y="500" width="65" height="70" as="geometry" />
        </mxCell>
        <mxCell id="ueifHyYTu_WedTb0_qDB-16" value="Database" style="text;html=1;strokeColor=none;fillColor=none;align=center;verticalAlign=middle;whiteSpace=wrap;rounded=0;" parent="ZsBWkxgLUlCkCqr66Bi--1" vertex="1">
          <mxGeometry x="302.5" y="540" width="40" height="20" as="geometry" />
        </mxCell>
        <mxCell id="ueifHyYTu_WedTb0_qDB-17" value="" style="shape=datastore;whiteSpace=wrap;html=1;strokeColor=#000000;fillColor=#FF8000;" parent="ZsBWkxgLUlCkCqr66Bi--1" vertex="1">
          <mxGeometry x="377.5" y="500" width="65" height="70" as="geometry" />
        </mxCell>
        <mxCell id="ueifHyYTu_WedTb0_qDB-18" value="Database" style="text;html=1;strokeColor=none;fillColor=none;align=center;verticalAlign=middle;whiteSpace=wrap;rounded=0;" parent="ZsBWkxgLUlCkCqr66Bi--1" vertex="1">
          <mxGeometry x="390" y="540" width="40" height="20" as="geometry" />
        </mxCell>
        <mxCell id="ueifHyYTu_WedTb0_qDB-19" value="" style="rounded=0;whiteSpace=wrap;html=1;labelBackgroundColor=none;fontSize=16;fontColor=#000000;strokeWidth=1;fillColor=#FFFFFF;" parent="ZsBWkxgLUlCkCqr66Bi--1" vertex="1">
          <mxGeometry x="310" y="330" width="30" height="20" as="geometry" />
        </mxCell>
        <mxCell id="ueifHyYTu_WedTb0_qDB-20" value="" style="rounded=0;whiteSpace=wrap;html=1;labelBackgroundColor=none;fontSize=16;fontColor=#000000;strokeWidth=1;fillColor=#FFFFFF;" parent="ZsBWkxgLUlCkCqr66Bi--1" vertex="1">
          <mxGeometry x="225" y="330" width="30" height="20" as="geometry" />
        </mxCell>
        <mxCell id="ueifHyYTu_WedTb0_qDB-21" value="&amp;nbsp; &amp;nbsp;Port" style="text;html=1;strokeColor=none;fillColor=none;align=center;verticalAlign=middle;whiteSpace=wrap;rounded=0;labelBackgroundColor=none;fontSize=12;fontColor=#000000;" parent="ZsBWkxgLUlCkCqr66Bi--1" vertex="1">
          <mxGeometry x="215" y="330" width="40" height="20" as="geometry" />
        </mxCell>
        <mxCell id="ueifHyYTu_WedTb0_qDB-22" value="&amp;nbsp; &amp;nbsp;Port" style="text;html=1;strokeColor=none;fillColor=none;align=center;verticalAlign=middle;whiteSpace=wrap;rounded=0;labelBackgroundColor=none;fontSize=12;fontColor=#000000;" parent="ZsBWkxgLUlCkCqr66Bi--1" vertex="1">
          <mxGeometry x="300" y="330" width="40" height="20" as="geometry" />
        </mxCell>
        <mxCell id="ueifHyYTu_WedTb0_qDB-23" value="" style="rounded=0;whiteSpace=wrap;html=1;labelBackgroundColor=none;fontSize=16;fontColor=#000000;strokeWidth=1;fillColor=#FFFFFF;" parent="ZsBWkxgLUlCkCqr66Bi--1" vertex="1">
          <mxGeometry x="395" y="330" width="30" height="20" as="geometry" />
        </mxCell>
        <mxCell id="ueifHyYTu_WedTb0_qDB-24" value="" style="rounded=0;whiteSpace=wrap;html=1;labelBackgroundColor=none;fontSize=16;fontColor=#000000;strokeWidth=1;fillColor=#FFFFFF;" parent="ZsBWkxgLUlCkCqr66Bi--1" vertex="1">
          <mxGeometry x="264.21" y="400" width="30" height="20" as="geometry" />
        </mxCell>
        <mxCell id="ueifHyYTu_WedTb0_qDB-25" value="" style="rounded=0;whiteSpace=wrap;html=1;labelBackgroundColor=none;fontSize=16;fontColor=#000000;strokeWidth=1;fillColor=#FFFFFF;" parent="ZsBWkxgLUlCkCqr66Bi--1" vertex="1">
          <mxGeometry x="355.78" y="400" width="30" height="20" as="geometry" />
        </mxCell>
        <mxCell id="ueifHyYTu_WedTb0_qDB-26" value="&amp;nbsp; Port" style="text;html=1;strokeColor=none;fillColor=none;align=center;verticalAlign=middle;whiteSpace=wrap;rounded=0;labelBackgroundColor=none;fontSize=12;fontColor=#000000;" parent="ZsBWkxgLUlCkCqr66Bi--1" vertex="1">
          <mxGeometry x="385.78" y="330" width="40" height="20" as="geometry" />
        </mxCell>
        <mxCell id="ueifHyYTu_WedTb0_qDB-27" value="&amp;nbsp; Port" style="text;html=1;strokeColor=none;fillColor=none;align=center;verticalAlign=middle;whiteSpace=wrap;rounded=0;labelBackgroundColor=none;fontSize=12;fontColor=#000000;" parent="ZsBWkxgLUlCkCqr66Bi--1" vertex="1">
          <mxGeometry x="345.78" y="400" width="40" height="20" as="geometry" />
        </mxCell>
        <mxCell id="ueifHyYTu_WedTb0_qDB-28" value="&amp;nbsp; Port" style="text;html=1;strokeColor=none;fillColor=none;align=center;verticalAlign=middle;whiteSpace=wrap;rounded=0;labelBackgroundColor=none;fontSize=12;fontColor=#000000;" parent="ZsBWkxgLUlCkCqr66Bi--1" vertex="1">
          <mxGeometry x="255" y="400" width="40" height="20" as="geometry" />
        </mxCell>
      </root>
    </mxGraphModel>
  </diagram>
  <diagram name="microservices-architecture-attack" id="pGf0CReQNtywAZAWM92E">
    <mxGraphModel dx="868" dy="426" grid="1" gridSize="10" guides="1" tooltips="1" connect="1" arrows="1" fold="1" page="1" pageScale="1" pageWidth="850" pageHeight="1100" math="0" shadow="0">
      <root>
        <mxCell id="oUWo8qwdKe1J3eEg0R9K-0" />
        <mxCell id="oUWo8qwdKe1J3eEg0R9K-1" parent="oUWo8qwdKe1J3eEg0R9K-0" />
        <mxCell id="oUWo8qwdKe1J3eEg0R9K-4" value="" style="shape=hexagon;perimeter=hexagonPerimeter2;whiteSpace=wrap;html=1;fixedSize=1;strokeColor=#000000;fillColor=#000066;" parent="oUWo8qwdKe1J3eEg0R9K-1" vertex="1">
          <mxGeometry x="200" y="340" width="80" height="60" as="geometry" />
        </mxCell>
        <mxCell id="oUWo8qwdKe1J3eEg0R9K-5" value="Service A" style="text;html=1;strokeColor=none;fillColor=none;align=center;verticalAlign=middle;whiteSpace=wrap;rounded=0;labelBackgroundColor=#000066;fontColor=#FFFFFF;" parent="oUWo8qwdKe1J3eEg0R9K-1" vertex="1">
          <mxGeometry x="220" y="370" width="40" as="geometry" />
        </mxCell>
        <mxCell id="oUWo8qwdKe1J3eEg0R9K-6" value="Service A" style="text;html=1;strokeColor=none;fillColor=none;align=center;verticalAlign=middle;whiteSpace=wrap;rounded=0;" parent="oUWo8qwdKe1J3eEg0R9K-1" vertex="1">
          <mxGeometry x="390" y="360" width="40" as="geometry" />
        </mxCell>
        <mxCell id="oUWo8qwdKe1J3eEg0R9K-7" value="" style="shape=hexagon;perimeter=hexagonPerimeter2;whiteSpace=wrap;html=1;fixedSize=1;strokeColor=#000000;fillColor=#FF0000;" parent="oUWo8qwdKe1J3eEg0R9K-1" vertex="1">
          <mxGeometry x="370" y="340" width="80" height="60" as="geometry" />
        </mxCell>
        <mxCell id="oUWo8qwdKe1J3eEg0R9K-8" value="" style="shape=hexagon;perimeter=hexagonPerimeter2;whiteSpace=wrap;html=1;fixedSize=1;strokeColor=#000000;fillColor=#000066;" parent="oUWo8qwdKe1J3eEg0R9K-1" vertex="1">
          <mxGeometry x="285" y="340" width="80" height="60" as="geometry" />
        </mxCell>
        <mxCell id="oUWo8qwdKe1J3eEg0R9K-9" value="" style="shape=hexagon;perimeter=hexagonPerimeter2;whiteSpace=wrap;html=1;fixedSize=1;strokeColor=#000000;fillColor=#000066;" parent="oUWo8qwdKe1J3eEg0R9K-1" vertex="1">
          <mxGeometry x="240" y="410" width="80" height="60" as="geometry" />
        </mxCell>
        <mxCell id="oUWo8qwdKe1J3eEg0R9K-10" value="" style="shape=hexagon;perimeter=hexagonPerimeter2;whiteSpace=wrap;html=1;fixedSize=1;strokeColor=#000000;fillColor=#000066;" parent="oUWo8qwdKe1J3eEg0R9K-1" vertex="1">
          <mxGeometry x="330" y="410" width="80" height="60" as="geometry" />
        </mxCell>
        <mxCell id="oUWo8qwdKe1J3eEg0R9K-11" value="" style="shape=datastore;whiteSpace=wrap;html=1;strokeColor=#000000;fillColor=#FF8000;" parent="oUWo8qwdKe1J3eEg0R9K-1" vertex="1">
          <mxGeometry x="207.5" y="500" width="65" height="70" as="geometry" />
        </mxCell>
        <mxCell id="oUWo8qwdKe1J3eEg0R9K-12" value="Service B" style="text;html=1;strokeColor=none;fillColor=none;align=center;verticalAlign=middle;whiteSpace=wrap;rounded=0;fontColor=#FFFFFF;" parent="oUWo8qwdKe1J3eEg0R9K-1" vertex="1">
          <mxGeometry x="305" y="360" width="40" height="20" as="geometry" />
        </mxCell>
        <mxCell id="oUWo8qwdKe1J3eEg0R9K-13" value="Service C" style="text;html=1;strokeColor=none;align=center;verticalAlign=middle;whiteSpace=wrap;rounded=0;fillColor=#FF0000;fontColor=#FFFFFF;" parent="oUWo8qwdKe1J3eEg0R9K-1" vertex="1">
          <mxGeometry x="390" y="360" width="40" height="20" as="geometry" />
        </mxCell>
        <mxCell id="oUWo8qwdKe1J3eEg0R9K-14" value="Service D" style="text;html=1;strokeColor=none;fillColor=none;align=center;verticalAlign=middle;whiteSpace=wrap;rounded=0;fontColor=#FFFFFF;" parent="oUWo8qwdKe1J3eEg0R9K-1" vertex="1">
          <mxGeometry x="260" y="430" width="40" height="20" as="geometry" />
        </mxCell>
        <mxCell id="oUWo8qwdKe1J3eEg0R9K-15" value="Service E" style="text;html=1;strokeColor=none;align=center;verticalAlign=middle;whiteSpace=wrap;rounded=0;fillColor=#000066;fontColor=#FFFFFF;" parent="oUWo8qwdKe1J3eEg0R9K-1" vertex="1">
          <mxGeometry x="350" y="430" width="40" height="20" as="geometry" />
        </mxCell>
        <mxCell id="oUWo8qwdKe1J3eEg0R9K-16" value="Database" style="text;html=1;strokeColor=none;fillColor=none;align=center;verticalAlign=middle;whiteSpace=wrap;rounded=0;" parent="oUWo8qwdKe1J3eEg0R9K-1" vertex="1">
          <mxGeometry x="220" y="540" width="40" height="20" as="geometry" />
        </mxCell>
        <mxCell id="oUWo8qwdKe1J3eEg0R9K-17" value="" style="shape=datastore;whiteSpace=wrap;html=1;strokeColor=#000000;fillColor=#FF8000;" parent="oUWo8qwdKe1J3eEg0R9K-1" vertex="1">
          <mxGeometry x="290" y="500" width="65" height="70" as="geometry" />
        </mxCell>
        <mxCell id="oUWo8qwdKe1J3eEg0R9K-18" value="Database" style="text;html=1;strokeColor=none;fillColor=none;align=center;verticalAlign=middle;whiteSpace=wrap;rounded=0;" parent="oUWo8qwdKe1J3eEg0R9K-1" vertex="1">
          <mxGeometry x="302.5" y="540" width="40" height="20" as="geometry" />
        </mxCell>
        <mxCell id="oUWo8qwdKe1J3eEg0R9K-19" value="" style="shape=datastore;whiteSpace=wrap;html=1;strokeColor=#000000;fillColor=#FF0000;" parent="oUWo8qwdKe1J3eEg0R9K-1" vertex="1">
          <mxGeometry x="377.5" y="500" width="65" height="70" as="geometry" />
        </mxCell>
        <mxCell id="oUWo8qwdKe1J3eEg0R9K-20" value="Database" style="text;html=1;strokeColor=none;fillColor=none;align=center;verticalAlign=middle;whiteSpace=wrap;rounded=0;" parent="oUWo8qwdKe1J3eEg0R9K-1" vertex="1">
          <mxGeometry x="390" y="540" width="40" height="20" as="geometry" />
        </mxCell>
        <mxCell id="oUWo8qwdKe1J3eEg0R9K-21" value="" style="rounded=0;whiteSpace=wrap;html=1;labelBackgroundColor=none;fontSize=16;fontColor=#000000;strokeWidth=1;fillColor=#FFFFFF;" parent="oUWo8qwdKe1J3eEg0R9K-1" vertex="1">
          <mxGeometry x="310" y="330" width="30" height="20" as="geometry" />
        </mxCell>
        <mxCell id="oUWo8qwdKe1J3eEg0R9K-22" value="" style="rounded=0;whiteSpace=wrap;html=1;labelBackgroundColor=none;fontSize=16;fontColor=#000000;strokeWidth=1;fillColor=#FFFFFF;" parent="oUWo8qwdKe1J3eEg0R9K-1" vertex="1">
          <mxGeometry x="225" y="330" width="30" height="20" as="geometry" />
        </mxCell>
        <mxCell id="oUWo8qwdKe1J3eEg0R9K-23" value="&amp;nbsp; &amp;nbsp;Port" style="text;html=1;strokeColor=none;fillColor=none;align=center;verticalAlign=middle;whiteSpace=wrap;rounded=0;labelBackgroundColor=none;fontSize=12;fontColor=#000000;" parent="oUWo8qwdKe1J3eEg0R9K-1" vertex="1">
          <mxGeometry x="215" y="330" width="40" height="20" as="geometry" />
        </mxCell>
        <mxCell id="oUWo8qwdKe1J3eEg0R9K-24" value="&amp;nbsp; &amp;nbsp;Port" style="text;html=1;strokeColor=none;fillColor=none;align=center;verticalAlign=middle;whiteSpace=wrap;rounded=0;labelBackgroundColor=none;fontSize=12;fontColor=#000000;" parent="oUWo8qwdKe1J3eEg0R9K-1" vertex="1">
          <mxGeometry x="300" y="330" width="40" height="20" as="geometry" />
        </mxCell>
        <mxCell id="oUWo8qwdKe1J3eEg0R9K-25" value="" style="rounded=0;whiteSpace=wrap;html=1;labelBackgroundColor=none;fontSize=16;fontColor=#000000;strokeWidth=1;fillColor=#FFFFFF;" parent="oUWo8qwdKe1J3eEg0R9K-1" vertex="1">
          <mxGeometry x="395" y="330" width="30" height="20" as="geometry" />
        </mxCell>
        <mxCell id="oUWo8qwdKe1J3eEg0R9K-26" value="" style="rounded=0;whiteSpace=wrap;html=1;labelBackgroundColor=none;fontSize=16;fontColor=#000000;strokeWidth=1;fillColor=#FFFFFF;" parent="oUWo8qwdKe1J3eEg0R9K-1" vertex="1">
          <mxGeometry x="264.21" y="400" width="30" height="20" as="geometry" />
        </mxCell>
        <mxCell id="oUWo8qwdKe1J3eEg0R9K-27" value="" style="rounded=0;whiteSpace=wrap;html=1;labelBackgroundColor=none;fontSize=16;fontColor=#000000;strokeWidth=1;fillColor=#FFFFFF;" parent="oUWo8qwdKe1J3eEg0R9K-1" vertex="1">
          <mxGeometry x="355.78" y="400" width="30" height="20" as="geometry" />
        </mxCell>
        <mxCell id="oUWo8qwdKe1J3eEg0R9K-28" value="&amp;nbsp; Port" style="text;html=1;strokeColor=none;fillColor=none;align=center;verticalAlign=middle;whiteSpace=wrap;rounded=0;labelBackgroundColor=none;fontSize=12;fontColor=#000000;" parent="oUWo8qwdKe1J3eEg0R9K-1" vertex="1">
          <mxGeometry x="385.78" y="330" width="40" height="20" as="geometry" />
        </mxCell>
        <mxCell id="oUWo8qwdKe1J3eEg0R9K-29" value="&amp;nbsp; Port" style="text;html=1;strokeColor=none;fillColor=none;align=center;verticalAlign=middle;whiteSpace=wrap;rounded=0;labelBackgroundColor=none;fontSize=12;fontColor=#000000;" parent="oUWo8qwdKe1J3eEg0R9K-1" vertex="1">
          <mxGeometry x="345.78" y="400" width="40" height="20" as="geometry" />
        </mxCell>
        <mxCell id="oUWo8qwdKe1J3eEg0R9K-30" value="&amp;nbsp; Port" style="text;html=1;strokeColor=none;fillColor=none;align=center;verticalAlign=middle;whiteSpace=wrap;rounded=0;labelBackgroundColor=none;fontSize=12;fontColor=#000000;" parent="oUWo8qwdKe1J3eEg0R9K-1" vertex="1">
          <mxGeometry x="255" y="400" width="40" height="20" as="geometry" />
        </mxCell>
        <mxCell id="oUWo8qwdKe1J3eEg0R9K-33" style="edgeStyle=none;rounded=0;orthogonalLoop=1;jettySize=auto;html=1;entryX=1;entryY=0.5;entryDx=0;entryDy=0;dashed=1;strokeWidth=3;" parent="oUWo8qwdKe1J3eEg0R9K-1" source="oUWo8qwdKe1J3eEg0R9K-31" target="oUWo8qwdKe1J3eEg0R9K-7" edge="1">
          <mxGeometry relative="1" as="geometry" />
        </mxCell>
        <mxCell id="oUWo8qwdKe1J3eEg0R9K-31" value="" style="shape=image;imageAspect=0;aspect=fixed;verticalLabelPosition=bottom;verticalAlign=top;fillColor=#FFFFFF;image=data:image/png,iVBORw0KGgoAAAANSUhEUgAAAMgAAADXCAYAAABf2B7QAABBX3pUWHRSYXcgcHJvZmlsZSB0eXBlIGV4aWYAAHjarZ1bsuw4jmX/NYoagsQ3h8OHaNYz6OH3WvIb0ZWRVWZt1pWR93WOu0sigY29ARDnev/3/zrXf/zHfzwpx3ClXFvppdz8L/XUw+Av7f79b3y/P3f6fv/+t/763vOvX792/fONwJcif8bfP1v58/q/vv78/QG/PwZ/y//pg9r68435r9/o6c/nt398UPj9Eb0j/77/fFD/80Ex/L7x/PmA8Xusu/RW//MjzPf355/3/5aBX5e/pfavt/1v/66s3s5cJ4bwxife/B5i+t1A9NdzxcFfCr/H+L2Q/0ZM/MuvtD8fxoL8V+t0/6e7uv65K+/7X+/K33/7x6bE8vv6xRf+dTHL33/+l19/8j++/ucDr2+J/9OV4/r7yv/y9RZi/efj/PXrnN2uc97f041UWNLy56H+epTvb7xwsuTxe1vhv8qvzN/r91/nv3ZhvYst3/e6J/+tpz+BbTlPevYznvO835/rWdxiCm+o/BnCYqP8Wos19LDifbGZyf+eE2rsccfGvi22N/LV8Pe9PN91+3e59TQuvB9eGR4+7HGvr2/D/wf++28/6BxN/nnu9lsnzIL7CjoFt+HO+TuvYkOe85cd5W+B//rvn/9zXyM7mL9lbjzguOfvI2Z+/tiWdhS/jY68MPPnz9eeuv98AEvEtTM380R24C5PzE957hpCfR7WsbE/gw/CQFKYbMGTc9jcZcBBCpvTgtfmPfX5Xhty+H0ZzGIjMo5V2ZoeB3uVADbsp6aGDY0cc8o5l1xzyz2PEksquZRSi+A3aqyp5lpqra32OlpsqeVWWm3tar2NHnoEHHMvvfbWex+Diw4+efDuwQvGmGHGmWaeZdbZZp9jYT4rrbzKqqtdq6+xw44bnNhl19123+N9XkzpTW9+y1vf9vZ3HEztxJNOPuXU004/4+9de67P7Z5/++//fdeev3YtfDvlC+vfu8Zba/3rIx7hJLtn7FhIDzte3QEMOrhnd3tSCpdb557dPeAVOXCX2c3ZjzvGDqb3Cfk8f+/d/925f9m3K6X/r30Lf+3c5db9T+zc5db9Nzv37/v2X+zaNtqsO17fDumGLuodj7F0BP4/T5qRN93fv8DB8eyQzoyL9QnlvUGR0ga49uz89OvJ8x57E7nxi50rkWewym85vC6vzcVrDc/ky/t9T1rlPjcrsGdsJfCs7z1re9e1F5Y5Umcz2JaMR6XABoTjv1JZu74b3xzvy2tSAFo3715PyTONtmNd5z2xvBdXGe98U13z4NeA4zpcc+Q258RNZ857Db7TwngHHs0614VNJYymxLjDWO+e+wrY01Pqy16Dwrmc8NTS+955BT4cY1uNS76r8saF0bzx5tNHfddbM/c/d8uz12vwRbYisjdjrvLm3lYr+bQ4RucpWfJ3bGziVPjGTDu8/D8UtrXOeK8z28silqv2oWXUh1VdAFLYLMR4jYTc1FP4wssaZv7/lrQO/Gjud5bynIZh95BGeEfeV3rCbk/s5Zk15rfyiowPrAgBy5gaphXLLHkfNnk/vZdM+JlvflbKd5+VS2BV8wrTteoLA3/POnrKWaFXnm7M++zVbxfw7bhqy4GHW4NPTnc7BQeGnbQ50nsu6N/GJrDC+p7Kvb9PflMJp61KgItc6Al98ngGlrFP6+z7dEnvPlYK5cyK9V4797eM/byjHNwDPz5HAImJPd44QW5Pqxrs9CsvBke4qLheY80XXyRehwkZLewo4LMOdxLxvJTWHCOns9/y9IGxsS1jtrXeN/QzA7up+9R31LZf3e+tncWOZ3e8MG6/OHZ/eDDwCTbx3rkOHvy0hy3HbvuLdVYALHP1u03crZ1ViSH5XPd5d1z79oHw+Lx7BcDSg2/MnWrDpeoALt63PsnlwANwHXavSA8wwyfiZftac896TuTDcJZV9e9nltgecJSlABXS3sBQww757TM7oE1jW9j4hLCEs+K1dsaVMbhVTxHiQL/g23PbB6jdke0Cz0C19Hb4S9BF3haBgBO4l8yN3uu9YhR3uKn+sKfxHrGxq+OR+aT97jUn5jWfHPktpuoSdDbGPydX6hsGPcu5QE1IK+98boDwPDf7s0t7AG3cc+GrOXF772JF3p0BKuCnPKOvfCIEbyY41Qos9luIRTVjh4SRuhaAPMPaKBU2p8Kus38lSP3zT5CypNbg3KxVkfkrO9rbyiQcPawJn9RRAB0mUrHVu+V7VaQAHhkIfTzi2glTI8xkWGcGPjPgf2YPv4uAyfyZeCq8GvONA34fcId+6ti1zjW1LTY/4LM1ZD7xEESgiztfxLH3xZZdvIqThsYaAO5YTGu1uDxlTHYdrBgdSOllE+2w+Bj6ejYCIe9R+lWx0/62MViPCpB1/Yndf+N5hgSVtQd7eYqQI1/Y+WAr7HIgVkUgIybCRFsX+4dz59Cws/jUBF6zH2X0ivnwl4UXzPfl89i/iu8+7y2qo5oyXkvYS/gqIXvOmzi5g6Bzc/s4JguDF6W3NUifZIAHZHPmDaMHPV7wFMQF4c8kxujZ4OtFWG8v12dPDvZIMG1EUDwsgJp8PjhFuN4A3AFM2NtqsJkrEYZx0cQd7vfG1562ePyJsT4bl20bls9rJkGAyHljDnjmHUZ/V8D0C9idU6+E9/Lil7P617bCBehh+pHvKebgHrg6OuHe550Pf4fK4KMvkW6AoNjEO7kZyEAjWNW922kYe8vXwxt44t4JpZrAYs2h3f2DlY5zscHcJwHh9JvbCBlUH2+N3/u47/ewbqzRXTG+03apIy8C8+t3IdVIjhe3eYAj9uSkwu/E0YBFIbzTQNuItzsAdXCbfAX8LmDX5eVZCfNcLdwAIpvNgrd8OqyJgO/6w+dKOqD10mV7nDh6D4S5PfrFu3GCm9dx309kI7FBqMnqeDphiI/ADx+Qm01/uRIWfUeV1dCsCmCYX2wefpR5z4FusNsx98lCsP7vIurdhPAHl37Fnxx52TMwl84HaOUi0ubJMVzwCJZGaO0YPchFPJq6ncALRyWsZ8RsukvcbKDccWBWDw73Pr69w5RfVr3hImwHpBH2SdyAv75S1efBHcfZevgbJEPwMkL2JuzxgAfT2WBQhP6GWDrR/fWDhnsPWT0bordYlwbstIQY7s+6Bwb99oltY5Q31rv6hDq/cMPAjmUQsQHl48LWiD3300Y77FoBQMC1E0YivO8NV+LOx8eFYN7DHTtzEZHaiYM75zlECBUk7yu47Q9cB7FbMMWuMs4MhcUnOmRzQrQxU0jMYoV0QQ2bwAd1A+zuCwDa7R4dxN6E4wM26fYnJO7xjbNFNjNMwDK+Dfw00rIPYPVYyIfwysHBLVgtlwg5A4KZ54NMnkLs5/llXbhxfEGzMgwtZ+D2yBiACPCPPPHeNyEEU9vXwe9Sq/fEZOTGEfMZhjAAYMZxQyEwZW0EFpFucX7hU2CugQFUhZ01KMN1b0TGfFobXBq4JuYvnyP2Bg5CSJsqgVis7Rc8tJ3PFDvqbQM17NgDoUQdsYVSlL4/329cbUKvoVjwsoAQ6RX9BpYvPh/KuACOPAgIGF8BIaE18eGZ1f14tjw/4UGV1dCZJUbrBIxX1ou44XdkSawTGkpczzjmYtkX9L0LE+nKWEyGH+xp6Bn1I23Qlhf9oA6Z/bMTgBDhAXnAjgwbOcJJQJzZgBd0UrsiXFdurGbP7Y4TrllvVprFao1NAimK1LqzFVv2hcAZWOGGdmQsOHVCd6wX5AOagMfxK0vDuYFdwHHE4l5lRCRShF1v2QvkhEUswPfGNOEg4xZdeN+47vUIpTV2w6vxI4HlB76Nojzpt16zj/7Jv2jkYk1YMFNzndtmP1/+emnqmU/As4mu5QutC0MvGfHz3i+BPyOpe14GMXg9pAFqyjrBDPEQqNXLddbFy9Y0imcMFb2/jsQVSukeE6AmfgWIs5wdBbUSZliS0qFoRKiW2NneKPWrI7KEHWLEohDU0ptEONbyEP76a0xTmKBxnhpZ9YVS2KyrzBwGj1OA+pc4hGHDeMBIbmiyEPwTYcXTYHzPDQ53thUqBIYcSQMhLSGeCqGZVYeXtTddEs8Gm/li7bozqh6zRaD2D1mRZ++NDfVCzKgHGOQJ4eKwqk8NousIzWDE1QYxb994jskzNgd63aEZTyOCzAUBkBRj2xkyQyjBdBN3XFWIYDbC71F15wsEmsuAASG6AU10EssCkJzTgtRiEaWA57wf4m1emO/HaO9Xu7tRPTde8qzrBWifYfzmaVoEUhMXQ28BNyVhDKGW+fBtmP9CbJphGNwjxg59klog21ZCr0lyMvxtygeMbbDtYxq4aml3AfBxMtZoyJshZ3w8UZlF5YsDo9IFn3FhaJBAwBELzfUj0hUnY2/yRovBfkZBDwDfmA/rxkVYSEw4sbKIeyxnrzDa9Ub1C96OpjytlYUqg7LBcuLHA3gWAA7Cquq8M7abwo4PIYUvIp/eBglhhy6WI6MwTpM1ojaq0hQOuY1JHdNFtICSBJ9Pwd5sEH56wMkKvkcJ4K2yueA5B35cuQlVuRhnZgc84Zl4a84yCtZhEtf5DOzuniMMsxLDrACvgbTnC/GYX2BHgliFbh4RIspX2LtnszMmem64wPyIXD78ejs0YidYpFQGV5sFEhGI7BNmU4FEVmaISuk2DfUQGVZR1hDMwc3T69bO4PHvq+xH+CaglPAB80fEloWyE2fBJIyeQAynRZeozlg65Di+o+jeBfNPDUVScP6n8rUb4C8b4UcwQHY9W+YAfBLLiVSQ5IUjvGglb0pVEwiXgBSouNfpwPALAgAgUIihDr4am5lBPFMogZVahIpyl8DKwBNusBuj4O8KGSIu+45RDQjTwgDKo7USMTprhMsaR6cmAnd5WBRk0oTDvFoshPsAuUD/8psLNfBa5wAyCioB8IPmlDWueIMJKlc5PxTgPLMWFFGdh5gYHjwDhv2wEAVqC6PBQab+CguEdYDEI8Ii04XuSwfhCkkJADGyEEojwyGQGjXRLKAueGgUNzdDjLxxdGw6GTJZaEJqJWRHQ7ahZbm1hEYckSvglAplospgz4HPDlfeLofhEx0ziUiNBUMF40rtKsA8mIYD7q8UAM7ztvsmjhMGT8ZIoOMwscxGPfVeSL6KvfEu9CAQiRwH/suV0nm5xBw38QgdAXYqMaWaK9bWq9tYwV/Ml2CTMN5AqEfb1n4WOyZgrDKvWNmwkAqhHmvlqbpiFe85b2kLlYZGP4P3o2i22WNIPMoY24PkEUTAGvj3DNcLVwHooRaZJXrP6BOQThD0/REdAlgmLgMugI5gTkzoyLrqMikWNRT42SXPwKv2DYyXSUCGGCyx/Uu7jIU5ESgOzJYoxZ4/hG5CdkTufRwMumX65b2g3vwb8gUz5iF5PQSUIISJTuwJt/frO/WAk8Oal8SGr9xYyVas4F0Gm+uZ6nGke50Nwy1E6/uX/SRyoEF4wjf2b6OTOZyGJ/ZW0bpoMXPOheckWl/cGXu2tUkis+mwBzwCxIktbxbYv0d8+OACZD+YdePFhO9SROPMgkH99gWfQd8Qmx6C9X7fsCqrjku9Weah9lw8ZX0haJWohpWxP+aP9lJARpcbPnjB2jcqCGEINt+4EgQBcRNZUxD/k1LSYbhxNhlBGIEV9akeFAnvwi2Okgcw0kuD7N9EoWUKXukGWV8gSwuPrEuScKN4E3gDyYAx95ZXOyEAtaCn69YQNQEJ3XbLBA6QGQG4UQgEAVOrvUvPgbFBfL9BxJjZz3A+ckFMgJ5tN/ucyzLcGpI0PpGlRSPj4lgUBDsRXW6WEP5TPnjD0VKANOH6G1mJ1eF+3Hsk0lZpYj9mDCQxfAxGze0jTaCbA/GDGTaCFYHM1VqIDxjVVwh4pQTIDWzugfkTK1l68BhaViEnGS+3djgRcROOQBDuaR/h5DFFj2NM9OVoPLApAjhBLOnCRwHNARV8MJvVIvcz4124SQV2zx++sVIsfzTBDL7gS1l4hAuY0gLhIaMgilthWvxORDL4kAkW9BYAVOHfi+vBbqCP8JOOugZLa2FrdzVNDEXk1uFHSJCb1QNCFwFtAllYT2BNfdcLd0SbPUR6MMxyKIbko6UDHnMP02oEAvdu18KAwzThhXePfCd0zTxwg+TX8z0MYGirsNjFwAu4KXYQT404FcEO1sa/nitvhDX0AaUTgvkcP/Y8n6IG9/uXdgffuVOl01GTgKxQBi+HB2U2Bn55AdAII0Lla9bN2CCsEhmx2JhQdEpWnA7OBenB+tQSD0EH3w4mBlL1Nra5EblKv8E8lGu8U+CdUvaaWjNywxgtvxwQIh8ExvORF+AbPUvY+gpmd7rikyQC6gyoQCTe3x8htZrdEXxmgdTekPNJmPsiSQWKm0UJ4xdal+DxXMSZnBocEkRFzuHdUhLsGT6CYZk95OPQhZC6OaAMCWUNnqkVhyID/+W+xrWf8n40HFabCN2IqKPOaA/AVt2fLwc/MVGE6A3cEPrQHkRdQHAMaEZ36y7h/CZuI2aQBAU2tc2miw6QrRBCCXgj8g1nhz4gww4K8hDTYM6QqvYMlMUYyCzELYIa6Iaxw0kRv3CcA80n+GbAnPiOAGMZidFx3+wBXByijUKEFthgEkp6rukdrlt5luDYCQk+ecBu+Y9wrlAtZn2wfJbjeUJL7DpcFEOWiAaTGmwVBmkdwAIAiAVBwe9eAjVijRvUur/gn4i6XRRDY78PagaOxcZKAqz3YjEXF+i9Y9X4H1bOkhaFNUwGUsbCEe9Rf9wwTjfSSH3wrJgRJA5Gl8uwuAQLv8wjwGMRoPdLWICQoFarmXIwkPuDSoGsqAbiRzBB8BJ8eTuwjCjFnLMAvgpyHSsvpgNeFHm34PCLKfszow57QMUgHGIa0Gei/4t0qsANd3IP9Ta+TYCEDLyvCRfuQcX02BwAOmIu2w0E67rZvHhqI0jjOcBxQd8DXqmm5UrjDOnijvlbKFFxBzETbJvMn6AJhw8qz25oWZjn7SbJep9XcWiBZ0WkPhT+emBmC1DvgALiFB1MlK1b9nub/uE7xN5vwYcJWymobAH2qgXA7Fjb1cpFcHC7MMUZkNAwk2Emy2t1PmuaulufmsIrPyaMFodbIUKTUuQFFUDF9wLJX8RTVDBxCUQ0HwJgl2q6Ak0GuJ23wdehpUAHxJtIpdN8FYkoxgBuWcy25yI+5qlLtMCLusLC2LOXj+YeN2LQUrcFZ9ZSg8a6u9pRxfhYfoL6oezms1lwTPvLcY/bjOtjQYNtimzaF/aVEhI1TPodhW3AbcAWYKtKdy6QIT9vTbjeg2fYRvXAS9McebFJBnPuEefECQn6oBYBizfCN9NnGAG7gWlfB+CAbMXbCk6TQ1pY2O/E114oDdQKooZVosNfxNzLd6BM3N/92vTDskb5Cb6GL2Z8CFSBtZ8AtiTCGxYBhXpwKRDMXCUofRPNCIzF3LzMCbl7/xhUPJe5RJgDZnq6hb4JE5BXxt42gZEV7lZin7CgvPU56PSJGEdNIAqiVfGqwtvXwuoFUjaXZcMYCGrTpF5TzwcIwW0S+Wy2CPsfoF0yCbEnzKigqKFZwJ6EPRZ43FsEKKXasiaARnxlDoMQgsaCvuLWqcUpJUGG/0q/u4nmj3GsX0F/qitZfkb5waUgtP4Th8mmVauFkZkR0myKJVT4HF/iUgsojVv1CYpdbnyHZp122AVUZl/AG5Cxzfex1+XNFVoGJAMjN07Rv5ymVpGBaeIFQVQ7YltYd+D4ICzrkV2PjaKD5NiaMK2rD3R4VuMGvBnUuYkxOHLjkYKcbDy4SLQZwtUIaFCbQGA1Ui7wQeqE0sRumtk584dGQyx+1KYCA8ZbJt7V/FwnIcgQKXPjNTEue9CCoHnAm/ihKhQEdXG/2eTavSEc4yFGIjvRgIj3WrGDK2OWKB7kCHi87A7oyN4sVtev6IWwQkDX+sjRzClnSK7hgA2tRBlgWYC+xneVJQ2Bf577k8ZA/fA2C6szicCKOssj6em4y2dmSN5t+8yvywEyuja3hld2eCdPcluU+fIQ1iigmgQGWEk2GYlMGxi0eRdsEYaMi3XeC4iMryzGfrMFBOTuWyAFkQgCbnIHcPXxhRwQhjUGWyeRIgxT9oA3bIebUQsNy2IqsIJ3VlQu2C8jysv8Drp12BzDcliWM78PcPLZ4BP03YLDA9DATTvqCHB/TCwSTJGRADI0fhOp0SNGym6GuCuWEMeo2KDK7bcfgOHyuFEBPeLVFIBqOaQRXt6VbhmLgZ5J10oAQIPJxZMkn6DPE/eORyppfttipuWKK2HzyHgCVmoaDpwZgqtwI8qtNkEB07bj7qdiN0Rg3kYoLw3q0aqAx97A/LcZIlcUGBpwg4i4xzxBOXORbIVx4/zq/Aj5jWAe1shwwXvhDSA20fQN9tZgKLtzD+zjQqlCR835n7hbfQlvLBTLbdJuo9Yg5ZmrdSsa6AhAg6VE8V3NahsOKXayhuwzz48xK6PODbX5Sh/EI3SJCXDT4OwbPCSYCsGvxMyaL2QVRDoVCAW6y6otOAjImZhXmAP92eBZciI8JsK8WUdoaz9BCo9VAPgLwg7vf98EuN+yVChFMbGHYl8l4P9+Dd44YBP33glLGfddTO7ZnYbNsEahwWorUQb5ccBiFAYi/vYTRrdL5SbKlru1BQ2/ufH1WJx1vb8cKQH9hmNOABrwl0pz+QftTnRsB5VhWvf4TXwPodvtSiE4DvuGCCeANmGNx91NTQ+kjr7hRxYogU3i9Fbi2VcxAcxQi2LAdg3lEv6JeZWEkDHzq29vk/9BYWuF9BoYCWAVkRgDCsOKtweQMHNj+1gvsK1H6nRwSTbLhoAOXrGYiQvLu1B0CwlRu3qSQKghNqgeQd7unPlMqBVPsRofBDqA3V9cRUVmQjH6knDEFrwWU1DZfI83vZZj7nthepZYb0t3zSYCgrJdjrBMIKTBP6JJ8QLVlJVa4ilhwUmgfiPCzXCktO1+Wfaf1oLyByXUNXCOBaUm6t+ovQUucbmN4MWaljlJbWyEy/x30/XsubJPRkoZK3IwLcQUUZH4anmL2M7XZ20HScqGLHPOeFyu+t1zEWkkMYYInGG0Hcxts2WsyrL3yVWZx3IU3s+G28RT5WzA2mxIbqLzecvFJiPqsZkD7wIP0n4B3C8LBW3CdYGwF5+KMX0Fhxv0T7hPjRA48z4VPz8hXThafCEdvStVEKR1Q8HUSWwuOLw+AMkDboug/fpdKkj7NZfN6jX217J33TZeAlKZPSGIAafgNyED/13d58Z6WF/cGBBwuTHxNrcdJi8a5W3rWMGGHkOo7BwgxmFl3GVGZw17V+K0rYVY0A1tqU15IyAEY8fdlb0Pez8hpE9p86oQ4cVOD0g6Nt1APzD/yRD9RxSGyizIcIpxDCF1PJaB9jERBE++LTQbXK4IOQDMAFSuB2xlYMTaHDR27DuxbWZZD8aJp6Zp0QOLLGZTgNmO559qDelaYfHqYjctT4HxHJzOREBK8JAaLDVBTG5i8eLZ6q8QDOEshGzYrc0vARe+YFAZBGHLynlqIgBCYwA7k1zNLiMIN1KmJTPBtXBj28xHk6ihbDA7vAVudyFcSrCy9FZ7zS1+EZKsTBRpNiz0ex5kC8py1hMDSI6hjVGCJBisTUTpfBG3oWBYfLPYWwKIyz/tsB1mc7gIN9bvdstXisoQpwBtDa+yt0GUxyDLhY0R4deCmudk1wdWghJ+H9AUYWIagQ1lJYlxaCIJl9p+NXt2VohegAAaLoxo3TgZeJ+tNSsY4W2EaXYOQo1HVet/E2zl83HVE2QuYPLiMtyVlSpIRMtferoLXTagmcqFoBl6K0wW+2VBJ64lmcbXRWMIm0GYG2fHP8JZ4gXy9kbMXHgp0RwtYUGnYFmvyZSGTzVzRsTwx3Jdq9Y1Tf8CSFNChrrteV7GeG622MJoQhAnAIo6QmMaUBVgVnuIlmyf5W1YNAHVkly2JkcggFXeGb0GdczVQCv9NDPX0YwEN3Zqui3WUYlBBIvxgSmAWfYi2HH34RArO5eaV+JKGQBGrTYWhm09lg+73WahwEBxoPF1427VVrH6Q/SeX7cwFs5jYL2jXuwejAj702ThdsHOccjbwjfBKwXIbXYOe4BoltiV6cc+We5326JZoym3S2Isn4J+QpfnF/ZYtZtw2QyDX8uubVA9skGmdW22htrz0gqrmAIZAZxHM5PA5xN0YEz3eD1dYg9nir0GrCJUhT8MNtbn3rPbXokOzIZyjAQrHVUFmU1Zox2yQs8cHMrG5GhBzsI1eFM1/QXM52kjt93gx3sDdh6bGRfcHub/yGQL222fPE4yf54p/Z4t2pw2vpDZZRMhmvPD5IgbhBl2gYBRQgMtLvkJHkyAR7MWTwAkgXvb3//ABKqZGuig8rbbKtNaTqwZxnJsbiLYrXJKu25T2FWIHNgtUQfzbei9FZ7Q5g0bt5mOtWNhLXjBLaK9dfGXuD34e35QTxAtOwcG6vTYOqp8GHAmoCvamTOgmhjw2hb5eAwkbbBU0cAwk/wAz7Gft1yBZ8+2EuMFrrLN4AidgKQetu5Mm+xeVUXh4u29zRhUApFZlIjjYb0A7LmaXSbb/hC0fMTiUGb5Nfu/7PvRzezhvJtCY1jPhJLx7ooVd3O89wazxr46G/TYfgjYE9QWjCaf7LEl2/5dKyID/BKe+REkAP9lR4iArHhgk6MVnHQumOht9Fuzo4R7OgG919xb+7C/9imUWg7ABrfy2ArBW7EE4PhRPSPubd+5uOE3wZ2zIEoMhZKArcAYMe2FYbBU6DWoWeZVeDy7sn/NFYSc9HUr3QBAvuC6uNg+UG30TAQudROwD0414OSwsgHQgBWWTfDDVCB00AQ7/4Av1v4JSIprIC9vW0ZlrmZOCG8PQGmzGDBvOY1HyR4TwM7t3EidpwqDFTnYHZpwcFFUdrICYkSIMD2z9t9ubZ4FcsKKRsu2y3z4IcRUTOY7vWFnJGD92g1lx8z12u+L2ZtY3MSddTe7BLto3XmC6tkYBU4xccp2WSfj4QmxViXNVwof5Yrq3bBsojDhTbiCTuK8qJxQYTglIwJY8hKhe6AW8RweB2w+/ooeS1FIlWt8ewD8NRsFbL7DGarnFCfEw2M35uiXCU4JeAiChCc/xoZBw2VuqdiuFytkALcHimd8WxMct2fjPA8H4Ix0E7hR4OClqg21ZK66V5s/WT2W7CWeXWfBj7m3iaLkPp9aeU1l91jtwDMGc0JegeeDLiSZOiod0xm2tPPQWD6M9UJ3tYov7I191oiP2SxVT2WJHlvOikzMJm0bOa1zq9OJ38gZKDWxbQYkb75s3+42A0OKiT0bbmiQTwCKzszKm6I1Gw6f7cUCRlGBshIRqJXD7BfY5I6ieTjbVuyWxJSDTNgTOCgxjZQo0PqXJevESDRBT/YBvOZHbHpA4tQdLoJAMvgTF3EQNuopGw6vOrE6EMFOI7EpUOgwstIzVIEohJyaeC28jTV8BH/kpQE2Taiix43gn6V5OtZSuD0k2EEpNcdHX/EUAOwWvhPwn4oX3iDvWBd79CIlBApMKiNsoDfIzH6AvLfC0IDFqOZ57QggwnkaE15jviV/zcdvamFdUF+43rDYfatZvvMjSxX6svcxeNgLjWvXFBwC1vIdanr6uCfeXqxLgJ6o7F0eU6hY2K54fV7TQz6VO0Lmdx7Z0L4tK7zwYBnlbWMEy+exO3Oi1a7F50JvN911HnXBZOu2L7SjGTqBw6heTWQd0+bPp1eHGZjCjiKPDMCQ0nl1U7+jrAEihodnd2tjNrm3ih14JcDccPlfHgsyd3vOA8oiirKlaAYi0blyMXlmbPo64b8DgevrsLbvGC487LVnS8IgIprLemGEeRUDmj1w8+7sdrsI1JnoMCLafErj2VmPoS2RPPPN+WumDdOC44TzQoEQGpaXYZHIHnADLwL87dN4k+mOpoPeppI/AZp6/dSJghlWNQtQ9n3n6+iu3+JNq7ko3PcCsAmc3zVuUAKlyZKybvADWA2iMYGqMEmeCrCycOYJHQ8Z4P/4YLQKxtNfbNdrsnd/8RnlQSR+jO/5KVwUzVYxzEcqi7GbDYqR8MC7WC1+f21A5/sXeuarrsb5j28TVe/H1sEM2z2eQUw6wWQVzL8CI7O/NwtoviCBRwG8xxtvIODpdzYJIcO62f3vY45NlEts6/O2y3ksvJWLJvt88q1oaAeVjf5zL20wbdU27y+LCKN52KAhKcGEOopkGEbf6BHFek9wuDwwrf4JurKvaCPllAZM9u42pXqQi+jBJxi/z6o9fI4S8dccwOwIHHCryzOamo1JSxQkAIR7vekoZ1ll+4G21H9auGF7626olPc71HB0zGwqSqurnqs8M6+W2mWingBkdt8jDvbvvNEPxxyQ0it/BwLit8KD1bbAwyttOmtGbJ7sK0df2/RnNu8HzMNqbuxn226OjLTUZG43L/BCBDxFuMG06+dSlviHBIenZY1sN569eVIr2rgJ3vGAwUMvHgrlz2DjUNf4k/zEFgBgDKN976X6wlvLxSPiNKOo3b9jUKp/NkrCcm45TrOB9VXUxnGy5yuICn1YqsCq8led3O81cQ+I+Au9smIU1KyIKgwNmDgVmqrD12lBcNlrAimaEiFbCvjQ9dg/t4s9EWw9/NHc4onWMdT0sNdkhjd2s6OvCcbb42fFVjFYhwtMiE7cDwrZIwzE0l+jnQdagURMDewnxnTjr32ElvGL51ZKsq9jiAbAIsxLgmOtFHVert/ZmQb8W/A9xI9EqAQhiEKmeDB3qEAVzDfbzeOg079mQI3EzhgDDHd0R8S8Gh0yNL5kzlekhEtU64OGv2w1+4bytWZKDQkAeqIA0D36gqI180ELbzlfNy7mcLNBXB48zglIsMUElsGnJXtaTClZPoYrhWOiCJMalicQAxevXnIV99UDLnY64j7VwwwoUguKExfetr1D2wccsywPHLFmFljuZJ13wY8mFP/cNtzrZa89AYCq1Uio7lcmt7PROluJdtu1ClkEK/EF6IJlQ7hWKxdYgGQlqkIu4Fl2m/eGlrPWW238g8sRGc03FfgGOx9xo4U74Nn2P1rS9YM8LFc9LWvu1swe/ycOGHar5Hbbj6+k5EkfCRAiBw3WPVtjbwmLmG26v6xvwzJZ7cl7caFpqnlFSwLE1CPHhkFDoxqfvAICDS5QB48b2A/c0S6fNa/zwMf3V4Xj/9l+MMgboeEQV3K+J4+CVriFo2NbD69IkDCiFC4Ul4cVoAUsdl65oDGzxdQzwBseFQ0ZMHVPQvF3q50EbQiCBaa9JOMeWlNAot0I2nA5nPb1/Gow+weDfDfSA1P/ToMSiQkp9jOvTvCEkFl60FaJlreKgu9PW/gRNXIGHpVtyP1RB+Ht+fkORQ87gITk+rUclAbLXY1wbinOTtFS+8l2viHkLqIifM7+CCKI/d1rZEXkwgKhvyyjDVqJoIc8h7R3EB2LJIzCaU2cb+hcedZ17GrzfHSxOAjmKxxKtI8fDBz1+dJKSJ4IlzPH/I2Sue18J9T/35h6GVTzBhzbTpIrC9+vDfEwXFZhE8U8emVy4bZ/gF8Lpg9cG+F28LgS+FWvT4PBDvGnWr4eDfNRS+pml1mD4pjiAMezqcQbNfig+LIUJgadGbvB1y+MyQ7KxooQBrH1jXKHpnoECP6B/FXXW+a/CScQ2GoEAY1OQjuzlJ6tbTC2r82EbWSZhkeu+NaxH5N1ZPHA0aIg99TVLJDNVTfixTPA6qthW+gIz+x2acBPl93TqPb0eNB4QSYRr/nrED+eYYcKVw+6tGn3uIeUM6SecKK1HQPUuFJkS0rYqBlbvcC78HhUFsBtaIfp8cVXi2CZIlQrFCuzyJMoWtvpk0LY5UWuw0F4FDDiu4EESqA3BacGT72NjXFP2xrwZTs1lqQ9If88KKi1PrZCXn2oYVmxPkxdm2OK5XeM7vUYyXpfCIpPwD6Wd9uLcu9uRsFaInoHa4K4w4+ORdznlhgA3/bpjYj5EMSszw0LSJlb9MjpY2rhZRFBfVN1FsjNHb69WYSS5UBdbFwxVQ/F2NiqrUpf1S4hnrTOZYlWW0AF9uNRz2ZvHArGpsNL8cpO/ioe39kKj9EeM7CanUcomyMS0qjEmEVMfqSmUFJPyiVsq8ZRvi5WWFL4HGP82kngMKM0eFfRjsFYtm8D49PO06E8Yw/eHj3MZ4ak2l36XriNByCTRaLuSUB4sify1C7dOAojgY2CwnICNZNdsPM9eG6yjBKIUGzdpUjftwZAUDaT+9pDtrmWszQ8pAlQnOMRo3PWd0R82vbsISM8GzXwdOfzXNBCVVmfzkCA7gNfmD6wwZLB+DzBF03/wwFxazat2M5tfyfctRrGMBMc8ILgw1XNVESr4PaWWogGoWWB2NctWjcoL4z5o3p41kjmENuYnqRPVRZ+8WR3ConHeIyCSV0IAHjq9JZW4Mr5WOKAscvmtHWsYhImiv2axDgL6uFCQ7E/kCpP2U31C3ZrqR107jYtmcGy+gJ2P/cQqJPg6HgDcNwJFe8Aja/iaQUCObwNsk2gdwwGu413wvIRN0hzQc7TYTZ5tR+ReWx6COa4bAWGD1yrf4eMJyH52Dp234YQSAgqhC++nscbmuQrhyYSGjubQxZ4pmBiqJpGrXbVm01wDsTXH949xwT3RhrZGoaIfPXLUqt0yXre7dlkZ6V4vvX+mgSzJ+qe8X1f/87IBQKCFD/YsYDY5ZpPRM7YDvuYhD7bbgpcmvD6uTCshIi1wWzzDe8nfjRhK7vsE5bLXt5fH6S9SlDNsvq+7dn7mmcbLseieEStyd8vjyZag4MEW/70IHDhZpyJICLmXW1cxSJMYVhiKubebBm0ZQdTv21FxNdKGp6rgDs1OzReIwORrJgdg+2h9awI7fEAa6t8JRSUqcUukBLig83bHmVupHgWV8vajyCS69ofKX3ad44m23lrwTB8ERGZn1RNSD70mvqhbAQfu0Z0eM72IOR3Fp2HmZ73bdu84S8pk2IJxVhlmyowgL3C52EuxBFn4ITUzmVCPGJ9UDXr4TV/DabIt1G/kQHq4dUgA6F7bldYJsDbF+yhjooF2gj8evKgQXwQdCWomFkdfutQnPRNcbH0vxThniGpIXoOgei7Gl5iu1WBDib89b0SjwUX7R9/wSCLbUR20mGH4DwPgNlNOyxg/tlzrILMuOGpED9T3/D7r75msxzAyL62iFdnm/kRkegEnLSyyAQ6z9h9ZmEOk8+E0OWbz8N24KtbIXQtD3O9vDZ7YE8iRwgnIr7E13rbdYAIdnACoDu++ixbAA2HbtyWuHeTseVzeVJmroDCIZLPL1W90Qvmp3DVYuM82lFa0uAf02r1d4ItWIF4DKEHjynpgnd6Qgm+8TXtvAFUd3uLhzdHsLkmfZVOIMQD+c2kCkHmMWcIvEP83F9CtmW67CS7v8cTOTzpOwZ5W8G0to0HQuNsePA8/nbeiJOiQFpUBVxmQNi/mvRj061ZLaIf3oabVE9jwcd4vu28l2F9j2fwiJao87CDEYDLX/spJODy8qu8Fm/Wd9TY884Qr0elOkpcABUesO8Xa/gmImHYvEf1fJ94t2NrY2sXUAfMdZD/m2XkWaZk5cCBF7izi5Egy8QAGJNFCc/tT+WlZ+Dx2mIq745X7/fXZm89Z8/ZzOlWy977wf2swliihVck+zaw5kK8RuVgHhV1bqJJ9jSucL5c/8v70PXi6MJUg2Lm+Q0BYO24I4MBkntu1SRc1DPj3TlL5RDdZ7ogyjAdNBZCtUlqpmqyOSDkKO2JEsBVIs7cXwv1i6pJSBoIHireAnI4DWF3YVN24sCebocgJMy8OEvKk8rW+m1/clLTJlIUJb/Nmg4Jg/Mq32yw8gKXR8xTmCWabrTYsPUME6fPTawI/OtPxzprb510uV1gbV4NoOzpISDjYddraxzYsm7bFwK8ZI2OZR4bX23Ov20pB7titcNkgQ3d/B5xZwBbyG085s0OCuBBKs4G2wiE/GL62Hbd+A0DEv1jKqi5rhxcUdbn+IZspfT+kqatQB2uGFDxBRqaTD+bgX/hT+HWgZw1Akjx+v0160x73AiIZmxv+80fdT4kFl5yQQbnFEht4LJwDn1A7yUbYs83bItHhg17dsRJScWEB4+22vKYqpVmNVpTQoTuvAzThMQN+HHf1vSrBypA52rSqKhHso3dRITbYh1obRVMvoJ+hNVCqtiZjIBNBBZY/viaplGnD7totxFotDzqfpYRvTUHjKgtgFuPt5tGKylecJNqJvlO72OWbQOUDh3wZrgkYVonro9Tztgqk/y2K3zdufY1b7Ude3mNuzqR5yOzj5WIEq0JANIpuMDi+Fcoml+549hT59lmOwkITJ7RcdDbcxVs1qRVIiBVzNgOUkQbgTsTigmr6ITtlBsZnwywvB9TWKvAi75OtqfBpi9PSuEqdpblbdO1omYmT2lPDzynBelk12EDPMFuHpi0i+NISiv0/PbohQ26cxpbMRaJH7HUPuttB1QCM6rpLGAlxNgcpYirflUymIhnS8pr61Cw2nERgTx2ou70gHfEFpYj4OrDrtsYYl3abPRwcBZi0x5FQsOXdIKWOhCP955ryZ5fD7o7cwyPDIRrkJX947dkNs2GtPM7UfWVurtTS1g12wY8B2M7/WtX/UzFAopTHoRHKAYs3MBRS8S4UvjOwvAL9qw/fK9MYlzD9W7nwcQkh4QeOsSvfH8opAiUYKW9WIiZxT5JsojP3UEh5TsxeWzAIn6b3IWO9XqZSbOJKXukvseCPNxSZtamOKHBEwt5e7IPG4nWqFBbJRZPPuNTRDKDTmpoEY9zQ3d2qQcceovHGrvNpfKse3uQyGTswp7Se0DBG75VrMrZO9AmtOS2BK1tjfF8B9i9Fdg0Ljkeh3ccJ8WO6ag+JCeUPGzPDfypr1sEsr44zZ1f0GCiEJ8Op/TIPvpnetwJ+pKtLgMMlmzPMYrzYnibAsjikzVKzBo55xEGT17icypi+FiVBqCNsM7nq5aYD3Seiwvnyd5vQtvx1G0C+b8eBcQbcv/KLBAmAbJ/IxKdZ2izgAd8MGft0UzxNmttfxzu5jhH4M55JfHXf7TxiMv6/XQO10G2ce0IeoMnxJFkhpDFtegbFyLy3upb28uJXx7ZPmChMRWxe19zeJ4C5iOrC43HrMMj8JjL87Ztx1AvJtcc07eTCREJClxcIfKbk/CiEq4bLiqphJ3+SPsRhok7psFLgbiHr3nn2MSMcS+24uW7nvDnylbvgu1lFxt1REkceW2wGZB/bH914t3XRA1enWqFdxfCHhsJUecaX8fdOEj7r/liXp78mMNRdUAjigfkJLoBjP0bn+HUyuPkw2QyGyqqX9zfsMKnfgORDwQQJ72SDZKeFpGjOFzGBDMr71RbpMg+VlqIok53Q24lZ0E4cs1aHEKEjX9Nb4arNrwgeHTWjBAcwLlT2VmuLHhSdoPNEc1hivfOwOey3RmvUK9AWYcbKj9qsIT58DjoDyu7Fjvf4zSh+GXZ3GoM1XOaoQIpntaZjwfDns7lhuKX7bms4j3xi1A8mBXcUT20lBO8cn0CMbwmEZyKkq38EmCc8+dUTIePNEXd8YgnLhqERFz6zycJPrltxEefHmnizRB0J7l09AObYS9EggFUT4Pbx3v3K8duPRgrSDhJVpUb3bG8x8MlRBWLGAXZXYd5iNmcqN1jc7PYH3fNrn0QUuMEp5/gdFNwgAA5M3GwfeUhC0aeJej2AapUrcFmxVEn0jpOAfocoDU3VCl6dsDu1GF9kCAIfsIUu8eZe7YV06PErGHYDs7gEXNEmjr6JDqnDCrNo50nyAvx/mzPMziDq8PDCHfwZegLkY7g7zlGFl42sKyn9m8yi/NucDUoyEW04I4w3ejoKxmr0/GKmYT0xT9o5J2d+AhJ4NFuc7hWfl57ybKlVYgyrDZ2dB9uE8BdIv+09uMAmudLcKRsJerAoVs55XgIH5ryVYis7cM2Ns/gdl0e67G24BlGW8gJnIYU1bqjyW5k1+u0SafkQEQdO2XASne1W+Q+kkZoCd5vHXObOGqEdbZ1sBnFzXnQ0g7sBmsdq/QO5zyiBF9JkoXQZhZ3O54Pr4FEFBgOBBC1yAZADFG3xeao1zQjYuv1CMWxZWWUrj20qq82T5BxOwc1HZFZjtI8IdhwCD+wWcITdPDdBSW3cnKcWPhRae69FfnXd0IWxyFoAv/OJjj5+o6nEFZQn5iNJWiTz8fTYaA9NoA05vLqBJ97eTD13kCD3TKaW402Wq+LfSnqJ2eMEOvstVXV4xfs4eeBC7hT3SB9EAwA+VDs354MYf3eryII8x/HcpHW36B9j1XCncxgvMv6occkHAc4DwHNQ4kJRnkrOswLZfE32Y+TroJesB7jbeG3mA2eUVvw9FC2vCFbLt/YxW9EqCnEDDgrJ4hPbLo59M0HYdNdbfdNNBvPWZ/gc8YdgOt8PZtxHssTvAnOJg7BpzvCDFJvHSwji/ZlkgD2Y5M18QMoOw4pJZreE0tcig9k2lM8nNp4ipFgs9NBjLbYfgVI9gWZZXSG7DsMp32HlTYkIXyJkuHsqNtUIyrNmUjVRLYz7b5EueVsh9J45PyZl10Y81THczX46TbB+KqfMSDzfWZOhvTQLA6BI2N0kOfqyKAMhs7v5E4ZhGyoEzQljGRGnRCd7Cch8vL923lojhHIHh8kxGBlz6u9WSq9sXZjv3nFdXnaGbjkUSFOTgApnq6BnDhHYtq79crVMar+pX8tO6NMQBzu8p0thG1aKFyhO+XGqcdhDYfZZCDCbtzmWOpQp+PfDqHQqQoEIEibh2OOMxPe1exl5K5OuTb+jJJdGjRsz/NLjshD/G7nNB5/OIDNWcqAB8NE+361J3WQh9nRsQ9iP8CPvubxmyAqvV63aUhRt3soDDaG3yIYE8bVVwZ7YP4IxHbYKr4R7YwmUMXL8Y7Zs6+QTNuoFUXc8CZ2DIcVIIYmFkmMdtKauzpM1cPH5EVwd3jGa67W1vcOG8NDsPVpdd8x4lg1mGBXlL33ZidTB98s5sHtWe0HX7elhQ97PCF12dFBWCrm4RzJdVDHr/zJqAHUeLTuGysLv+bhnBXOswdrEiPeeOD5uNe+HPXiXIp1JBdo3uBo8zSiCmbYOmKv1HGg/jS6zO9YLTHSvmp2T38GWObluAu91gEwOYMURZJiN0npNsrwYd3W1dodmeQzmhiZt/ASLTd9qZPqYn9zUatdFG6ysyUcm2m7PMQm/9puADLTexsvYYe4auBTMIDjscJpjwQw4iHKW0VKOEb7jJG8ORgAezAd8GX88dBTsU8LGrcaBM7sSAIQ2Y56OyTIVhTHbOP+duE5oJw4ZF64IU2KrXUYKoLwSc6pAmqruk+K0y1f2uHljJvL0eEIqO30wFK/2VfDEWWw7eFxdbBBnL497riwAeKsvdPR9p3h2RczaAiy6zvTWOAyDuptjQDnrEmDCeh9AJv50V8izcsO8CWBIemYj7Mu03dmAR53AYjlm2Nt3x2P7Mg1JY1jDy1DLieQa7KrDGdPOzpasyjB5DDA1/tAchMghyEXugv2LiAJvZMwyC/N83IBeY0VpNG5q4CrJLvZn7J+57U8vGLzKDzb3jnPyMn8kSV2uUAh8vTsfLoBHad5cDU0bDFR9disj0nxUI4AhS4VidVlcg2SYaulAiodSKIHLjbByWgGGjk2KYBh0Bqw2FEg2772174q5CZO8lYb4uyBdrqFnfMBRyK6ZotETpdCQSAFPVAPm/D0jxd87an+5nyx0R7B5/0e8OZRYT/DlhcYEeEKc9PNbbB+0HmEnQcgt2fvgVxh/tnBd/bkw5mXFJe3XRAUU2noQISG8yQSBNaR054/ntbnukNx4f9hfzkbZS1IN02NLeeQ/Sr1VwA1uQzW4ZQXADA4KRNU8lD3dGAH33Byuv3v5oxMd1YTq1Yc4m+qJch42fKwPL4RzbGyOdWz406Vep4KDW3f/D8PLNnZygdEh0gss5+nR1s9nWWX0rUbr8ZksWzwKzmdL0gYubE2uecDO9a9oDgO9ktjnBtG1AjIb3W8rUnfbbfPcDyNB708m/Gwnfr//IbMWIQwApnDJjKpQ3C5+xsxkOybA6Cr4wzTWtdikwnOWYBgJT+B7ryuZNkXZflZuDOVl4Mpz/gmdXBbM6avnYJwz9tXvJKrxSN3DwZnZfInxOGtvDFsGz6Ox1c/fWlHnM78zf+M5hUcSdsdmYJlA5k3jMN+FlTZDu2bG/srSsy5gJC/6xO/Pz2XClWwQrAdK+fZpHMlNA1skEVYdhsEO7NMFTmuatzfEfljWqbbEw1yvB6nQV87HsczENMz0gDj1e0Hh1YSpHgBGmWs/g2nHsQ9dNx84SagAqoA4HpYak9rvd/QV+dgcjOjZD/ovW2W3LbSeWbIRhNE3sKZskeUUBcmzvCb3h9/RAP8K0BdeAKHXBrPJ4wQX2sEo5B92m1F4Xw/kGGj96pD5woKgceo2XKsM46TvwjGjqnIzh8Oj+XsdnlQGY4VeV77wYbD+IB/6xIOO3y+saXf+T00FjZzHgfmCwLONPqo1HDI56U4sVmIffLATbDBq0+wksUoW9oR4fVFBLMW/BvEmXzRNwVFeAJkDwrSBNMWNx/C+/u0e1lshNRue6rK+IZaASO3p81kLgg5xECGBHgGD7iYtkddwbUjZE77Yb7OMwfiW/kFU46DmybPzMPZbE28u6voS+xmD5zzHjAQGPG4AEhbF5HgTirDi5bzz/HaGyQKJanCvp8Lkn4Hlx1X4KwT4umMvdpXaTw7lye1k3Nt1BiOzrApmojiYHl4YncM3jeHOaE0PDBZ8BoWsn7x5nZEgZMM2+WRhtkyDIOlbd8ob6d1ZccUhuJpIamoEg/ehlNiBf4IkY9yFVM3/pQNoAOn3V8L/5AbPv4IDycQxFXk/I6hsK03T2dQEIW2g5/ngh/FYce702IJtTuuy7nzuBUPZY1nz2Hagz3BTx5UC0So+9OCrH3BOud39JG4sRC1LdRIbPfIGyrbyp+xa3/T2qIDDFKHZAIGGM/jyCwPdaEP/NEkfdo/iBIkQjb7NT10DIs5zxVK9wciHYCL+x7ddLzpGwdICX+sULBifZtI95gkfzhQOIgr6kfJX3qfy1n0zkWyFYyYinkCf6YhPZkeMOXlTDdZ/749Lo6EIMiOb9gclmdaEKus74X68CR+ZQ+XuGYgIyTzihg8EFxSUJN7EOQpngepAVWoIH9D//XY22OeruZBJXM0mKLsAnNaEDPnP8bm8CvTfx5ScVbQNw0yfj/6glfrj1ho4b76uZYn8Rw8DIXeZmYH/HZFy6CPZ0+XI7McXgJbd+ijg2seJah4nL6fleC02/v6Bx7/Oz5Phy9IrWzyiNNzzLfnsIALlhJCHC1G5qvBMqEBKLjmz2aJ3xQHxzBgbF8SCtYrGOMQuGR1bocTmrEPpyV/lSbiShuXVTgzm/6IES4qrTWLg0kUj/5i7rbacyF0IurgDcERNNFhmVCs3aDvp1oXAZ7Pt/Z4EuJx+bPCsmdSJCE2U44OoYAgeyAYmPR4Q35MleFy27baeexPugIhAWlmAgUUD3U4xPuTPETRCVvOnsRXesHwYKIw2e5PEWo27adIiHMof8VFiB7AfrcSlLrnF5NnlZ1rZd9zRu2u8v00iNcBifbNIo2Ia/fNC3hCsPtYzhi/GZBNn6gWU6wgJn+KW3EIHxdpvx8B8tbjj3YBJLBw9js53MMBkYMbaJAI5yEqiG41bfXHBTgMCM729bQFJ1R/BTtIhLm789eXfl9AAIhUK1zfD0k4fMPx1wQTqEW11+djIZi5Y3Pg2q0dB1xyc+n+QPfcltORcqY9ATkPCw4Pglcw22GK85tf4YEnh9y0/s2rN9WgBT4Em3950Me+zakUvobzRDzUqitjtnCImZwQaNzt3weHWj9qjB5qEr3Xo+YJTeAPKyp2hZenXw4CBaKanQPTn3QGW/THIFhh9VgeosPpcshHMOmbd7MIBOWGT5sVsXTYnIWE035D251nBUWwPOb0D74w7Jj+lhknMxXOagFtQLkTwF+8tZptbwGK2Nq+mkfysEJiS3b+7vEnSdXvR4mYC0IzYX0Oc0YVY3wFSgdnBczwoYnrQ5gc+4WEsFEQhpy+n6dxQ2Hc6XT782SI1nx4chKvs3SyA0I8f+5ktO+HclgnwuEDQHR9B1Kzs/nm7qZaoCst1vXyMf3LuuwHw7dlFAewmOGP3akelPcHAfz9c178qTCjf3TRFqoPuawpgan9rx8ksz5oGt9PGOzX/wH+ik+Z0g3FIQAAAGd6VFh0UmF3IHByb2ZpbGUgdHlwZSBpcHRjAAB42j2KwQ2AMAwD/5mCEVI7KmWcKOXBjwf7C6tCOLIT+WLX/ZRtS9GNIxBHTA/NL6CVg7vOJOhyw9TuStIXLdFTBEyGqU556OGrSHsB9e8XZG1lKGIAAAGEaUNDUElDQyBwcm9maWxlAAB4nH2RPUjDUBSFT1O1IhUHO4iKZKhOFkRFHLUKRagQaoVWHUxe+iM0aUhSXBwF14KDP4tVBxdnXR1cBUHwB8TNzUnRRUq8Lym0iPHB5X2c987hvvsAoVZimtU2Bmi6baYScTGTXRFDr+jAEEA1IDPLmJWkJHzX1z0CfL+L8Sz/e3+ubjVnMSAgEs8ww7SJ14mnNm2D8z5xhBVllficeNSkBokfua54/Ma54LLAMyNmOjVHHCEWCy2stDArmhrxJHFU1XTKFzIeq5y3OGulCmv0yV8YzunLS1ynGkQCC1iEBBEKKthACTZitOukWEjRedzH3+/6JXIp5NoAI8c8ytAgu37wP/g9Wys/Me4lheNA+4vjfAwDoV2gXnWc72PHqZ8AwWfgSm/6yzVg+pP0alOLHgE928DFdVNT9oDLHaDvyZBN2ZWCVEI+D7yf0Tdlgd5boGvVm1vjHKcPQJpmlbwBDg6BkQJlr/m8u7N1bv/eaczvB1Uvcpuu23eQAAANGmlUWHRYTUw6Y29tLmFkb2JlLnhtcAAAAAAAPD94cGFja2V0IGJlZ2luPSLvu78iIGlkPSJXNU0wTXBDZWhpSHpyZVN6TlRjemtjOWQiPz4KPHg6eG1wbWV0YSB4bWxuczp4PSJhZG9iZTpuczptZXRhLyIgeDp4bXB0az0iWE1QIENvcmUgNC40LjAtRXhpdjIiPgogPHJkZjpSREYgeG1sbnM6cmRmPSJodHRwOi8vd3d3LnczLm9yZy8xOTk5LzAyLzIyLXJkZi1zeW50YXgtbnMjIj4KICA8cmRmOkRlc2NyaXB0aW9uIHJkZjphYm91dD0iIgogICAgeG1sbnM6eG1wTU09Imh0dHA6Ly9ucy5hZG9iZS5jb20veGFwLzEuMC9tbS8iCiAgICB4bWxuczpzdEV2dD0iaHR0cDovL25zLmFkb2JlLmNvbS94YXAvMS4wL3NUeXBlL1Jlc291cmNlRXZlbnQjIgogICAgeG1sbnM6ZGM9Imh0dHA6Ly9wdXJsLm9yZy9kYy9lbGVtZW50cy8xLjEvIgogICAgeG1sbnM6R0lNUD0iaHR0cDovL3d3dy5naW1wLm9yZy94bXAvIgogICAgeG1sbnM6dGlmZj0iaHR0cDovL25zLmFkb2JlLmNvbS90aWZmLzEuMC8iCiAgICB4bWxuczp4bXA9Imh0dHA6Ly9ucy5hZG9iZS5jb20veGFwLzEuMC8iCiAgIHhtcE1NOkRvY3VtZW50SUQ9ImdpbXA6ZG9jaWQ6Z2ltcDo0NDM4ZTdiMy01YjRkLTRjZWYtOTFhMS1kZTU5NGMwODc1NTYiCiAgIHhtcE1NOkluc3RhbmNlSUQ9InhtcC5paWQ6MTRkMWQ2NGEtNzE5Ny00ZjE0LWFhNWEtMzA1YWYxMDYwZWQ2IgogICB4bXBNTTpPcmlnaW5hbERvY3VtZW50SUQ9InhtcC5kaWQ6MThkZmZjNzUtMWY0ZS00ZDlhLWFmMmMtNjcxZTg5YmM5OTI5IgogICBkYzpGb3JtYXQ9ImltYWdlL3BuZyIKICAgR0lNUDpBUEk9IjIuMCIKICAgR0lNUDpQbGF0Zm9ybT0iTGludXgiCiAgIEdJTVA6VGltZVN0YW1wPSIxNjI1MTAzODIwMDU2MDY3IgogICBHSU1QOlZlcnNpb249IjIuMTAuMjQiCiAgIHRpZmY6T3JpZW50YXRpb249IjEiCiAgIHhtcDpDcmVhdG9yVG9vbD0iR0lNUCAyLjEwIj4KICAgPHhtcE1NOkhpc3Rvcnk+CiAgICA8cmRmOlNlcT4KICAgICA8cmRmOmxpCiAgICAgIHN0RXZ0OmFjdGlvbj0ic2F2ZWQiCiAgICAgIHN0RXZ0OmNoYW5nZWQ9Ii8iCiAgICAgIHN0RXZ0Omluc3RhbmNlSUQ9InhtcC5paWQ6MmE3YTJkNTItZTAyYi00NjFkLTkxZWUtMjg0MDk4M2NhNTRjIgogICAgICBzdEV2dDpzb2Z0d2FyZUFnZW50PSJHaW1wIDIuMTAgKExpbnV4KSIKICAgICAgc3RFdnQ6d2hlbj0iMjAyMS0wNi0zMFQyMjo0Mzo0MC0wMzowMCIvPgogICAgPC9yZGY6U2VxPgogICA8L3htcE1NOkhpc3Rvcnk+CiAgPC9yZGY6RGVzY3JpcHRpb24+CiA8L3JkZjpSREY+CjwveDp4bXBtZXRhPgogICAgICAgICAgICAgICAgICAgICAgICAgICAgICAgICAgICAgICAgICAgICAgICAgICAgICAgICAgICAgICAgICAgICAgICAgICAgICAgICAgICAgICAgICAgICAgICAgICAgCiAgICAgICAgICAgICAgICAgICAgICAgICAgICAgICAgICAgICAgICAgICAgICAgICAgICAgICAgICAgICAgICAgICAgICAgICAgICAgICAgICAgICAgICAgICAgICAgICAgICAKICAgICAgICAgICAgICAgICAgICAgICAgICAgICAgICAgICAgICAgICAgICAgICAgICAgICAgICAgICAgICAgICAgICAgICAgICAgICAgICAgICAgICAgICAgICAgICAgICAgIAogICAgICAgICAgICAgICAgICAgICAgICAgICAgICAgICAgICAgICAgICAgICAgICAgICAgICAgICAgICAgICAgICAgICAgICAgICAgICAgICAgICAgICAgICAgICAgICAgICAgCiAgICAgICAgICAgICAgICAgICAgICAgICAgICAgICAgICAgICAgICAgICAgICAgICAgICAgICAgICAgICAgICAgICAgICAgICAgICAgICAgICAgICAgICAgICAgICAgICAgICAKICAgICAgICAgICAgICAgICAgICAgICAgICAgICAgICAgICAgICAgICAgICAgICAgICAgICAgICAgICAgICAgICAgICAgICAgICAgICAgICAgICAgICAgICAgICAgICAgICAgIAogICAgICAgICAgICAgICAgICAgICAgICAgICAgICAgICAgICAgICAgICAgICAgICAgICAgICAgICAgICAgICAgICAgICAgICAgICAgICAgICAgICAgICAgICAgICAgICAgICAgCiAgICAgICAgICAgICAgICAgICAgICAgICAgICAgICAgICAgICAgICAgICAgICAgICAgICAgICAgICAgICAgICAgICAgICAgICAgICAgICAgICAgICAgICAgICAgICAgICAgICAKICAgICAgICAgICAgICAgICAgICAgICAgICAgICAgICAgICAgICAgICAgICAgICAgICAgICAgICAgICAgICAgICAgICAgICAgICAgICAgICAgICAgICAgICAgICAgICAgICAgIAogICAgICAgICAgICAgICAgICAgICAgICAgICAgICAgICAgICAgICAgICAgICAgICAgICAgICAgICAgICAgICAgICAgICAgICAgICAgICAgICAgICAgICAgICAgICAgICAgICAgCiAgICAgICAgICAgICAgICAgICAgICAgICAgICAgICAgICAgICAgICAgICAgICAgICAgICAgICAgICAgICAgICAgICAgICAgICAgICAgICAgICAgICAgICAgICAgICAgICAgICAKICAgICAgICAgICAgICAgICAgICAgICAgICAgICAgICAgICAgICAgICAgICAgICAgICAgICAgICAgICAgICAgICAgICAgICAgICAgICAgICAgICAgICAgICAgICAgICAgICAgIAogICAgICAgICAgICAgICAgICAgICAgICAgICAgICAgICAgICAgICAgICAgICAgICAgICAgICAgICAgICAgICAgICAgICAgICAgICAgICAgICAgICAgICAgICAgICAgICAgICAgCiAgICAgICAgICAgICAgICAgICAgICAgICAgICAgICAgICAgICAgICAgICAgICAgICAgICAgICAgICAgICAgICAgICAgICAgICAgICAgICAgICAgICAgICAgICAgICAgICAgICAKICAgICAgICAgICAgICAgICAgICAgICAgICAgICAgICAgICAgICAgICAgICAgICAgICAgICAgICAgICAgICAgICAgICAgICAgICAgICAgICAgICAgICAgICAgICAgICAgICAgIAogICAgICAgICAgICAgICAgICAgICAgICAgICAgICAgICAgICAgICAgICAgICAgICAgICAgICAgICAgICAgICAgICAgICAgICAgICAgICAgICAgICAgICAgICAgICAgICAgICAgCiAgICAgICAgICAgICAgICAgICAgICAgICAgICAgICAgICAgICAgICAgICAgICAgICAgICAgICAgICAgICAgICAgICAgICAgICAgICAgICAgICAgICAgICAgICAgICAgICAgICAKICAgICAgICAgICAgICAgICAgICAgICAgICAgICAgICAgICAgICAgICAgICAgICAgICAgICAgICAgICAgICAgICAgICAgICAgICAgICAgICAgICAgICAgICAgICAgICAgICAgIAogICAgICAgICAgICAgICAgICAgICAgICAgICAgICAgICAgICAgICAgICAgICAgICAgICAgICAgICAgICAgICAgICAgICAgICAgICAgICAgICAgICAgICAgICAgICAgICAgICAgCiAgICAgICAgICAgICAgICAgICAgICAgICAgICAgICAgICAgICAgICAgICAgICAgICAgICAgICAgICAgICAgICAgICAgICAgICAgICAgICAgICAgICAgICAgICAgICAgICAgICAKICAgICAgICAgICAgICAgICAgICAgICAgICAgCjw/eHBhY2tldCBlbmQ9InciPz77YnvdAAAABmJLR0QA/wD/AP+gvaeTAAAACXBIWXMAAAsTAAALEwEAmpwYAAAAB3RJTUUH5QcBASsnUnm50QAAIABJREFUeNrsvXmQZNl13vc7974l98zal67ep3uA6dkHnBlgQAJcYVKURFGiaCqCEqmwLdmU7QhbCoftCIclRdgOK0IKK/iHN9KmKcoMB0nYAsigKHIIgiSAATCDnn2mZ3qZ7qrqrj33zLfce/zHe1VdMxgQBAFQAwRex42sqszOzHff+e75vrPcJ4oa3tPHPvAZkGdBPGDwHq4i/D6e59jn2Qff0C9+z3mYnReshTSFW7eU3/xt2NviL/OT3M85+W4qPAF03uVTpuQ8x6b+V3yKP+AqSAtsUH7mFMgAD1752+5B/nM+zEUWJOBrmb4MmAc+AlwCQqAHPAN8vnze/plnaocR/x+v6b/PJwiZoX3suynKHnv8ED/EAzwoESFvcUv/H36LnC6YBpgA5Gs4H93lknuIf67/jCd5QmrU+HY7gvfuV3PAANgqjOhiH04kkIdwo47ePIFniRzI5FGgAVIFBAzQ+ZDwfX9VudbFPmuAJj0CNoEhoOWA4uUTYAuRs/yYbtPjykMed7YNtQHwPMjz4K9A9waDl+a5c/MBqpwgIECP3umrHR6oAjPlp1KCZAV4rHxevuaZkvJcdoEJH+Uf83e5H6iV76jlawzCGOUWyjbQQeRH+Wv6uj3g1cctrHUgDo/NzFf5xNGE/tURWy8sso5lAWh9XRD/DkC+hmOC8gbKiyhXVM68jDk/ESYrMHwf5uZZQu6nSp26z0ENooIqYARaFgKENFfzrMdhWEcYokTvMAEBMoR9LPOIvJ9Mr66AOx0I1TtH8EHvQBNdv73A528+zC3OYwlR/NdwXgaoHANIDJwD1v4UhvknA2SIYYSVBxE+UBrrO48eisHRBToYYpDc5rq+KsjJQCSWP/XX6I09wTDX54nxhDwAXPwOQL7Zhwd6ZNzigBc44PMMGUtz3OLkKKI6PY9kj9LiHu5jkYAI14fRLjwflGd0uGQmKGnhh/qgCchbX8EMpbywGZBSsDQSFNuT4jsdgH8dEtjMEi5TYZ1ZzNdtDhaol+PrO8ISFNPi21IF2iUUfUnmuuXzAkTlc2c8Uu/CqAUu/hqAOYJmH1kAZkuPZfj2Ot57ALETaF0jDZ7h2uSLvDy8TcJZLrx+mrm9iKp/ENl6lDkWqRASA4MtJLsM9QWU4C6BmSawsQVX2tBrQRwWDuYrMTozAHcAA4VH34C5EVQqXpWcEVW29d9hu79Ff2uGlxfGdOpOjbHviSXFAOfGUD1AricFjXwEeH/pr1LgBvAcsF0uBIfrSMfBzKtgt0DCr0GCTCHeKdTUwyVIwu8A5JupOQ5g8SZcuoxvfpbe5ufpf6nB2fQ0q9tLxNsXgfPAPJaIFnAK8FPovA6nXy8u1tlyXd4HPg38N98D18+VlsK78CspLWgT2p+B7+3B4zfhu27CIrN4foB1PsgXgBcZ8dJaykuPn4R5e9dj/amt6phVa3naWfl43JWZcsix6dHyitljS7Xc5VgzO8jiizB4vXj56B0fNwI2itMkLf9eAWYVzm7Cuc3Cj+k7xp90KgZYKFVVxLff8R4CiAf2oP4yLL2IdG5QTRJOhWd4IJ1hjVNEXAKWgAAP5CUxOVPK+QnIWsnoK0AfZYdcmfUwZ6QAiIBIEa1Roa5wEuhkUEnQUxGsgdwD3AusUMdxlgjlLaCN0qip0gmwHSsNAzO+MJCWQE3evooW2sCxjWOIpyrKgoEZAzXrCUKHRjlqPQg4LyTOMCnHgQbcMpZuIGB8YdnTQ8AI+KCQ3wJpDr5VGK19h9yXY79vAVeABLhQzuFsOW+d8jvbY++hX0X/mG9Dz/EeBIgp1qHJRdgbEqX7nOnOspJfYpGniHkfMAeEaMmlN8uL7MoIzhS4XV7wk0BMSsg6dO/AflOpWDBWpD6HVmYgDzg/hI959GIOc12oZ6Cg8wWflwBDgCEHdoBbwMEOwjo0J7Ds4WyO3AucFvRUCDP2rjF6lHXX5wv5Bjddl4Uo4QPzngsLjmZ7iuuMpDczYBKnokDurE6SkNEkoj+tcCfs6DPzC3xuNihczS2FVwUGBsZNYbgEWUs1gMkIskFhrP6rBJtfKX8+DA30ynPbK6/EErD4bagpvoUBYgtnvVWFFMLIsDoaQXoawwPA6lF85BAgXypBIhFMlyGvwMEQRlvQcDBDwixX+C83folcPV3veM6d0mcf+JsQtoRxwLkX0R++BY8EUO0Vav6Q0wcUmmUocG0OXqgiv2dK438Nljw85OCch3MKZwxywaBLh6/x4CLlxvkdZOWznA6fZyZY55H6hHvbUFlIGc5P2Z2dyjjOBVG8N5KmVieTgNEk1BOVGvv3nNLPLZ2DUU1wAq/G0OvAwRrc6tBZhwsCFx2c2CsAEn6Fi2sLb6GPFF5EmIXpLFyLYUOBMbS24YPjwivG3wHIe+kQyOuwcw6hQ4ArYyPzX/ZV8zKfcQsYLcHoEQgb0LoNKwNwA4jJucREziwl6Pn/lzse/bU3Ip7N/nph+h5md+DEVeh8eQJCKVfUL0bwyTXk4w1AER0DX0I98GHgEugM0Cy5eKX8v4IowLX/8Irc+z2vcy5+RoL8izqTQl0LF1WbgbkG0g4K5odC7iHN0UmOmhD95bkjlnOM7TwrcEJhgS7wJPD9xTIiFHaus3dDrnJcT8wIcp8WnuTmWahchM1m8blJD973Ejz56p8lI/MdgPw5Ua25khW/kz1/eVjWAW920D9aQx6pwYMJmBhkAAZDzBw2+G6kukwqm9KuX1SkWdAmD00DQ5BeSc2Cd6QXcqaMkwPO3Ov5r1es+JZgmkrlZzM5HSX6RJRzWpyEeQ52hGlvwcJ1YfE5VbnfMMiB75OzQc8QTKAqBTgNECGhRToZFocg5Yl6FI/HoRcTVK8aTx4oPiw1lFU1Pwy2ikYN1fx+2HoY2ToNw3YZ7x2BM5jtGdhYw6zPUblSYf5pYVY9GcICMW/WAnot6LYKFA2BUzXUvsuk+5LSZu8SXo6/TenYezRR+Kefak9BxwnQiUX8sf86pspN7mVnexFpP647JFzZnYNTJ5gl4NEUainyUrHicrGMyMgRPJAO+zzFp3j4zAbuUhU9ZUROeKLmkFrUl0aUErsc+qkwGQh+Vwi3hOiGkBwYDIYJhjGWACFEsAjBESAsKbb8q5R+wpcg0eIUvUNShdQjKAYvBsWiEuCJ3nKsvOJpLyp5A0JVahNweE61lYfPapjcp6vPrKh9ukoFL0KNHme4sr3IK3XYrRQuxvVhaQvJ3kWcJ8D1ktb6Y1fqRBk5rHwHIO+9Q4CwDJlavetvishtzFss8UfjRV7rwxebsHtKABE7gKgLoym8WIrUenmR6xTvBUr8Y7ss/ODnWHjo54XlBZEZEWoehrmwlxmGXhh5w1CNn3qbeW9yo9YFPsgzrJsSaEqonkBsqfjLRxNhJSQwltAYrJhyZfCoKl4LmDgKU3fiyAW8CE4ELxZnAzIrw8ymL2cmf8UhokR4KnhCHIFxzEfOnqr61UetX/mBU3DjIuycR9c/qq1fXCT/7YKa1UuDr5VzIMcWoWmZP3mdYr7G5fM14MHycYG31wh8ByDv8aNIMwijVWH9ArI+U3KyLvSvwc0NGHeLSdgvgqb0gfuABdLCHP7mJ0We/JzQVoPdNijCEMMtDLcI2CdgROinhGlOMIUwgSgTwsQRJRlR7og8RCIEYrBawCS0IUEQENqQ0FpCY0vbUlQ96guA5KKkeDLjyQRyC7mB3ApZaJlGQhJ5Pw0gM0JOSE6FjDops2Q00xQ3zAnxcvGOcuaOkr6hkq5z8qFY7X//OPoZq9WyVNEAjWPGcZhkfLXUfH3grRIgp8vnHEVS8ty3mbD/1gZIFfILkN1b8PlUYGxg5Iok4aBMFvar4OrlMueA4ZRRf4S9DB0ifo2m8mH4h/9gnbnZ56SdvS5MrgjTZw3VLxnexGIJcIRZgh2PCKZ7hOkBcT6k4hMqmhM7JU6VOKP4OfNEqSPKPZH3REBgDIEKoQihCQiDYkTWEhiLFUAVVUW9x+GPAJKKkhrIypEbSK1hGgjTQEiskBghNZbERiRBlUnYZVrpMq2sk1Ilo0JO+6ajddNRe8Y1vv/z/uKHLyn755T1VeVOB/Zqyvo8fHZV+f0aEGJo0KZCJNDSwoPcOebFeZefvwOQf8vUShuQnoX0FEIddh28UYXlBlo5KCI3LwAvW9gos9LGeiqLWzzSfom/fN8eT22I/oMXZ6j/ox1OPPxZqe1dNcHubqBZN0S2Qx0SMiCSlNgnVKZTKsMp8WBMdTyhNk2o5zkN9dS8Us0hzpXIFaAIc0fgHIF3BKpYEaxCIEIopvAcNiC0BmtKinUIED30IJCKJ0ULD2KE3IATITOGTAypLYcRktAwiUMmlSmj2pSRjhibfcZBnam0mJKS4EikTkb0Ro7Zzak/71hqOeKaZz72LHc8nXOO5hrR1bOcuvYwy9NF8Wp0uwyQvFKsUaxRlJos8u1VqPgt70E0AF8BVwPacGDhIIT4KdAXQXfhuWX44gJFirgBvjriH178Ek8s/7acmbnMifgLYvY8bCI8g2VMmIypTKZUp1OqeUbde2o+o+ESmpOM+iSjNs2pZ4567ml4aAg01FDxSugh0KKKseiu0LKt5FAeKQbFClgDgSgWg9W7Iv34P4eSK+QCTsE78Cp4EdQpKqC5gHicQGo908QznuaMRymjwYRRPGAYVRmGXUZRl2HcZBzFTILKdCKV2xOC21M8KZaMOXJWyHgY5Ye/S80rH9Pax+eo/WpdoUlcAEFOFZRLpdQo++UJtsoh324AOV5/I18xwPoeO5wW8ckaSAVRIxquikTbYHJldkHlvkWorXhqa139Cxee5q8v/e+yYK6bmC0jAy/uAOu3sLpLlIyojjMao5TWMKWVOtrO085zOllOJ3O0sgIUNaAmhrqx1MVSEyGycFi+qKI4HBmGDENeGrtSGpUIYgwqpbELRwA5gknpTYpqDiE8rLbUIgZmsIQYQrVECqKKc5B5R5J6JiZj0k8ZB5ZRPKJfjenXuvRrMYNqyCCM6Qc1uqZKn5ix1JmYFolUmdIkYfklxwk8JwbK2kfglUepdhc5fSeQ1rZoMEHWHTyHaFay2EsY7kGI32FL3/IAGVGUbCRlbHuGu+XS70kB7j3TSZdJrwtNkVoec35Ql4e7LX18LLSvJNw/2dfkewYy88CAe+6/bM7U/m+Z4WkrfQK2CNgkym4Rd29TPTigMRzTmno6iaMzdXS80halLdBEaQI1hIoIsbHE1lAJLFVjqRpDeNd+caLkCClgEVI8ThVXdlxoaTgiZXnY4d+OTrFImQiKlE9IuRwc9j9ZLBGWGEsEWK94PfQ6nlQh8TlJ4pjmGeNkymRomISGUWTpByFdidi3Md2oQrfepN/uMAhnGJIyZnmSMHs54wMbjpNXPDefUPP6RY0+u0T7F2qcxmMJ9RoN6dlAU2dYp4MwWyC6zGo1v0VBcgSQDLiD54t47qDMAI9haGDfkwAJgGrmqQ8OaO3ekiASVqsNOb+3qPe92OChZy2rl7row7+HPPhpwpU9ibKb1uy/GeYjIrdPhdtUs03qgx2a3QM6uwNmewlzU0cnU9p5AYyGVWqhIQ4tYShYK9jAlMNiAovagFzMsdxBkcvwqqC2oFUKvvQGvjB/kGOP8uUy692WX9HDOl9TeiCLM5YMwamCL0LE6gXxSph7xHnC3FNNPS53qEIWGIbW0hdLPwzpVivsdwbsy4j96pgDm9KzjqFJ8rEJt1PkmZS56457Z3PiGR8vVP3KutVo/Yykbz2gwfW2KAFbrOkNKjhilo/syHzrAmQIbKK8RI/n2WWDhFUCzjKLZ+49J71MmWd/dGrwB000XmBJHO041gfWK3rmC1YbQPune/BT/1oIf8UwJOA1YrrUxj0aez1awwNmJj3mJiPmJwlzk5S51NP2Qt0aKoEQGwgtBAGYQDCBQQJBrCAWJAC14K2SG4+qlGHagiJ5LXWDCqpSegAtraXkH/KVawbkywITb/+rGsUbJTcFMsUrYhT1oIbiUUBEMUYJnBKgiIeKKJF3NJxnMXUkSc5wktLrT9irDtmt9thp7bLX7uiBaeR9qvsj4v0JsyTMk8qDuHAX37n2/f7Er8wxvh7pPqFscCA3MDqDoUlIxnzJRb5FAdIHXkD5Ij3ucEOGDBkQM0bV0/mmAcSVwx+7+MLdlodDKpXz9t5qpeg9ODUVxtebDAaBrg2FuWXD4xcyHvqJV2l86Flo/oJh8nwwuUk03aHKLg1/QKc7ZG5/zHx/ytIkZSlzLDrPvEJLDLXIYq2F0KBWiliAUTB6t7y7HGo8XhyupEq+/H4qhXbw5T9XguXQvkXfnqg+amvXu2h4FzyUXqZ4LxHKbl9XUDYVzDHPpAJeFG/AGcGpoGrAl0DFEDiIE4hyMKnDZVPG04x+JWW3MWbL99jSHbaiBrumyb5t0bMthrbN2LZIaJm8srqRn1l7zlW/P+HWzoyEu/va2H9LWluG1Y0G0f4FxcWg8TeEaPljNnFYcmSP7EkRPFJOvJYWZcveT/NnAUheZpJ3yBkyZcyYKYoje+eF/IZqiD6wXmqfQ2uoUNTtzpcnM6UobdjjHX1OAt47DoYbzMs1Fj4Qc+on2vr+770hrYVPCXzKsPN8xMtUk+u01neY7fdZmI5ZnKYspo55p8wKdIyhHVma1lKxhsgaxFrUSmlcipditrUUACKHtKgYSGniRyFajrLhrhz+2HOoHpPixfmr6DFw6Ns9iLwNPeXfDcYU0Sv1xZwUILn7H1Wk+MyyAkxL8SPlhwZWCKwhdIL1Al4JFeIspdbL6IxGLOxYlm3IdlRlp9lguz3DXmuZA7vCgEU/YW4jCefyfOn0hmvdmtOzt2s6uV1BXws1nsxoa7svBq9FWrHxddvOod0MyoVytWQU+8BtPJ49Au6QM8XRBNaYpcmJMojwNQMkLA3yPCE96kxRZoipE+s3kzn2yjzFzRIMroylP1UKOyi2S3itfN1hB5sAoUIt9tRnNmh/8Hfl9I9d1fseuWPCjXUzvdENBzKK8zs0uM7swRaLuz1WelNWximLzjMn0A4Kb1GJLFFkCaMAYw3eGMyhcJZij4NDBPtjQvq4uJYjAV0k+FBQ71HvCj2givd3o1LoXa+hxyNb79Afh7pEvqy9rwSGLY3egIg5qiMzckzUC+/K2wQQKxBanJqCHjpFM0eYOVppTnXsaXpl1hgWKgE76YCFfMxWlrBdn7IXjemGM8OhCceTsLKeBWfivLkcOj0XeFaN17k58rNXdXx5RHS7RvB1AkRLSfAi8EZJ3J4oJ+gmns8y4jpvaM5vsEAkFR7HMsv9NJn7swKkBTyMcJoZJpzTnJSIgFXaBN9E/eEoMrIbhafQEOQw2X14JBQdcK+Xr81LR/0YcMYZzBMNFn9yhwd++Dcwm1jeouq3aR30md3rszjucWIy5USSs5p75sTSjC2VwBCGBhsabCTYsNAWBQPRks2VmQjRsnSw0BJHtYxSBFpFilJDQwGQorrQI84VZYbOFaDxHvWHHoS7S7rcBUmRM5Hy84/rEz1m3KV/EQNBoYMKmiFgTDEwmEIFoR6M6uFvx6L55d/El3RNSk9YnLOWbxXnIN5TmWa08yFLo4yT/Sk77T535ne53ZrTbRbcPktuKPPTKRVSSciZw7lo0w/cnvZ+Z953eJg5zn5djOSQ4vZBn6EolGyDdPHcYY8XeUN/l09zk1/hhzija9wv8xgS+Jr2nnkbQGrASYQ1miiNo6WqKEWVbzAkDjdhE4QQQwWH4TawVAjet614vqgFkhy0BdQ/kKMXUlazGk89ukfzo5+UzP2h3XyaMNmmHhwwMxmwuDdkpT9lbZxx0iknxLAYWOpl9InI4ANBrRRJL1toDG8KIz/0CByBQ3GqR0LblGFWQTGiGOOL372izqPO4Zwj947MFSP3vnyPQzpUehQ4+owjjSJvj2GZEhaHTEtKgFirhIEWQClzMFIathGKbLx6RH2pS/RYm7o/ArpSBg4ENCjmodBfFsmVKFfiHJq5Y84nTIAVyViyE+aSAevBgDvxiN3amJ6dZ0idKYtkPEBu25s+OH8Nbr7hefkMvDKnvBUASMrdrtB3Hrak3GFpN46cCUrvTMDuWoXf8gEPXYXqFjqDlwN29PLiL3Pz/P+CjeGPd7b48Ks/qy0/EUOCIfqaNVDw9ujJNzulMwbeLKt4DEVj7Dk8laM263eGbwKQuMjJyBPgH/2eLvmPvsRD3/e9qv/TPxV2fiPwmzdrw6u0tteZH01YTTNOZI5VVZbFMh8HzMYhrcAQWwFTAMMZCkMQX1KUclWVQ3AcLvRFbqGgTMX3VKfFRiheisJDKWiZ4nHqSNUxVU+ijkR9+bOSi+ACg7MGV+ZKnBYAUfVHCcTCVkswesU4T+AUm3usUwLvsSqExlExnorxqLGIMVhjEVvoE2c8Kh5nPLlRnCm9k4AxUgKmCDH7Q98kd/1Z0b1vkKA4VzyEKlRQGqOE5jSlY4fMx102ZnbZiHa5bdfY5TRdZhibs9BYw1UuvYm99TtKJ1CS7xXeWlIF3QK5xt3q4EMt6kv6dAFYZAJcZchtrgDPn1nh+fedF7Shm0nRQRoDYxx7azfgfnAVZLSOvnz1C1SnHYWHxXCar7Uo/8+p1KQkUysbsHYZai8UhGrwOKxXiHcWOEmNOlZyinbaHaAiMC6Waw2Bs38j576//+tC+5eM/zym+zt/P+pOtNkf6+zeHZb6fVYmKSecsmKE+cDSiQyNiqUWBwShQcxd2mIOxfXhVmkljTlMyh3RIO/BecjdETjyHJxTUg9TBCMGNUJqYGKUsfGMrTIRYYJhgjAVyIzBhZY8tORWyvKRQ09yV4sceRAPxnlsnhOkOUEmRX1XBqFTIlVqzlHLoY6nilAVQ2QMoQGs4o0volm28ApiynkIAGsBLcX+3b5FLd3k4fYWxZwYxAviBeMp6s2mjook1KdTWjqhLRNatTHNYMR2ZYGD6jz9cJZpuHI1pX4VgoGw0FV/z0XtPr/qP//MOX3hiUgGceExVMDkEOzAqSueBhnhA7fRC19kO3yeK/2Iy42nuBWtsTptyIc8eglkDmGHJs/XfoC3GlaoHEBjh/XkF1jnk/xt/qlaIimCBFIC5avv5PXnBJBp4TnWLsOlL0DnefAx7CqkOfWd+6lzjxjskSjfASrFKq0T0LWfGXPvf/wJmPllo4MXo2mP+rTvO7vbLO0MWRuNOJnlrKgwGxqasaUW2TK5Z5GwoA5O3sGAD3tRj1GPoyiPlkmMzGPSHFKHd57MQ+ohESmGFaZWSaxhHBnGsWFUsYwrxe8TY0hUSBCcEbwJcSYoQq8c8x6HykAOW6mkoHveIT7FuhTrPTb3BNMMm3iiVKimQj0TahnUnafuHLUsp4oS44m9Lx6NEASGIAyQKCi8cyhoKBAoIqaIyOmxqiMpa8eEIqliCsR4I4cxDGKnzKQ58f6Y5jBjrp6w1B6xPtNlIxqzZT0HLDMkxrD0xZyzfeeSeb/bOqm/1Pk7Oj5/mjSMEMALNBI4cwOqd3Ke6d/k1mO/Q+2hTzGx16W7W1fZOUF177v0wVvwvk3kAeAMlg2W+X1+qOAccgXkBtTeLFwMl8tTqpZhqfPliP9tAsQXMYfVDTjzApz+NCxehsZlUDB+hK8rnlPUSvtMgZsWtl3OEj0W/sIeH/0fX+B9yz8h3MDu/RHVgz6t0Qbz4zss9/qcHCec8p4TQcC8hVoohBWLjQwmKKiG2DIvYO4Gg+S4VPWFYC5WbMWWgs55j3NKAkU5uRgmwMgYBkYYBMLQwtAowwDGsTCpB0waAdNmyLQektiQlLAM3QtFQ1OEYsv0Tl62Rfl3BHIPixcLCl74Io/xDjtKMcOccATxCCoTqCaealaAo5Z5as5R90qDIhLVdEpNoaqO2ENkLVEOUa5IaDFWwcqRR9Vj4TnPUVCv0EL+EMQGK1B1Suw89UlKSwd08LR9RiudUm8M2Gz02JU5BjTWJ5xbz0yHfP6RGf3PPlzzT298jN/pXuRlN8cQw9kUmhm4Dzv+KN3QM49/Uh548GkJSZm8GVDvfox7bir2D5FmWYe6jJBTpca5cg/NE9B6Q878Jav36yvsdy+z9caYydUqOR2UDnDmaKuxZulP5JsDkK+0mecUuAYLz8E9z8LSyxDfoXD2AWHwPNPKvbpPKHGlyFpJDpmDdmPCQ9GXuOdHPkGz8WnDLYJsi1rvJp3tLZb3Dzg5HHLKO05YYSm2zMWWRgBhIEgkEBR645DWH8VvpBDXRRDJFzkJp+A8kiuSKcaDGkNmhJEVelFILzR0Q0M/tMWIAvoWBsYz0JQRGdPAkoUBWWzJYktuLTkVHBUcOcqUgryERqmWE9dFGZbLp74jXHNYvjhBmKiQI8arxBnGi5og1rAWa5CFRF4JfU6UJcRJQiXz1HOlkUMrg1bi6CSOdq50UlfUliUOrGAji4kCCIvghTdl8aS5q4nuZvPvJk1FBGMs4hVyJXAQZY5qf0xjmtEcj2jkXWpBjzg+x5acQWSOiZ2D9uhAHpz5dWeqG16u/xVt7H+Y35t22DXKa/NC3M645p3U106xdfYCNXkZ128QJTMsjGNx79AsxWoTA/eCnYeOsNrckDXd5ebwZUZJos2r57F0js7Il1Hc+ymyNPYbD5ARxU6wKV/eOjMGroK7CukBDGeKURRJYEYLpNlTvPHUkkYtK2f6sPgZuAO6/B90Of/TfyBt9/OW1318cJvG7R1md/dZ6fY5OZlyKnecsDAfGlqxoR4b4kAwttAsekxv3A2ncpTGFvVI7iEvHp1TMq84p3iEJDD0Y8NB1bJXsRzEEQdxSD8KGVRihpWQcWQZiTJmxIQhKQG+3I7FY8rW1xaeGZQDlHWg9SForEGnWhC/Vwz8vEAid7cn9Ai5aMGZF7RI5x5IodBGEr0/kehvHfUPAAAgAElEQVS+PWHtDcPcuqWNwWJJsL5PMO4TTXIqU6GWCbVEaYwT2uOEzigrCjGdlpXK0M4dtdwRBQZrDSa0SGAwQbnQiBxtuvK23H9JtbR8NKKETrEuI5jmWJcSakIlTai1HbVmwu1ohQNZZGg7pM3mK9ml2oZrmdDNbqK7l+/R51diXgwt1EYwn7DDSdmaLlOXl8mT94OJiMqowqCk41U8mwwYUnaryBjCjNRUSJIqG9mm/ma+SYP7ucApYlpFjL4ExtmvsMwHX7/n6IFchurtYscOcwwgPofRADYj8BegeuHuEoSF8UnUfZg/eHKFaM5y6QCe8F71s4bFv/O/UV/8deNe8hV3m3Z3k8XtXdYORpyeZpwGlishs6FQi4QwFmx0WJt07CLq3b1CDuvJRbWgCg40VzRxuMyRAEMjDKwwiCy9RsheK2K/HbFfielLxMBUGdsqU1s1iY1NShgkEBXFGd2qoxapViJVH6uPq+rmGprXZzQdL2iWRNjZOaLuQ9g35kXWIyQ3KtcUs6zIfsn7DjMimaBJFUcTHyqsTZXKGFMZI2GqVq5jzNNeOn/sWB0ZKs7gEmFXJdoUa3I/rgRu4IM88t7Ffuhrk5HWumPqvZTm2NGaOGaTnLlMmc1yOiI0bRHUiOKQILZF+DosvcXdFeftyc1jmX4xhUcOHbQST5A5GhPHjELLOhqqbEQBuzLLIKwy6TQHqV1+msHsjtv5V5f0nh9Y47naPLfWAslXM64NF8ku36vVacx061602qA659WHxbapcY68hWeXbbb4RPltqsCQW7lFdjsaXD/LrYOLVE59gClPqmWFuo84MUBkcNSv883QIClUtuCBF2B1CHHGUaA0CWGjDZfX4JULZX78eNVVm2x1DWzIvxHwz6E/94JV1V8Ubv9j656lsnWVzt5tVva7nOqOOZs5TlphNQqYq4TUQwhCRQNFy00bDsvIjxJvWkRhRH2Zwygqa8UrKTAJDMPA0AsNe6Fhzxr2Q8t+PWK/VaHbqdAPK4yImFIjoU5OfcVRWXZZuOCnuuwG1TN+v3NGh+02k9kaw5k6B52W3ujMcTmZ4eM3q8I8cAb+1utw/jWovwmVHlKdheZH0M4NqH36mIKrwOhjMDgDw1Vk0gFni5XTCdTzD7I6fkxP1D6mneZtrbYOXCXclbrxRAMrUTZOifuWStfgdi1yJ/RuJ4pyosBRiR31SGmPlLlEmU+VeTXMqzKXKy3jaAAVVQK1BEFJTY+V0KnerQ87XBvF6FEupuIg8tBIc5q9IVW/Tb0uVBspcX2V7WCBA1vxWj/xhrvnI2+4+j+5Jt1n7+UPb5zjv60vwrTGZr+im92PQP9HIGhAdREuNIUWuvoizLyG7qPSY0yfP6bYXuIiMM+WCdmqnxDOPqmcfQzkPNdkGSRkJoNHNtF7voQE2++e4PgGAEQgNrCQwMl1qByU6b4cpouQdqC6AumlsmpGjiUihU5D+IHFMRdPJzz55A4ff//PmmTj75nhy1JN39DO9m1Wbu9zbjjlXK6csoblOGSmGtKohsXtXozDGVfUTB1i4ihTXdQXHQ7jtch2S9G2Og4te7WQ7ThguxGxVY/YCQL2bcCBCejbiJGpMCEME7SZkdcd3VXVwWM6lkv61vgUr2bLXGvMs95pMUgDGYtl0jAyrFo5SC17PaOVMUwnECXw6RCeb0DcRiMLlRm0Fqs0epk2UGJCLAY3A/tt2JlFRrOQt5DD+4EpEGeWmfweXd44wUJ3qu1gymo+0A/c9py8Y6RqJ16afcfMDgRX4OA543qvmmCyLe10FHTUxdNAa6OArT7MDmEhMyx5w7I3LHqYTx0d5xEPNizCwV4oR6lTjmUvxXK0t68YwVpD5CxGhdoopZL1qKaO2CVEZNhGAmYOwjZ+8aTowg9ec8n8nrZffk33r53RX9s8x27+KKl/BMIVjvL7LQua0Wkrc4TMAoaICktlxKpV9GTbGDptaJ+UYkuJu43BQwdPh+h33UTD7XdPAAbfEIGeeeha2JmHuFl6kAySU9B7ErL7izz5YSWMHDYBTnmi+Sb3feS6rFzclPPznzOy+Ylw+Oy4un+dmTsbrHT7nB4lnPGONWtYjIRWDHEMJiwyyEde4x1dFMVSp4XwzouQbYY/6tseVix7tYg7lZituMJ2o8ZerU43rNOjwgjLhICECinhpZz+X3T8d39X02dXeRr4OMj/evi5P4NwL8XeN4cVtjWkDOQJe8AETSdwfbdY5Ja3YWUM1RSCMCXduiYhwiJnqRLjBpCvw+9W4Y4pJd3xsH0m0IuFXqwcJpB+Df4H4LtBzxbmoPaIXved5fNi+H0W+b8y+/h6qudIem3GNWU0zBkmhl5mOJh69qY5i5ljIVVmnacVCFVjCIxgrCCBAVvUD8th2Je7G0Ri5aio0zhP6BzNqcM7B1lGkKcEeZ+wtYANlxA7p0MW+pl9uO/unbuV/3vyqj9/7UP6n/IINGdAGsgINB2Dbim9fRjlPMpZTtJmk0We40d4mUpZ3lreUk4syOE+nJbDXYezYvM+puHbN9L/BgMkgHEHXrkIt6TM9lAwfLcAg4dgcpa3bY6vRbVh3e3xwI9+UsylX8XVcpNsb0WD9YP6cJ3Zg21Wd3ucHU05JcpqKMzFhlYsRBUg8jibH12No9yvUoQgD9vAc0VzxedK7j0TA30D+7Gw3YrYmq1zp1pnN2hyYFsMTYexzjKVJqnm5JpFDr/q/OQhTdY/gmYLTC5lku5YZM/IUw76Dej8Adh92L0Xtneg9wYkwV1CIhm0HNQSkE104Tm48BYsi6cVZTTZpNF/gRkatGhJyAx+JMx9CUa7qp85LzLuGDJjUSxjU+BFXSnoS7b7vvtR9xL0S5Nolmycule/UJG9+CKv2z2pxH+V89G6r7cO0nCtly9k+9n8+GCaSTKYqNvfT9x2d+LmB47Fac5S7plLhBkxhUaJLHEYYMNC4xUCXd5RfcxRbVsmiqjHOkdzmmNdTkROyJTQJphGhjUOa5qMpUpSX4KLF9LM9j+lf6//7+q/qCJdQG+jq9fXWal/gvnxp3hq+xIP8dOySpsGc3T4QMkAr5cBpPKWSHq97JcdFbYos2XHjPyJO9gHXze9og36MOzfC/vyDgEfl2h9l2RMJpifOcA89jrMP29cl2D7deq7V5nv3ubkoMeZUcIZVVYrlpmKpVExxLEhCMu8hnVH9WeHrdriitIM64ubBagXUgzTUBgGwn4sbFUMt6uW280aW/Ume9UaPaqMqJRb47RwrombTNCpf7/P0yf97sHH9KXeo0wfD6WWwZVbsP4CWt9FHh2ijwwhDpEXQ/QLQ3iuXkiwww4vBc5M4eQBBLdg5UX08QSWGNPnVQl5jrN8iTkWsWQYlsVrk9WJqF5JpJrD9XaNsVnARR22OoartbfXZzQyOJ0i58oUWFS2ClSBxknDtQciXm0t82rwIQLu46If6Upr5OajfX/WvuSa/oUMtsYjP+rm2e6e0+1to/lWpNyZeBYzZdFblpwwnwkz6qgXqROssQVAjhdeHpbwl+X2SEG8Iwexd8TjKZEqoXPYLCWYSbFmgT3aIHXy6Cxyagx/5QsjGWSOXwqLzMGlyjb3nXiGJ/qflkfX38cpJoT4YtM6mQd5rMiDyOugr5SlTd2y5vkwOHwRZAVMdKSIvypADm8/xrEQvB5rTIneBVE5DVJqZbXb3YrJYndxKXcsuHvPiUggmHHwPbvw+OdEgys2f5lwr0tt+yrzu+us9fucSxPOibIaGWYrlmrNEsW2AIehiMMf3hxQpRDhHsRpMQXF/WjJEIah5SAO2KuG3G5GbNQDNmshd+Ia+9Kmr8JEhmT0cXqAujEMa+iNCbzVfUQ3rv2UfmnjSTbaEaN5cA72pxBU4f2g5ynu5tS+iTYmUL0E990D0+BuvtQ46OxC5+Ui8r3oijLtOSbcZBPPFicR2kxxrIvDk7PIFMO8jDmxkZFs1xm7Om6pTVgpEsY7Ar0yZzKj0PTQwNHCyQTRtwioI5yswuU59F92QrluV6mxwgyeZuppX3X+uyffzV/kzfxEfAvkusyPPzVoMOxNwn53YNnvpuwOHPuJYeBg6hSnDueVOhAjRVWxkbv3FZHDshWOQsLGCCYXIgdhnhOMiqpnVYcEvrj9RJij0iKXNXxjCR57/yt+eOOWbr62xPNTiB/Oic+2pL7/EWpJm9wpkwNPd5pKdTpQpq2iTslsMCNjFs1V4Hnu+CY9jUAbnNB5ZvMl9kdINS0c8Z8Y5tUym3G9pLphyet9ARxplLHi+XegrYdwDcuweDPNi7sRcLbMcG6WzS15uZKdsujJv/QmPPQpYem3LMmbldEbNPp7zB7c5lS3x/ks4YyB1dgwU7FUY0sQmqJSVfQoyYeUmxloUR9kc5DM450nUUiMoR8ZdmsR2+0qt+t17sQNtipVdisxB0SMUKYMyNnCcQ2fDNA7p5CtOlzN0Su7F9j9zD24JGb5QdhpwycDlC7UU1imuCfJNeDEFFZuwYkKWEVM9W7ATj34A3BfQnNXqLFlgbpWxXC/KqelwYQE2KGqXar0qdJD2NUMkzidTQKaNHB7QrsB81O4KnC5htAsqotUYIshN9nXlApbLOgKAdIDeweezqW4T4ot7WECHCC/2q/rz/3rFX/XHn7O1//Wv/HTM7hYSeM+49qI4ThjOMwYDHP6qbKkwlyW004DqpElCm2RdAxtqT+Eu/X9ZVY+KHsgcyXKYDbPyZ0D75FZh5kDsQHKLMIsSbP1SvZU64t5/zc/4D/+23DtJyOiBxeId5VebpnNwb6ac3vjNjO3X5Wnrob6x4sC9jpLjVvyYHsd6OK7Xe2NVoB7uZAsy6lJgNmF9m6xFzFfDSB94KUILt8DbyzBWyO4+CKcmxQbgy2UAHln88qrAXzxHlhfhtkuPPQmzAyL/V3vAF8QmArkHv1Huaj+tSeE/LoZj3rRaJw29g9Y2O+xNu5zPk85b2E1tszUAioVi42K1ekoWvKOYiHji2FLSpWp0LdwEFl2qjGbrTq359vcaXbYpUOXFgMqZqzZ2dTdWnJ+y6vf6anrBuy9VuHqsxmb0ZRdX4dkjrlewJwDPYB2CD9uoJcAY88eE/7F2oBfPDfiPwocP7UZcM/VDrLRKjf4HZdWmILLUZcfijCMzgFtnaNetmOoblDct+MKwtWyFqFTCG0qwDxCcyjUrsBEYElB70XfMkiYOvJswjVu43gdpcaEeznJHJUbVVZ3DH+jCpsRKgZuGLh+EWEOrS3D6f9E5dV/Lvqz/+dY/uUrb/LBlXNu8d4/SNrp625283YyvNMfH3QZbQ/oTSYcjHP2nbCSWRazgNksoBmHxY4v1hKUmkSPOH4R6fICaVD0qOCVau5ZmIARg7WChBbqEURVhDYDE91mduZ59+C/gv/iPth87ASXz/0In5rd4sSdHg9vCxduexY2Dnh0/AoPd1+Sn9ZXVbfWCZb3NDyfCsAPvvFR8s88ilQeI9Q5ghx8Au30K1dkfdm+WGkT9s7D5dPI1hDNt2DxrYJ++a+QKkxrsHcOrpxBzu1Asgc6vEvPEoFBjP6TSVkqOPuM+APsbpfqwT6z+33WBiPumSacN3CqGtKuh1SqljAyiC2aeg4nWI/VGYpTrAOrBsGQBZ6hhe26Zb0es15pslGdYasyy550GBAxJWSKXUoH+z/q9zbfz/hGX9ON1xm8pbp7rcIuufbJmRDhmSk3Xi+Edg04V9Y45jhus6HPrf0u3HediYnEyBL2tSchu49ir7frpX95CzhQSKWYzXngowofPNaQWEBpB3QTZLtYgHSvPOdl4AHgPoV2igzKBtbeFmQ5GDfCd29xh1eY8CwhE+a5RoMPEvj3SX0QcWFQvE9eAE6vXypW6nENXq0h/M8q/0cMv/XI/fw4J/lxPuAfC383nan/Yd4IP5OmPh3HE3rRkL1Q2SVk3yv9TDmhsIgwG1hCazFiMf8/b28eZNl13/d9zrnb2/fee2Z6dgxWggRILKQkipBESolkioqkimLZsWKlFElxnIocuxKrrMSpJGWXU0pFFVUWuyqxVE5ZdiSSokiRIkRSIIh1AAwGM5h9enrv1/329+56fvnj3l4GHICApOihBihgphv93j2/89u+i6X2USBmnyuf7kzMHlQFKItgByFOb5RehEZDXSE6QGhux8p6NXwEFfPPRXFyQeE19G5xm92pq7Iwo+VMRTiDcLwZUji5ja6+pJSB5BrEE0A9jH3rPmWN6sgoZZjs8dr3sFj6ewWIArQDujihXhqy6U1U7iOJjIsF5JKLJcl3UVvywBKKR8hj4gI2FolK1/9Wdn+KSYND5GMKXlDhi8rtb0thd4dGu8PcYMyxIGJJDAuepp63yOctrJyVQh2UQYlKoXx7Ow4jGXlfMEmGm7IVA9dlPW9zu+Jxu1JmJT/FpjvLDlMMKOHTUUncfjRev/qzyb/57b/FWjlHsHsZZ01wJx2qVJlhhiVKGR/qKPeyp9zzVl/BVVHckmtRoCpaoZJqahUrZIGwTcCbBDyLxTfIL7no7wth8WNQChXeEJKl1FxQHOFaBf5PZ78nbAMvZQ/zP8j4EacICRjgE+EAxa08re0ik2aI39piY+4WW+YShdHnsVaeoc8xupxhlI1LTDZwfxD4oSDg5WTIm4nhjcCGcR48j01Hqf81qfE7lz4hJ7/+tKz+mTYvHf8/4qPtZ4NBZ9MfFycjfd/WOKyu+YGa+DEExhBFCRLEaK1TiVVbg5XNiw59dpIRojJOJnYEpSRBj/0Uuql0uhMtxBjXjGIaL8ZR+ITZdf6BPM8PqX8pZ/g9hIpSWNn7mgIWNThSgfj7QUJYXoDrp0HPZcZ6sx9IhOS7p1gqATYR/RYU26ydiFVg2/LEroezYX2XDE0dwyMTh9ytU0j/NO2Rhd+Db5Ma2YhGfn0vc/CCQnDHoRSHXRqDHgu9IceDkCWEedeikrexcxY4Kq1QtOy3PFpUquaRpKNbSQQTCaExhK6m5zhsVXPcrpe4nauy6rbYcubo02KEq3wCiWRzzuy8/SPmD7Y+y999qMnJQay0ycniHZfTKI7R5BEeZZ65LEDcezKZUyimxSVmGKw8oxb0hBnH4GxY6YKKHDBGmMgu29yiQx04cSrE/SiKI1fTiYV3ERpHhFoTlGLu6qN8X+5xTnyxLt9pwHM5iJ+3BeBfAr9VEeUPhtziFiv01G2EkUxRkyXsptBeEMZ5C0wVb3g/PXxY6XDKTmSYoKLsSUynXG6lrg8oji+SK21QKjryQucsheZJFVZzEljQ31Sc/8P0QP3N1/42f8BPSJNXIxmtSuvpb5DUnjN9uRH1Y4JhTBgkJH6UPhsnpuBZWK6NcnQ2XEkh/KIOBL4SO/1vOhLcyNAYmNTeQaf9pXFsElXE2OEF1bS60Uf1nWSNJ83vRU1xBmNxtpuoYQZ/brtwdRG8edhOIDqTvlMzu6em9oFIU/bhB24RkegOPesKgfo22G10AbyFO4qnV4XL98PlWopzyC4EF00rahG/VSfiBLeA2yfg5c/A/9tKC2r+OIWSj28o29+Swu4NGp0dFgYjjgUBSwgLrqZRyDKHq1C2HMzSM2qbkoxbHacNXpIIoQgjrei4io2izUq1yJ1Gk1U9RZtZ+kzhm0IzmgxORMPlaTN8bda8/fZHeGGxAS2fW36X09qwmD/Hw+EJHqDJURZp3tVtvRvIRuGTR2/kYeNAQfDg5YnQYMi8vM4MZ4HjT6B4FJjdVRS+k17nXRSrKMZIMf44xc8+xNFfteWps6/Lf8435TAHudpXchFRb7LOncqIm/0eA9pYFHE8Q78Ucb3mpnAM5+O88eEGX4lqLG7DJ68is6+lVug5Ymr0KN68w6M3r7PAK2jeRPMxkvIPSv+Zo2q3VeZmp8IXjlR4+47iYeAO09zPp6lCzLQ7oXbLrE9uxJtjAhUQEROHCVFgCCOLRmxRMoKLjW3rQzz7Q1guK60MtAg6gkJimJ5EqP4YrVNRvCSfI3FLI6zZy+N6aTV4Ul2IftY9branz6IXHkTlLYQmsvMI7ARZwSSETNPlFBNqaNK+uPIB9hv23gjXIFj0GNnfkT/L/ZFK1NsgQ+paOFfeJndkW0XDEK6XDgWIAyygmKaFxcNZqtucBv8+WFoU3I8a3vzSMwq+Zg1vSW54jVpnjdmdDsdGAcfFcNTVtIo2hYKN7Vnp3jMTOzscHErSaakkqZ1epBQDz2IrZ7NSzXG7WWal1GRTz7JLXQ/xLJ+el4xWH0gurj9hXrhyRNrLeVa9Wd4QBcE6xzZuytnbLR4cfYSPYnEai1K6WvueL4dU2Txzg1V2Woyl8+68ERZc1NKSTB+Bpx9rM/PQV3H2oshBiY0yHbTcxJINFDEK7zVU/baonhi93jaqSCJbmcSTPSckT3L5ta+z+eYpttZtUZcDVb/YJWyHTIxCyQhyNtRrinpLqM4rollZaVjqVRd5oI8s3ECl+PrLlLjEOdqcBixipfljZLBCcuEM/epZXhg+yivbefU2KaFpD4SlQXH7sQT7Bb9ofStpuoS2JizE+J2IyTDGj2LCxDCtFFWlsDMtrn3cVrYnMZkWmsmqJTvWlBODMw6x9YiY1PMkcjyMyoFXHCZn1Y341yrL6vVzRq73d3BeFoRZDoys90jeNlfIcys756eBBw4C5Hu5XGPf4MCXfoOhLCffpGv9tuxhYB0gb2XlknfpUCfTyqrY+4BHcZijjk0l21HshPC55q76hUe+oKKbb1vDbbzObaq9daa7XY6MfZYSwxFb0cpZlHIWjqvQ9t6Hvzc/V2AM2qQjXIkMSWwIFPQ8m828x3I5z616mTuNBht6ii7T3igpnQzC6Gw8vnpUbr15n/ybmw/wTzsu5HagqIUB3L+rOHmnwNRWI9vCKqofgJW/57BUOMh06ZdOjeHBdfjcLdQnb6jq2Ys8pL6REp5W0dzCpoejfOygjzPYxvGHOCJo7QzF2RmawhZJ+TaxyhPhElIjobmeMPNvk9M/fNP8/Cd/WNrLiwwujmm/7svFl3I8/3KJpOVBQ0FUEwIX/DI4ecW0LRddVKKNqFqfRy8sY0VXsblDaV+R7AipHc7X4doN8nRpkecILseYJaDAKtBQqJaA9+VzAv8wqfxcI6ks/E5c9G6YXoSx+iT2iLgfEUeGJIgyMpqNYyy0cyCWQUb1NRmOSzlp5NhGKEUxMpwwEcG3bALbJfE8xBZJ8sWhedAmXBy8JsvOn5i3GhUxPIh+xxO0svvIzYAmjayfe98l1rPZrTBSIssy4vmpkAPpsYPgkrvirEY6+H0UeDwT4WkR4mAAtw8vvgF//6nrHOVbdrzT8Qa3Kfe3mdodsjgOOBYJxyzNrJsFh2ehbHVIq/bg/yuJwcSChAkSCb4Rujmb9XKe29UKt6p17hRqalPVdJeSmhj/eNgf/0D88tZPJVfXF7kTF9ULOk/R7XBE+pT6PrMrIqdvL6hqZwqNQ+GQlOEHka0wd0/3xEJQxzrw4WfhsS8oZtcU4y1txptWvIWTbOKyQT7pkI9G5CZj8oMxOT/CM+lGGm9MEg+JpEfoFfBVmYkO8a30Ygh0cilsef24MV0zidZmVNWmWCjLzReWpH3jCJHTwo/KarJjMylpzHEFU7HCseSmP1Y7kyvyzPU/hd5QmX1dwr1eqwhqjCq/Tux55AM4N4xxzRMUcNUGNq2MpeKCEhqif+dXxPz6bpw/+1tja6J0cUNMd5totU+0GxAHEUQxEtsUc3bG9rRQZH4oOr0INanUUOKk2Dk7NuQnCVNGCFyb0HVIlENsCzHTGLeIao43Ykv9QdxrhiamJLG6H0vsbA6gpIjiTPbO9hQ51Xsz/e4OkJdSRod8tSh0nprA0Tq68ill9FvAOvGhQ5PyLY8Cp0jHk0+k7C2adHHZyub2J3aBS8ij//Erqrj+prOz7pd2N2h1uiyOJiwlhiVLM+9a1PIaO6dQtsJYhzgFe3sOk9oiqyijvmroeDarxTy3K1VuVVuslKfVllUtdfFmRjAThcPHzYuTn5VPBx9Ln6QfCCsb6m9013hMdVmcNJm5Yimn7RBnojKFLOw/SHDE2ZRpCxhZ4CUxRxnQLK+IevoVxfznFWNs1nHVKl53i9Jul/K4Ry0cUU1CyklMMTbkTLqNtrUGy8K4E2J3SOA4jN0c/WKbfnWbfmGLvj3lD1Xj+kTXCO06kV2B01WSh579sMz/ocXGcl7decqT1aKlbswL3dwg9cfWooJcV7Zzr3HT/l1ucUZGPKgUxxEqKBIUdURdJ37UJ6q/htee8H0vFHjYNIkRqjQpU8BOx/eyJQ4dpjnZ+2+ldOxqlB88O0KixEuIIohkQNgekfgRoUmYSmIq4pJDcJSdit2hsnI6VVlJ9kZBIqjEUA5gbjjB2H2M5RA6mtBSRNpgLCdS5fo1OV1/xazxMyxLzFw2sIQymjL5DCr7UNYCfBCLOPs2yBgo56DTMtAoKuNOY8tt8gaqmfpFojLvL47j8BHgw8AjCNME2LRTATjlgHykFgqbnszsPq2T4ZveaCeudXeZH444GkQsWcKCa9PMW+TyCuNCYhuUyoQLssBQJkPhRgZjhMBSdFyb1XKOG5UaN6tzLBfnaKspu481PzZXngiTKz9grh79GF+dW1K1Mro7RPB7nLa+LR+9/RyfjhaYncxg9WwO7R3R7CODP1CAbAAvApcSmH1yyE9837do/ci/UBx7UQXb2NEuueQOJX+VartLY2fM1MBnKohoGkNVQVErPJ1KB9kqVUgxKsJon9DWjDyLbnXArvRoRx3auV123Gl6zhxDZphYDcLZc5i/+ZtXVfjTEdf/bMx3rp7ghdGM9JWtuvYuWCOFGgjxMoSX+BrCFn1qtAT1GDIzj6nHGKawa5cpnfmGmq/EfKh4mbO7FZybgN8TSx7HIo9CsSUpsHwEqnHekdIDn3Bodc4AACAASURBVBGpxRGlt4033YmWXD/0LBPEEdFORDAJiBILo0g5r9kiUds6o0ZLSnhDwE4VA3SSqqc0/Ag1GGNcm4ljMck5+K5LQgXcJsnsuTDuP74jd8bb5C5u4qohjpxEZSompQyflraIyX6ZtYdztbK/vitATmbb8GEAyz2g1BfsLab1RD1cgrkcNJRiqIVrHjj6Ieb4FB5ngCY9HNaBoYZcJoU5f+468us/pzu7v+Nsh5S3B0wNBywGAcdMwrxr0cjZeDkLywXsbBG4J/ycqXyoyKDDBBNnwVHwWC3nuVmucqs0xUpxlm17nj6lvB/GJ6Orb/ys+b3vfFrWfgH1qgN9k8IDlnaEh/PbzJ39Cq23forC9l+C9lc2hq5lgncvAE/8nSvMfepfK5zft+hgT1Yo7N6k3tlgqt9hZjhhZhIxlRgaQFVnKvI608hVYGWLMzCp2lCY4MchzShkajhhyhuyXeyzOT1ksxnQRtGlwNAqI4Wjg7jABXlgxpfSi0MxX1/iZn9Wrm0ahSkLvUma8ibwYn+OF/nptES2j8CHCqQrn5ZCHeNc4aM85bxIfhq8D99iqTFF9fwSjEKCDD50LetYhkD+Zg7n25+RqaWTxjr6puRyXzaUL8jMuCOTESIxSTvBhAlmEmYTybRSsAFlp1YO+3AUMvRAKr6CmxjqfkjYG9JDM2jlGLllIhrE1Imcx7aiI//ln0ru/2ozujhmTXI0mdmfKuosc0yYsMYWI8aSTiJDZaOZVbO0pLVX9R30MD/KP9IeKCuCUn/M4kab3LUutVGbs9Udpr1UuG0UN7gweED01c8xEz6lXOaIcGijWE/ZeSydSeTc3/MZffQ/UUn3D+yNHVPa7jPbHbE0CjidJBzXMJOzKJVcLC+VzkTLvjP4vtpgklJhJUoIxdD1LNaaBW60atysTHGnMMO2NU1PlZnI+FjcW/9+84U7P8o/fqSqdhqiVpyEiZ8obgunb3U5V7zI/fllFrsnyK2fzMhb7l8oRvSiUP5Bn2M/2uffe74ov/u/rOuC+prlrwVe7xblrZu02isstDsc3x1zchxxPDIsAlO2puZoyk5Kb805mpyt8axU3M7VCleBK0LOGPJhQtGPKPkRpSimYCc4TqrmKJmUuSid6iPa7kBVom3h+jI318a8vltRc22P8rqm1M0rd9zCdx6D+GmO+Cc5bXs0HlREs0b5pQG6MKSbd4m9KSaexrYKTI8WqayewPjH2arVOL+geL2R6pbFPkS+YmFQo3ZnXsnFJvEgxGJkLAZJ3QtCJYSTGIkMOjTkEsFDpReCToPDsnTas79j2aZQaEkbd5UYjII4bxN6HgFlQlUiVKVRnGusSM66KpvWCrdNEVU4TX56NrXwmggxEZuz63zt7JfkCx/5ba4/9CpXG9fUYBAw5U/ToPFdAWLvbSHnRavpjaPojR9nlzNypS20a2+jA8TSMA7O8Mraz2MGH6VKXZrYKsmOWCvTy61/egt+5b9h8uzXrJ3rYa7dptpLmAkMRwwccRQzrk0xb6f0TZ014Ub2qep77q7EBkkMiRJ6Bc1KxeN6qcy1YoNVr8GOLtEnxGdrJpbNh5Kdix+TjQtTWItwJYiF8rYiGQorIoxu4zSugu0dMjr+i9sCqbMx9k9ew37q2/DPwBn+oWKE17tOde0GU+0NFvo9lsKQIwKzjk3FhrytsO10y6xthWVZWDoVnNbqkL/IXpmZQfjtRMjFCeWBT0MNaASKRsNQrPm43hE0x1Cp9XMU2c6WNCd5M73hk3/hDqcejLG9KRJ3lp3iObpH55TkK3LuFYfjIfgrKK+o5dXppjKVxzC1BpdyRxkNj3J25TzOphD7qZXjW8cUr5xNRccX3ob7u/BIqNTcFRuoss5Zut/6cVn8XM7UFwnt4utmyuuLX0gP/1aAHSaoUarzoW0LL8MeqHfIfoiVNkaaVAwiH0a0Jj6T4ZDA3iUqbBLYNj5zccDRZWM/s0yU98ybnOTGGI5UFbWbkN8Zi2GZlTMvs3L/59XM0h9TL8Puxgzb/i/CK/euKmyhTzWb56ektDyGulLdlnz+W09xbPoxmK0RFU7Tzz3JF545xuvG5mSEHPVRTwzhY+sw1UXUw1+FK7+t6Sq3O6LSHTE1NMyLxYJtM+va1LJNubL2DoLs/1MyBqBkSiOxgqFnsVnNcbNR5nqlwXJumm1VYYTM+rx1KkpeOZcMtj8sW289QGPX4t8tRKy1tpltnJdW7jw1VqQ2f5mydVNVrOPo5hhO9GGzDyP7e3YecaYdGx+C/HsIigSWtuDhl2Hhn2vpwfhlXL9DefsO0+11jnV7HB8HHLcUc55NzdO4e8BL64CWuhcYB3yKPa+CAyi/TgQnFtxAKCVCbRRSZUhZCbZK0CWg4KD0AgOVR9SiLbUfc/n4aSP5l1dle9mwuzZN73iL3ZNzinwLmhr7TIS36uO8EFHZiuEJDXYNajMq1CFXE0+WV0tsnrfwY80lhnyz1OPVerr+ni0qpnE4ikc1ozbsUOCCd4bxdxI5fSSfeK1HTHnpeTnXuiaq28PvY3dCdBjjaAvbTbBT51MkE6/b92vMICqp9rdgx0IliJgbjomtHr61Rd+yGJJnoookzJI4DwT0b23IV4JVupUZcWYcyXt3sNyvMXf/H6nZxcscaaFqeQVqU3rTfXFw341y+yKLpCbwQxTnEdZZQzGB7t/g9tTTcLwGjZxClxiKzSrwagxPROCM4eRlZOYFJRL8hOIajrUrxSCgOUqYCwzzlmbGs6i6NjnXBjvlNatDPTKiIGvIVZggYggKFu1yjuVqjVuVJiv5KjvKZpBCkZ6KzMXPmPa/eEguMc0Gs1RBnemuy2n9Oo8f/zZL039KqfAdpXIQO5Av5cidvgr5BpzXMDqX6YO/+161n9I32Ml2QseAoyS4bMLcizD1nMK8rRlgD/qUN28xvb3F0W6fU37IkoI516ZecMnlNJadbo731NP3ON0HWorsCwzuCccZNFiCtkBrwYoVjoAdRFi7A0wUp/rBjkKcPGIdJVEnE1MvtuWJhjJzqsqr4yPy0tpxbgUn2TTV9JsWYGd+TNVfVoy2ZXCzq1jKQb6scA0yyUNvWr3m5ORLJxLVuKK5wxV5yV/n7Z7HCYQkjLGYweLEHncRo2BnUuBP75zh1Ttz9ED++n/2+Whh5v8Zzbjf3DaeWHYPa2uEFxvccUTe0uS0Bg/EVoc+l+ycWKnIpU6EXBxTH/kYq8/Ys9m1LHpOmaFVIlE5glwJpheXTUNeNF+tDMCzQLpg9XlyoYbVyqtWHmpasCwwdpw9gO+OEVt9/Ku42QreiEIrQ2RtEjkdkBxUXChaCkftXZ/gQaBTEN22Yzj305fgxyBY+KIVrZHv9KhPEmYjOGIU83YqB5r3LCxHYWx115Y8xXmnGCsdGpJY8G1NN++xWq+wXGmxVpqhrSwGjE4GrD4V8Sc/ZWTtSRkxxUglFCSmRp8Gt8hPP8dDc88zN3MplTjfe7fuFVSjmyrvjceQs2DVy7S67j38i4BlBa+pVEw5r2AhMcBImHleMX5BT7ZH3mCNwsYKrfY2R/oDTkQJx7Vm3lHU8nYGoUmRyWkTatIgUeqeEGm1D+rLnppOsUwqc1RSscIzhsokYdYkJK4isWyoFDF5C8OUiLvUoaUmieM0E38Luf1Gi+5Si+0jdro9i1CdvGJbJaiWr/p5EYpR2lQMcyBlCPLcLpXVN44JpWrCtvI5Xx8QEKuFOMGXfmoxfGgbpDOm2kXKrFHmGgqv/6PyMzM70XzjuWGzG28mt7H9hPwwJB/EFK3UMx4ESyzYn2xlSkhakWSgR1vSUqs+njDj9pjDZrdaoW9VSPQsVKtw35ntuGcuyfPehOW6DYsiThgxSTy6YsvAoGox4vfB7ZcyVT+5R4n16EusH9gMMFAGo9v4lqtQb6Tz3dEUdBqKyjGhMp2OtdyU49EoxXLfqZeR21jDC4m3PqGyM2JmknDMaI5pw4ytKLsKy1UkmQfHHsvMZJKvKgErBmMUgWPTLTislGvcqk5xp9BgRxUYM1YBd56Oee3nhK8/IZoS00BeIGEDxRWB8zjqPBV9Ca16+wIRB3DlLai+BWc1FHIwjmD4YJZJvnvMV9Yw7yFf8dKpVaKBiUL5Z0Xmn1G0b9vj9aSwdouprU2O9HuciCOO25oFx6bhaZyczoLjboXH/b/LgabiO+NF9p1CMt+QTBoUrTBxeqFUQsF0xih2sDwHkxcMORKOYPSxgIq7ak693WMJyJ1QcAJFIZ3Ptit5sZpH0XFTdm2152cmeBndyUW608KtasqV7VhCkMId5PYk5thugKaKfscFk/pIKtxsR3/9/BS3Wo/J/A97kT0fD+ohW/Mh3kYPrx+RD2KUCmgah7ykZFTl6P2VtcGk/HYnI2iKwZuE1MyAObHYLbXpO3Ui3SJu1kgeONc2gbxtjqqRLEsVEq2iaCA7621K5/usrCCJaRDd+iizt5sq2ufSvjODNJ9lJyshlEDiQLw4TTR7FtwIhh24IIqrAsFUetFW2PMl55ljHaarF/ToGk57l0J7SKPnMxcLC5bFnLaouxaeq8FR6RhYHwin70HWdZQKVUfKYpS32awVWa62WCnNsamLDEQ3g8R/OI6e/wHjvfWwaCpKZbjZUiWGE2vQ+Dqob0PldXB7370W3wsU7w5YIfQSsIMse9gZEOFuH72CQp6aKGGS/vtvHNaUrH9dc8t43Q1qu+vM9fsc8wOWLM2C59DMWRRcnSZe62D7KXuY/UP3lchBxuCwB8g7972ZiuFeja4S8EwqHm2Nxph+m4nl4eea+E6JmJJgzWLqj6/L4q+sGEsdg0It3b7YsFtw2LUbgjRSMkr8jgC1YOylrJZ3vnYdeKOI7KbLUjWVlaEV4P6MVRqTWqNx3iY8vyD8kpUwi7T69OwIy0/I+z1KYYIzydRitUZb1v44JTX5yRDAVlp72YlgxzGlxNByx8yN+3StXSZ2l8B1iJq1QXxCXVCfpU2NE3yRaaDJHfs4O8//qES/scCIMi2UsilhKN6bcmsOPQOdgClWiE4fIT49p8hPQa8KEwduSlpvOFmpWYMzs4YfOHlV5Xcv6XYbb2eHSnfI1ChgzsCsa9NwFLlcSsFEH/bhyw5JYtBRuvMwovA9m51qgdWZJndKM2zqWfpoxmZ4POxEn0rWX/xBc6Ld2DPySvuYqsDJMSxeB+ubB0Pv94SitUFdQmw7RQ4yyeAz84cvcnm3rxdBbX7F2P4KpU6bVr/H4sTnmKRsyKZnU/QsXCd1wDXWnkPVgWnOXvbYFziQQ8nurjEndzlNyaG3pRyNNuApqEUR0e6IUbzLaHqNoVMg4iiGArF1fN1MPfmyHHl9Tl4196FVEeOp9HrPceCoGr3LzELdgymnoKvglezLHsqWcfOZt4c5VJnE2DgsoI73RQRTOaWCSEmvOGG9ElLqTcgHCTlf4Vgax7ZwdboGEOvA+k7plBckJp0ReElCzQ+Z6Q/p6Q6j8jYjy8bXLmHTJnmCDYnQ5oscF+QRhXVUirnTnOIIcyhlscdGv7cVgr1NWts4IZAcYVI6RS+qEQSVVKAriGAygb5AHMJQQQxHtfBzlTV53HxZ6951d2VAqdOjMfSZjhJmHUXT1ZQ9jZuzDqmGy0H6SAwqSncdiRF812K37LFWrbJanWHdmqFDgxEBYdyditfCB+XZxWMkIzg+SctoC1LySCmBSicNYPneKBujEoalO/Tvj6GU4LxeAHMSL2XpiZ0didCgzpcMjw71/nccr9haXk+s0R3J7+xS7w6YDSMWgDlHUXc0eVdhuyqtx/VeqJkDD5B35gZ5Z0l1YD0gGcNIHbZoUGldjp3KG1kiWImhNgqZUQMGhW2GVoHILRBbU8RWY9scue8V+fmVWVPvl/hTFuSWlYfMB2G/4P0g+uQp7YBrWYwtpGzLezMutAYvzVKpu5bE5TqTxjodGbIWxBQCn3wc4wYax42xbJVSg1W2NETva3pLtmW0JVVtnBpOmLhdRoVNBpbNSBfwy1WSJcT0/FV+bDDLy3I/m51j6GhBOfeXyK9myrnvBTV5mQZ2VCC3uSgm9wDj0pTqvmXTW7cE10L1u9gvt5V9uY7TO0t/LoFpi483R3xGvqUKm5+3xju3c+Mh1f6YKT9kBsNUzqLmWuQ9jXZ0egvsXY8ZF1lHCYQxJhZ8S7FbtFlrlViutFhVC7RJ1fADgnwU9VpmI2zIix9KfUPU63AWJL83jJWEu7Aj30PrzijYqMPruS7t8lvEwUMSrsY86MBjA1Q9SL9LH7iwCPwXl9Tf/an/iV+r/m8qWY6t3et4wy3KO0OmhiHzBuZci6aryeU0yhESy2RWzKkNmiF1vb3L2lnudf72soQ65GHy3dG0J9iGykQrjJCLYhoTn/lBB98qEFZrBJZHqCudqDX9mvnEbE70TUdGNx4TUzjBRrVCWM94YSF/LoOxu4Xo3wPVGezbnwg0sIuJOTI9Hud60fZgTG7kk0sSvCjCC1KRjpKysJRGayu1ldu7PCwhSdI7IuW0B4g/YBi36TgePWqMPJe44WJO9TCfeHNGfE6xOVpQ4diR8YdSQrTVe+9Kw36RT4I+B6UnFG4TJIINSZ01laY+GjF/9TqVCz412SLcvcVNuyBPH1vleOXLavTmBaezQnHQoTEeMxvHzDgpL7mUs3BdjTgQ6wMTSbJxHUm6MY+00PcsNgt57pQbrBSm2VJz9MkzMbsnw3H3iWS59/3mrWhRKmWYyadTN72v772a/pLR+9eDVDB24JZV4jm9yB88XQVx+KWhwrkCC6+mn9v6/fDGIygmNfkEJeZAdT3s5R7FzS7Nrs9skjDnWEy5mqqn8LzUsky0kGSwGZN5pu+pod51uN7lct6jpqp3vcPTLCKSDT5isGOhHEbMDEbEdodJeYs+OYYUo4ldWE0aM9+Rj0zpxP9Cnro9wwsfqrCyBDv1v5g62vuKK3PI+13titz5VZNvvOpPVV7tLlsTJw+5iVCUhGIU4QZgawdP29i2hcWBeqPo1ETDMgoPcKIEPfHpDXpsS56dQpueyhG6DaKZAPXEbWHFzfEn4tFJYHsKSg9CuQJTb+81Svfcg5wB52GoPZqqze1xzq00LRasAU2rQHPqDq2tNdB3SKZFvu/oK8rtfFPvrOHtrlAddpgKAuaUYcqyKbsWnpuNdbVkQESDOQRERCTVx3U1u2WP1VKFFW+WdXuejkwzJiDwr9+fXLrz18wXw6flpajJZ2J41OxtLyTD0r4EvJxhaz/AgxXQqoSbn+OMV1ZXMFwbxHxrx2E2+zPbLVidgf+0bPNEEijA8rt4WwNq20Omw5BZRzGdt6h7FgVPpXwHfaD4mGYO2fc7FN7ngZK7RSrueTLVoaGHSe0H8nFCY+QjXp9B1GY7V6ArDQaqSGRNb5m5+/7MPHnmIek++xQrSzAwsKPeR+b9S3pJS5RqK+Hf/rIwdzsedH9j7PgvdKo68cRQCoVKHFMIwNMKbekUs7eXPTLOlbEUlmhsAzYGyw+Z7o2YUT02cju0rSpjXSUoWcQn811zRsayN4S4UIGhB6cVLK2BetcAUXkwNvguhO+oHDUSDhI18POoI2XkQ0M1LCzLs5M3OLPyBRWv4fQ2KXZ2aAQTZjDMaEXDVhQchbU3NWRPy0oOgsOkByewFb28w0atyEqlzrozyy5zjKi60aQ9nyy/fL/5zvMPy7dOzVFU0OhDpZ+2Gge5u5OpU00+sHmDIaBs9Tin7pAEV9kYltgYThNmVbS+DU+fEz7x0ZuqxhUdXcDzr1Pxd5n2QxZFmHM1DUdTdG1cJ62X7yon36FUdMjiiu8ZLfLuvyF78BxlMOh9fw4tCbk4ojIZ0+rsMJ3kaJcadGybkNnI2LJumh9dkaOrQ2kZpKD4q3tpFP1MbPHvAJxlQD6Z+sVfHWt9qRONwy1iakFCOYSC1jiOhZuk7l9KHxKa1QcNvEJwwojycMJUbkjL9Nm2RoyICHSZqPHIevLockd+/hLyWgRvOGnretR7bw0HmzimPp4wfyOUE9dhxk4HQBFppfViIZYreUd5c1XlTU9k7Uhb/sfqHOFbSg93xe23KQ/6tOKQaTs1sym7GtdWKIt9F9U9T3BlUslDIVXyHzs2O6U8G/Uqq5UptphhQJ3AmEayM3pYvrN1v2w8X+YTbSgKzARg7Ry+Qx0QVw4q4fdfFjhAk23OESNJm4d33pbhKz9H4eozyiWHSyp59LQeyNn555S/u2x1r5EfLdNI+syJYVErZmyLqmORcy0sSzBZO2/2gsNwt3GU4h7jqvcfJHJX42IQ0RnYM/0EUgvohFwwobqrmBaXzXyDtl3CZy6lsFoP7Jj65qaUbpzFStwD+cz/v1/m0KQsHWrLsR+ZV/axJ2PdWRuFZntHTdiMEqpxTDnSFEKHYiyp0+6ePVw2zUs0xAiWMZAk5H1DPZwwHY7YtoYM9JgxJYL8yevRh3lLnvmtx2XrAdQbHjhRKuX0XsMJW29ty32dh3j4kqeefhsezubYPsjbwLWncmwcm2OYawh2Wf7nH3qT//CJr7H2e2L3VsnvdqiOJkyJYdq1qHuaomth26lPBOpwcKTsQGVS/nHoagYlh3a5yIY3xaaapUuNMQ5hsjWXrN34QXne/hh2q8YjV1M4zAGgYe9x/vmsqzUwoxRPEBGpLbR0cAeOGlze4YLv0wWOKjjytMiRT74Bo28os7Zlb69T2tmhFYXMWYo5x6bh2ZQ8G9e1sJQhG0SiMtcFea+WQ72fbPEu0bLXz+x7rR9w47UYnCSiPBrRyveYVtts0WLEIj5VIk7sJvGdW9z6o+O8XlgAL5eSCa2/gkpL7rYis9fnwPlZ0/C+5Yu93bM1W2OT2sbFklrGZer8WimMJfttpNHpKjvGYGV+7pVJwNRgyAw9uoVd+spirFo3/ULtz1TuS5+TOCmlCNsI2Mzw+u8aIN94jpnhv8N022UOWMpm2EEqISo/k/P4vXKLC3mBYFF+9dFfh+4Nqz/C3dql2B9QDyOmXE3DtSl5GtfTKRgxyx4imSeHMWljDsS2YpSz6VRybJcrbOsZOswzxMsF7J5Igs//iLl2+VOyUj/O4oddal+DkyZVNdJ3syblgxNls01vLNTiHEIV5T+MHn2YXW+BDV/jA0sKeeQX19Ef+1eK1a9Zkzsjr7tLpTdi2iTMuJqWq6m4Fq6TqQIemKsfQPffcef/ZR0yyVxwJctWCrVviaZEsCJDMTE0whFTfocpu0tfTRipIqFeaMeNsxflxz+SM09u3SdXhvfJS/mCumzpv5JKK8mGZgbgah71975fvF8+HR/PXRxZMTttn/LEUEVoJUIjFsqxwVZqH8e2Z3thMq95pVLR8pIf0RyMmXV67BQ67JKjR/2OLcU/iRd+7Y/V8e88Cd9oYFVcZKzSOc+7BYi6/AYWGo3aZyeToVbnQf21dUXSVHK9AOPzwPLbijG2jMgNR1T9gLoY6sqh7Ghyrt5vzJO7eo9McStJUbpjbbHr2mzlC2wWKnR0kzFVIiaLhuufNfKln5SJdZLJWRfs9OdyDooouQstpeIPBl/P5Dl0F/RWC6JzED0Oax/HGd+HTZUx0NVg//Uvk3S/psbnh3Z/nfyoR23iM4XQcm0qnsJzNErvMVoMCXtTq0x4Qtib3+1D2RUfNHO8ywJx/4pQ+zI6JnPQ0hicBEqTkFZnyKzp0i13GFg2gVPfSI4deYnmhzck2n5d3ij8hIr1o1ym+FcSIP2MbNVXoCaKK8Dfmj8tzBC4NxnkE3YKE7YCxbQY6lFEQQuITvWYHZ0yEg+56xmV6snkwpjm2GdYGbClumxRYZeAocrfjE/8wv8dPV7YkW/9xicx33+UaOwiPVDBu06xavd8UHsub0tX4eFNWCrCW3eUcHvain2cpE8xmFCNIxqWomopiq5KpUIzEpQRczCNNGmTJQYiC4aOou05bHpltp0aPcqE2MSy0zDR9Qdpz52hX88TlmFSeq96Y09AUt1rD/3epcoAuJCDa00ozMPoOKZyhHDWZnUDuVOET/EPSaw1tdnDbe9QGo1pRBFTjkXdsym5CttRiDLEkq6O90a6Zr+dvDuL3LP3kA8SGHKPBSP7/132btlsRlIIYpq9CXN2n53SDh3yTHSjHRVb/aT44EtaxtMEwTFzonsK/OJfSS8yAi4DlzJ70nXg/txneerH3kiiL33Dr3T8bpyw3UvYNAn1KKKoDFosPGVjWxpLH6AMDIJSKRLFTQz1MMIPJ8yEfdadAVtqRI8iYXn295NHHuiZH3ryrLzUXFBdCybe/hbtXpXG5L3uWdwY6rtw6lSqa+JvjPToNm6wSzGYUDcJNQtKrsZzLRwng3Tr9Igkki7JJJvWGKUJHE2vaLNVzLFpV9mhwRCHiAgT79bNxSsn5Y/mczx3Am7Pw7WjqVyI/Z5FeZYWDoPG3+vX3peOM7ncrobIxsxZ9B+Crz8Dv7msBNZINNb6hNzGgNo4pClC07aoeTZ5z8JxFEoZEomJJUltAbL3nS4G04WhqHdbHqg/R/Z4Jz47g9Afqs1Nhv51Y0N9HDAX9pllmzp9CmixVSuw1P2h1udWVHlpTc3Whu+9TX9n4/Tna//uQkqvAudBdUA998cf4s3eb4orR8MFl2HTZSev2LQMm0lIOwzphzF+lNKR9y+HvRG6ThenLlCJDdN+wPRwSCvoU6ZLDh8776FOL26oT3x4rGbzhm8aWFcp5+eeGcT8xI8x6ISMryQMN9J9iX0AZVIWyALIL//7q/zu1/871f9X/8ge98iHY6oS01RC3dYUHIXr6hQesBfZ7HkDpqdDlCKyNSPXolP02C6W2ban6DHNBG3HjBZMcOtJ+ervn5Vnf1Kr1wxqHCOhSS/7nUNYOr3P4jDoJMCdKNz+aZR9NJuUf48HHAOjGKQOzGFoMsZjpw7tE/DYR4bqz0szYAAAIABJREFUd//Z/w7+37as2zjBiFLfpxlFNG2bqq3IuxrHAeyEeH/PI3fhrQ5mTvIXCIj32ZOIyvBuWRbJzMecJF0eToUjpsNdmlaTHeXTxyVkhoQdT9zhUFoyhh6i8xls1jKgJpSYsCQROVHsxA43TS49IROb2E+VbCZZVuhn/YV8j+Q9zL6mR8pMnAN17U/yPHTfWfH/6zPGa12ZjCN6vZidOGTbT6gnQlE0niPkEoW2Uyou2dRQdBokWsA1CSU/oDEc0bC6VHK7FCgy0jWi6mwU3//xNXPsvC+sFmXFTu11ellrIXcFyNnT6lp/RD7xpb5RVQmpHNxS6jWubFCLwJFz1ylwXrcLxu0mlIOEhlJM2Sn2KOdoLOswXCaVRDd7VmiiMErhO5pe3mHHK7Gda9LRC4yYI2RQTth9XGTtB2lcrnD8DaG/how03H8LtmPUi4f0jfY+65iA6nCHB28V1czOI1j6fZ4+A+wm0C0BDzDmQ3KJlrpaU1w7h/zkM+fVseJXLG7gskzRGlGPIqYTQ9MVCpbg2JIKM2eV3V5Dfq+B7EHPcA9Wzl5Tfy9AoLoXi+fuEmsPr5WqhKhDC8Q0YCwDjkmoRWOa4y5N1aGc6+GpBj5FErrG2ANftdqhfPLbsHkceWsRRTkBtcYcl3hAbVBLAlZ7Jda2T0tg7odJg3AlFWTzMthPJyvNzXvcTZJddm+m4g9qGyRWqGGc/vbo1OPiPfzFmD9kkvPpTWJ2RjG7CdTEUHFTsKJlFLZW+6rxexgtYwSRBMv3KdqKWiFHlS5FZhigCVVpIK3T1+TUsCO82mSliLyY/ezOO352WwoFbliajXMG30X6b6PcNXAxTDGWPCFFGsLkTcWVm1a8a7yRTyUSGpaiqRVVV5Oz08XgnsupzmhxKus9DBBbmkneplvI0/Zq7FhT9GjgUyGSTjkJlh+SlVunUKBaX1ScIFWHb2S305W96YcDWw/BS4uKi0GT/+jChzn6kjCzj8iU99WCjBAGuMQckTZHeYlENhdvq3PzV9SZ3JeVo9+2oj5ev005ntAyhmkl1C0hZwvaSq2nD/cYIrxHz/EuwcE7dfkO4d0lAy/dM+iyTfu+zd4eqHEvyyqUld2ogIQRjeGAlu5Q9doUlMOEAhGxJO44MouDiM+9DJfWwPs0bJUS6mzzsPtNPlT/BlX7ZRY9KN3+DeLXjxLcaXADOP8EnJ+Hf/1BNTAM0Ea4jNpeI5VxCFD/ZOeX5L9/9Ckj3/5sWF0bDnxNpyPsxEJDCc1YIYnCMhpbsoS1Z/1tQSJCnBgkDMhNhEo8pCoDysqnS8hEyTgp5a4nD9avwdeOSPfRLf6rT9WgWcpO7l1NOuDmGU+56oIFzgAprKEmJDzKGse4hc0puPFlxeoNO1mRvD+mFhua2qLhKiqOhbfXe1hpOaWzn1hLyhY0ShE5FuOiR7dcZteZoss0QxQhXRLZbJmV5x6SVy+W2cymaUc5UMOzDkGnV0rIm6fh4oJWjBckWX8GtSbyXe/ue4wZ14E3UayRY4OEi1zm+5a+zH32q6o4vGap0rLVG5Hf7VELAlpimLKgais8W1B2RuKRw4Y+9xjF3jM41CHxyNQp666gOqTyqN4ZJIfEn/fjiEy/+PAf0grs1GBAi8KNYqqDCVNulzptiuQZoggIiR0TcEQFPA4EEWo1SEngR9SE+7zrnJh6WeU88GwkaCcq7sVM7giBp+TiUYGjGTtK3ncfldbeTWCAqDUUeZCHUb//WpP/4blnZKszGyv72nhk0VXCTiK0NIwNxEnqQWntn68DwGRKMTKYyOAGUI58qvGYsj2hoEaMCMdxXl+IH/I+H/99VnnBVVw7+Qw0iupuCmqKlk7ZviGsjaETpJ6gPqhZJrLAmzj8iPRXUcrGGfcoTgJqiaFuayp2KldjW++k9GZBkrUhiaWZOBb9fI5usUzPaTKkScBExWzljLy5JDv/ZIHNaYchUCdV/W1kn+WANJUPgW0H3ihl/FfjKcv1RH3gkj39XteAt0EJIzlNm8fr/5Q5p6uqY7QVYg93yXe61P2AJtCwFCVb4VipKovskaDkvUax3+3+eu/S4x3cj7s2gtzl+3fXbOIw8vdQlhFSCwFjKYxR6CihOJ5Qrwypqy4VmvSpMsE1ka5v6WLrpqnypOQnNnmx0CjGoU0l2mVeQU6DzqMGC2vS71/GjHzc6xocK+V9u+p9B4hSRUTqqVhAKd1v1Q2MDFze0PBxqP2DinFqTFYm9NWA3f+Pt/eKsS1L7/t+31prh5NP5Rv6drgdp8OkHk5ilBkMUJQgURQly5AMkQJJGzBkydCDAT8YfjMMWw/Wg2EFWxYsClCgaQsSKWhEesiJnNAzPdPxdrj5Vq4Td1zr88Pep6puhwnkkLtQuKiLOqfOOXt9a33hH1COgzLzSu4DtQ+4YAjmfsROEPCiqPfEldLPC4ZZxiid0Y0XJES+MBsvy5p5WX74F9Gv5/8VRD8htKI352+m26Im9VMGxwtdXlvjYC/IqxcMsml101/iR1/+rxVgvzaGLMSznF5eMg6BkTN0IktsmzHK2X1rTTXbSY5HKZ0wjyNOkg6TdMDcDMnpULHrAq8+rv7lR1G6cNI09Ac0k/OH2tNjty3qbrwref/D17WOBhV8ERhh5VmG+lx8kSQ5IZkjmhEtDuhOpqwVJetGGFghtQZr3vkK9BwNUN674Xxf0+ccaHEFCXgffvr5rtsp1epdE3g9Z1DeglCkGdB6o9QKtq6JfWBYZ6z5OSNXcIQwJ9GKjet1uPzFuuJjhNGjhNAlqyxfn63xc8VFvXgBUpDCwGjnS1ImC51cXse8bZDkIso6Z8SS77Y1GVQfw+gHedCvcbVuNdmXcHIL5KSZkbgnHggkXyvrBQt7wCRSjgicBM+sqlk4EGvRc5uznMuxRZWoCnSyitE8Y2Rn9OM5CdtYNhCGyKVfg6d/Q/ntUolQ3ulV6P4juc2FDc+TT/a4tXOb3xLD1x4fc/0nHuS3//q2rthzL/0vamdv0pkVDIqaEcLQOdLIYm0ztGkmx2eTGxvO0qsyssySmJOox8SMmDOgJMWT9UJx8xnu3vokt9mhKg2tHD79dqpPW4vE/OBG0YbmdP8oK4Ng5REqhiFSuo1JZ32AK47oLpas+cA4MnRjS+QMxsh52uF7HAbvmFd8p6mgaTaU04nXe5bk32Ua/66Hty7Aog1XUFZAUU9nmTOezFnvZeynFROslmF4r5xfecEc/fdfDouv7nDjXpeTyML+JT2+8LNMqwll/XlKmSJbL6LPvSgA/Wvw0bc+xuvFVaYh/Z4DhHrC1rLHX9u7qp86HMshhus17O/Co7uN4rOEX4MP5F6/9u/zvg9ThJNKOcJz7CvWKsVaxTmLsabRFFPOiHkoJijpsgmQte6MIVM6bDR6hZIij2wjf/HinPhOzr8Err3j5buH/Rd5bLzJJ567x2tuwAuvduADz8OPbQFQvPbnhZPfMJpqPPF05hWDyjOKHH1niCPbaqtyBnnQJj80oSkgm+6VY5qmnNgBE8Ys6VLi8Gq6YVE+pi8Vz+m32EJaew3OgfyE7609//0GyFabylWggYoOd5oq5zJavoEs7xBnJ/SLBi3QyBZZrLOt6PL9Z9j5tX1aF9y3zPUUN3WaHckZoky0DbpzT6R6f6tY9X3GD3oGgFz9impoRAUJ+FVREyBaFIwPF2yy4G6ac0RErp25LTfeNu7TX5Y186we/rfbGp4W4aVN7vzV5/m2fo1+eAEvU0If5FLDeelOkZ2Tt7Q+mnCQRVj5bqVHU5jdqN7k0q1b+iNf+0U+fPcZ7tIjwtBvM4VngOmv/xSjX/7Z8M1f7FTbebYwHU5mnAbIpFJio6QRRK4hjpn2D6jI6YkaFzWjZc6GnzNiRpeiAWVIQMYd5OkLE709n/JZCVx7B7TXLQ+/Tdr5Rd24/mn61y9glxb627DetCTsrSM4wMiCKK/oFjUDrwwi6FlD7BqjRm1PkBDatnQ48xOsDCxiwySNOXF9ZozJ6FJjCJQhFDd6euuwKc6331Od6Ad/rdC8EdBxQH0AfB4294UBclTjpkd05nOGZcWagUFkGkCiM6ew69MguQ+FKO8oN87SpPMT77N0vDECkJZqd14wTKU5lcPZsn9Ht6odGErrQHa+1SxnrWe/OqmM4oqa0Sxnu79kjQX79FlKRN7rHpSP73zd7zzy275gk//7zhX9DDEHByNunozZsI5u2uhcDI4bCJGfgRSHbIVDvLxbluX9rmOFavr7DK89RAdDyiMkrJNgKYF9g/zev48UYOOFvq82sjzrMKuE4yJwXNdMVekJuNji4qZ8kBW8SRSsIKEhkQ2rijXNGZLRIyfG4wgY6RM6l6ZszSY6nIYzhcBVgHzuc139QPeHmf77nya7tU0aK92lwew2xbLcygWHNVOSuqRXBwYKfYGObYpVYwQv2pChVrgrbU6TWpTMCrPYctyJOY6aAMmJqcl7oT6+qif/56befD7S/Aqi99oR65/U1Q4NhUdV+ajQnwpT7KQg2Z8xmGWM65pRErUnZiMXqubc7r5CLJ8vyFeL/b6QkNNFK6r3LW7T7n5yvt5oU1Zt84ZwX1dMT+u8dz3ytKl2DjAqDQPPBMHWgVFesuWXrDNnQMLMpCxSE2zS+4YZrxF+4s88pNeOf47P5BscXTTcnnTBWjXrSOcYegswJVT3UDl6B6b/e7gG1UeY+Y9Rk6FcwzImZkyE1Qq4EZoZyV9BufTaJ0P1mJS7O7NFIvm0Uj0pPVOvjETo1BGJV8RoQ0FebVi2aWlZr/SDZy2UjHXJQGZ0mBGR4EgJsrEIg60J/aVXyvv5Ie5rLyx5m4t8lRFTErmwAz/6InyhpUfKgQoRkctIQ3t6GEPHmiYXX2nstimEV1o50eb/c2OYxY5j5ziKEo5tjwUDCnLrq+sf1ru3/oz+9tpP6Nc+PJD13caYVHb/BANkNYj4czeFD/7v0HlNeLty2SGdgwZasgb0nSGNVvUH+BUXg/NTc86K9NZsTE6DqFGTDCs50dBghzCCUYPFYNulzuqZG4FeQptyqZ6zNpIV/bQNDjFnqvC0p/m5nTDA2Y5awUA9m7JkiwlrDDgiwonBSijF9L8uVx79HB90PwSf3uBeB15+05JPBKboMIOqhNkM7h2g0znEtiVr6HffkEShPv6zbN/5WakZYfBsMqbEqD/XkDEC3R7I/Euq1/52bT/yW0Vs3pqJzyZ14ARlzTZ2bSFoa1/DmTSSlUZvzUPXK6O8ZH25YJwc03OHpGxSkOBlmNPdmPj+Xd+0S88HSMR/wV0ukOIkAsYH8PhnYPhl+OdAOa8liXGhohsCQ1WG1rRzj1WxulILXN3U5qStjCF3hlnqOI5ijm2HKT0yOlTci0L++4/p12/+GH/rFx7l8XX4eNmMY/8kCW6n18U+/PJHYNcJuw0Yc56xVnrGkaUTWaLI4myrHUs4hbOfeVOfwSWFRvHeaLNMV9goWlHqM35S81hDo9BhUdQIdcsOaD7Optlx2q1atfzl7Nu0CiirNCxwptupchakagQrkGhgHJZsVlPWXE5HIMJiSbGsBT/60X8kv/wX/n4AuH7nttycK4sjxR7ChfJ50psf1/TVSzwwNRxV8LbAiX53TLXiERzbyx+ld/wBFvSYNVbtPIShbqfs91o00IdOUYT/k0ry5TKR20vjs6n3TFAW3lK+I0BCi0XDSiPXWkPqlWFWMV423ayem5KwhsNRSVKGpL+QjvP6DpdzHPwKNRcoWysA5+HpO/CnQP85sMgWeIiLQLeGIcLA2qb2ME2AmNY2TWiV2T1gDMFCGVkWnYhplDKlx4KUAoOniMPkq0/qi1sPwjaS/QDAb3+k61KOPnAbuV0b5sRS0qs860EYR44kdpjIYmzDOzA0E9sGa9awJEVXKdCKqBCQEJoT1jUziYozrBaA1AHnFesb6VUrgjpDbYVapIUqKyGEJrBW6ZlqK2IQWvuAcFqUyrkIarSkWlXGNpqktVXoLXPWTmas9+f0OgURKY4OhnEwPEbIb/5VSa/8Ey3TZtu/lh+SHMHjd39Kf+KFX5Cdty8RgJson0e4wUon4HtpsfcwdLmFwQFPNPQKHmo7mC8BtxQ+UJ5mrvrt+MNeQplZZaaeWYC5DxRe7z9BVttIC7UxNHi0Tl4zzAoG3SVdMmJCy/Rwtdi4kMR53hUgynNU7V3ttvOHh0A/+UvH8I+geOzQZbdJFoFepYxUGFhD4hqCUKNIfpZONHL9zU7mRShiw6IbMY9T5vTJSJopZ55t6du/d5mbf6kDCUh5P3b7/ZQ+/oijj/c/+C9NEPM2tfe2npKWBUPvG6MbtxKgaKRopGULSuufKFVA6gaoiBG8mFNp1dWkNFRQm5YiGhnKxDbT4DKQVB5ftbMKgFqoI0uRWjJrqBuSB672jdGnnKUqomB9wPpGGXV1iqg5g5pgG0VLOZ+eqRIvC4bRnHE0o9eZk9LH4XAk4uveILx+kAa+cSzsXYfNHnsf/AX2Xg36y//6T/HQzSdYZ3BKOBgZcFfBrDeiYt/tJmkGxW3h+n4DcBzSDAuHbYaz3yIdFh5eROU5RAfRK97VeWFhqYFZEBYeypZGYZRzRpOcQv8RxagSlzWdsqAbclJyIgosNSImiI0rIqvvape6gOFGQ2XV59oXGQOjv/wZ9B/+iL3zb78UH9+lO6sZVspYYWiExBqMNU0htMq5W9SuaLNj1daQdxzLQcwiScmlS0lMXVXDcPfgIq+rcqLhXB7w3bmBf0wBAsMlMLWTQDybMZhnrIXAusDIrTYEg3Er344mv5UqIIVHqyYfqq2hiqGMLUUslNZSVTU2K4mrgESWci3heJwym5ckxwU98XQd2MRRBsUsa1JVqtQx7USUKphJznDhGQIklrITUTiDrzxJ6UkrT1orUQAXmtPFOkNILGFVEa0o0KZJwkxe0XVLhsMpAyZ0GBPTp1Br68Lu+Gv7sfDW7zfb++WRcPVHlPUL0v8HH9WY3mq2qTFQDdCXnkbsxQbl+r43qV3AdgHdBB3vI13u37hXxL1501eUf9E+29jk6oTKBTINzINjqUIZhOAbbbAVxEnb01xXKF8FqT1JVZJqTsKCiDmWHgaCMXGFs+HdJ0j4efhyB2QDfv4ePP0V6Lwpqmt/Wdj7fUNBvKzp5Z5hgIEIPWOa6blt8PeigqjBnu6szeyjsoY8cmRJTGZTCvpUOEKYP6HV0cdVti4gWFwJj00hmTdE+p0Wh9U990KTduL9DODLxt7jW4MGgzJYNI0o/b6r87L9HiibBwb2ZeF9fLhksCxZ16YI7BshNi1BR87mF2oM3lkqFUqj5CFQasOkLI2Sp5ZFz5HlEFUl/ToQqVA74SSxzObQqT21VSYdRzHoMC09UV6y4T0mOJbiqFrRtFVnJqSO5TBmERn8oqQTaro+kDqIjEU8RGUgVcX5JgWz0nR5mm6WUHuFsqKb5Qz9gj5zOhQkBDIitVXsZVIeGo5eUTvbwPttOmZTHgwX1cmmKCIemBm4+yi8/ST81sMgo9b85LvhFAewJvBpi26+iswPl+yR0SVlQZcpwpLGA/G3V52vmKBKZSBTZQEsVMgbO5k23dVTWaDVEDZY8AHwnqiqSeuClIxEZ0TSwVFndVQfSK8+goPtBl7hmih1PI7g4LaFr4A+fAl4E7h5Agss+0RlTrcO9I2hKxCv0itDk2JhGsZgC1JUgVqE0hpyceSSUNClZEhNIET3Htedw5/g4dFHGUufHz2BZ65B9zoMTxq4/ePc7zrbb4NjAPg5MnsV1mbo2gR27jWk2+87QOQA4peU4lNw9T8ovGSKokqmOcO8ZixNOtmxQtTmsrJyfRKB2FF0Y46d5UiEaeUpZzmuKLDeU4th0XdMY8VlhkwbWzVdVJTVAnuQ4RYF9VrM0Waf/dEGx7OCaLLg0mLJcL/GzQtIE7xXFqmlTh3VIGY5jMgENFe6ouSxYDoRftil8EI0KRksK0Y+MPRK17SHhxG8NVQKLqvpSsHI5/TJac73gCMKJqQHxvOyUAeNiw+T3X6Gi+Exnnmxj+bSWIcDrzr43EPw4tXGZF7te6IB3n0lcHwBeTmCTlnp+uGbcmzuEOsjlPoIRziqUzRtO/kZJyFalJU/IkdYSAPIzlQpfKCuA9a186lz1Bu1TdNDQyCqajplSVrkpG5BbKc4CccmLb7O5eKz8H9dVfvXHWHHiKbg6LTclxRejpEXt9pmyW4lssTICbHP6fhA10BqDZGVdjc9Gww1Y/4GCeM1oMZQWUtuYjJSChIqYgITAq+sEW4+SF1tMTqGH5/Bsy9D8nYTvFfbKff5jkjUTr0VyGq49E2w32xmLmmbu35f9X03wOUD+Jl/Av/JzzR17ds4PSbNMoZlzUiErmmcUawGTO2bnTgEghM0chT9hKN+yi0XsZ9VFOGIXpnTXeY4KqoEKu8JZUlWeYIXbK5EwRAvSozAMu6wu7HBzdEVjmVO1D+gXEzYOcoYS07aTXFxhI8tuYOyFMqFNp/zsiD3FUVqyUcdFlvrLDxEZsa6n3NhViO+sRNw0joarsB9PhBXFf0iZ1As6UUZqcmJSNVG8VS2x/eU4RMadUZkJxsih2PCnmHvA3BPwN5Dr5XwxQG82T0HxdLvqeqDBN5cmzF/9jV6Fz/HUT4j2h8S3ngIZs3TPQd8GPTDAE/+mrrpv6z98e3C5CxVWKAsfCCrPHkkxF4J0pwaIi2BzDQtdipPUtZ085peUdExgcQanKQLEw++KJ/4hONX/8YWt19/ji/WlzkYddoA7cJ0hHwpRYu1pkrxswJXY1kS+Yo0eDoC8bnh4MpxsQkLg0ERDYAhGEvpHJmJyelQEOEpCdyG4uvw1qvKN65Bv4Dnc/jwfpNSrbjw5n3W+7A5SdQ3J6Cs5lMp31H/693XOMDVOTwzEZ4B7mC5S8I+3TJjWHsGIsRWmtTRB0xVtTp4ijUWxFEmKdPBkD3X4zYlWbxgEGrWjhcM9mvc4YzINoW0+EbIyVYVSWjwQ/NBylE6Zrf/ALvxY0x7R5jtm9TTParbGZoL60mF68ZIJ0aXBjOVxl9GA957qkRYrHU5HPY4TndY+Jq4V7E4mmMLzwDoBaGjggmNSqG078P5QLosGE3nDAcLuumSWATXTZHnHx3pWvrz+kzyNL//yg6HU8OrMWw9CbVH0wP41jr6chfumT9M/9FDepvogd+S4tK/IhTPoDd+GDlQZNZsiE+CPkGTdnP15wjRi0Fv3K7cjFxrlkFZ1DWLSljWinoL1jRZzaorYQ2hDhgfSErfBojSSQwRXSxrmKiPXBnvy1/48d/jd14Qlr8z4NoDHdwKGVjF8JWQ85WomdKV+QlOML4i8jVJCKRGSFanhzlvGdZ82bYYrCUQTFOg5jYmJ6UipcaizNH6ZeHwtaaDsbPfgAY3uM/jSb4TAnfwgyjKtwI8N4GH5kIHKQNWT4izOd2iZOADfStEzqCmAfsVRvChEaBQrwTfzBtKF7FwQ046wnRwxOLEkNcly2lGNzPYxOJiS2UckRpiNVRiodfhaH3Ibn+Tg/QiJ1xi0Y1hY4S/ZVFtdv+qNoy9JQkeUzc9f99y3SsDy47jpGPYHfQ4iTcolnM6pRIta+ZZRWEMlRhqB2ULRyE0+4mGQLQsGcyXjDpzesxJsSysw1wc5/KV7SX/39dTugcx/y6DkwjCOhw8Bm4HXu8i39o4y4W+5zDRDCt7PNT9Fhe7X0bd15jWKdbtM37V89QtuELjMXJp9Zj6I/iHrmptfqc2hgLINLDwNYu6SSxMDS6ilenRs1lQ62AW14FOpXRqJVVDhMOSIGKRTqeQx0e7WuqCzVuBg1vgLngoapjVSu0zDN9ohLjNbUkCpgi4KpAEJTUQ2XPFKmf0WhCMGESaCZg3pqlBjKMgpaJDoINittGDrtobka61i71zRmv4fgAi8H0Kgtx/gni4MhHWloJDcsUsMuJ5QbeoGAalHzusM3grlImh7kT4yhNngaQK+Nxj8hKpKtQ6ynjMYmubvNgn2ztkVni6BBIHUepwkcNJjNOUKEoJGwNOttbZHW9zxDoLoLAQkj4+6RBGDp/C0kWcdB3djsOZZuMN2qQOZWRYDCKOuwmH3QFzTeHkCLu3JBzlMK/R1OFToYgtPnHkKnRDQLSV88wq+ouM8dqSHgsSEiISLNwzDx/+D8F9/lBvXftPuT26wKtiyCy8cgHCDuzLuaP7+0GU6hRnvsFG+gXWhvckODj0NYtiX59bq/QDIFfaTXMlqJD8s01m//EntLj9D4PUVKLkBJbqWQZh6Q1RMIia02bK2WS/qR2j1nAoCRAjROeaZsZK4HLicSYiwske4H78Fhwt4ZWF6M1geYKSV4ByfMx8huQeWylRUOLmtGpOj/P853O8HaSBt9dWKCJLbiNKYioiPPZqoPqYxrcf4UrV5afalvI7640/BJrq+w+SToBBAZ1asEip2EVGnBd0a89QoW+EKLJNu7UfM+vHZMuSbl4xLgNRKNCpwXUyokFJ1E8gfZBsMye/NGFuJiSlknQEN7SYOMKaDk56WNcjrI2Yr29ykuwwk3UKFtQcE9IhfryGXj4h1J7cRkySiDS2OG3mTKqNxGmdOLJ+zKzXZWpG1CGQLpZEJxW9RaBXKkkMwVkWo5Sil8CiYlTW1N4z8KBZSTcvGYaCPiUpoe3h5KUx+6+ZrfmXww/d/TFuzLd5XA2+A2+MmwL9VK3h+4b4ZBT2LYrOGyzTLS2inxSptzWeb8KyWZzSBIcs2/ub/D341N/7Ff31P08whtoZSoW87WqVIVCHwP1NZjkbktIgFaKgxEGJ1RMRGvOvFmkskUBfDB2EFHCPfq5k3DMUfcvNeqCvfP4vKkC9jixmmDxg60AUFHdamL9DQEfOEUxF8QKlMxRRRGFjSkmocXj8w8r8hzW5+TQPM+BK+1hKitvbAAAgAElEQVT3/dYPP4grChCXjeicR+oMu1iQFgX9EBjQCCfbyDHvJRyMu+yOEqYGhic5ZVky9s17jm1CT+b0uiWJ2abop2RPzgnbu1ampbNp5OxabCTqYmSglmFpZFARjbR062R2i6X2qfRNAq90lY2xXtwx2frMe5Y+F8LURj4S520VREqMBkIQgk9dqNI0FPGoKohrV82IiiWDPLBeCWtB6BqDphHTtT5H4w7l/oyNWU5d11AqMZa0LBmEkj4VHRrukKXEUhBsf8qlaF8ffSHoeA+KZ2H+FLyUALfQ7ddhR+CKNAzQlSFF/h4Z10bbrg+14Xanw+5zj/PGxa4UiehmvcGHbjyGOYr4ZtuY8UCVIH4A2QH6d5+/KbG9ol6adaZC0Qo3lS2a/Dz/oJ2Lck7LAqtKpJ6IGtcMHlZsXV1RAk57DS599Zuss87TXGSbDv9i1T8eI+UNTB2wXhsHI2mAeu9LSFjJYIpQO0uZRORRQkmHmphAfVU5+jiGh4npv1/K9CeE4g3gc2FaG25i6z2i2QndPGOgSs8akshCJ2I56rA/7nMr7XAy9YzMFFvX2KWnW3sSE9MfLBiQ0WWHubtINaok773yoD+6tyUdHcjAJIITIS6F3p5h8Cp080BETSJVFjQcvA3+tSfZePqTYZisKckiUOYVvshhZgiZ0RBRhIhKfYBSe1J5E5WerQO/LL/Vnc2JFxmDIrDuDWMsqXXkacIkGbKbDlimnjyaI8ETl4ExNUlV0ado271VCwcXDCli1jPpXJhp5w8C8S3QRyBarcIFPPHVxpPwx0GeAr3TDPhOJaTO58FPAR8DPNt8gZ/li/6AbxRTvb5tJTZDTH4BKsusDQ4DZGPYvQJvPoU8l3b1gzUht9SZpaqFwisFShUayEmDJm+zHJH7EAQNXi4QaU1MTkyOpW4D5D2k9l329GfR/IMMD9Yw087Z+ukhHowPGA1YXfknyn3xoec50+1P3kDlDEUcUbiUkh6eLoqOINtpJxzRH3twrITEPZ7GJQ8cEQYDUQ0uh7wS7mDqPeJ5w7cfoHStwUWOqpOwHHY5GozZ9X2OKMmsoRc8vawkKmpiGzMoMsb1guO4YsII4VNSae/pKv6DT6l85SphbyRmYqGewsYL4FJh/k2YlwohfLNEX/oyJt69xAfufUqfKz+t7iQEqWqPZBV2V7DHBAZ4RuwSdJLmevnCgguP7SoXf1MO3v6Wm8/pLnLGFWyoYWgsLokoOh2O3Tr7ssYszSk7R0TAoA7N3alr+r5ogzwnpmym8cQY+pW6jRyGgaKFltQeqAOdUPLMdsWz68hDFnZASj3TEnDvQEBsAFvSSLJv0ufiSZ/dl52+0YvUDU0zXRPbpNxdCJswvwpvX0R+v4sOSbiyhx5YvBrKUiiKQBmUOkCom7rKaINzXjlSySlwU9v1XBGRE5HhKJD3g+u7a586QY5z5GXl1ekpoUB2v4TUYILHaSAi4MQ2rTM5c9wLNOA5WaFbUYI0XZOiLdBL+tT0UerrsPntFra105bnfwjl6e/xWnHYD1gg3GCHmAe4QocOrFdwcdoEyQwbJsSLjH5WMQiGxBokcdRxzDLqMpUxJ2aNE7ckJDEjhbXCM1DFpXXDr8iWzGXGNJoyZ6hZ9Onr9fjTV5Q7P6L8/R8P/Hctp+lXVfAfg9v/Wgj/GDZUlyXkHuZZxTe/cozZE57icdL7JgseiyUG/TfA3/zP4fN/a58Le3/H8PZLcZ7RO84YZzUbCuvO0BWHdmMW4z7HnQ2O7Bbz3pTQuUdPhC0PG6IMykA3KxlkGb1oSeKWOKJ2ccVBTLcWcaoHQD5Br+02n3D2xst89PGbfPTBRkXvLYXbHur6Pi3l07V3YuB1B94qUyzRfBN361mokne6+VJfhsOn4e2rcGu76eUv1PG4RYPHF0otnqquqEJop+WNDpi9jyVzXgyjAZfaUOMoseQYMoS8fZHvoES6371sqZKI7okwfhle+Mf/VOCvCDWm9LiqJtKAQzErHE8LbZfWc09ahKlpiSq1NO3EAtt2sHoEuqD5N6W49JtaXgDuDYnokHBK1/2BB0lO4E1yvsUuCa/yIdbYZocOHWWjhJ2pMi+FI4xmxEVBr/AMbNPOJrZUUUQuHRYMWbDBPJ0QOh2OxHBcKWshMCoaKHW1WJK7CSfRPlNEl3S/VcGBDz3jl58a6lv/zUf49T+r8pnXatbu/CnW1jd0vNXDPPlZLhx9g3AZnU8nkl+4znTvTY7ZJB0NKS5B9VggXABZDyw6hvir8E9/+iWefvh/k+LGb7jFbNqd5owmOZuFZ8sIa7EjcTDrdZgNhxx3NzgxmyzdLppEDDHMvFAKmDqQ5hX9LKdnlsRuiSXBUCO4AF1PsaN8AfSpRclfPThmc+MV1n7sN/n4pX8rV8YJu9bwioGbPahWVgrv2JWnpfLmTDDLCl8O6J/8adL6MrTAx/O/XvXh3jZ89RLstwFSqkX+Nnr37xCOl9S+osqVqqzxQRotNm1kjkTOsTRbLoK2KZbVuq2xcgx5o8fVMNXfcYLs2wBRTLxh5E//5AE7J6/AASJzTFHiyhoXArY1ZlGjBFkhWhsWoWiDlmxOFKgRKoQSS0lETafpi9Tubbm3nvLKpz+J+YLngbtNn7vzx8aFWlLxJspbdMlp4GLtxxV7SGphHiDHUhJXnm7l6RpHbAwSWerIUUhETkImA7L+CJ/3OYxiDjCsB+h5pZ953DzDd4456nU5os+kqVMPtOrth9c/mslHn0dJ4adSJ5cujGUn+SF9ZNjV7l7Mg699gytAsl5puFezoObVWLm7BXtPIPNPGMrHIFxBywvI//Ez6Fc/8llG0Wfkej2Njmb0DpZsTAt2vLJlDeMohtSSdwdMkxEnbsicLjkJopZZpSy9Utp2RlDUdIuSTqcgJsNRt7uwDRKGnt3HlNc+BL+0fo8//eRn2H7g8+K2vkB3/IpEHegY2HAwuwTlNvjoVBb0dOGnc9i8Bck+LJcQdz6h63eLxjFXWs2etv4IBkoL+6eNWDhsgV65EMQ1ii0YvApBG79G0UbX07SuWw2qSE8DBAJGPZYKS4W0efh7OpE6/FNg1+kNLBudGW55LHwZU9wimk2Ilzlp8DgRsHo6NGu4v60YQJtaCU0Hq5ZGPaX507Zl/wKhKpnYl/jcVk68HjB3m2HQH99VIFwn5To9NiRq6h5tu1hC7FGCkQrbDkQ7PtARcLbpaXtrqMVSE1FLShVt4nsbTOK7HJgZ6wTWvDLMSobTJXV6wlYcs5f0OXFrFPTARtd5YPM3689yEl4sHud37GX5Xelww3TYCE9x+Maf539+4VEudg/pExHCDlPWeXXd8XsfhheehTvPIPIgHK3DBy6q/vzDJQ/c+7uG+WtxOKE/y9hclOzkFTum8WpJuhGLYcqkP+A4WmPCkKW2EKc6UHql0tbCTJWo9qRVRaolETkW35I1TCCkgcP1Zmp3oZ5zUV6XdfMHSHRTiCEkDd01icEOoFqHLLpfv8sAQwfxMaRTtCo3sfRYqx0fmSE7MTy2gEfrpv0/K6CawfMZvOEbQtZBW2kfjVE5JNhAENOyKGUlTHzG0z8NEE51E9C2DsFjWmUEeb8ZjoMfg7SHW481tYrOp8y/gJ2eEJ/s0Z0WdIMhihuPDm8VLwGRBkQdtJG3QZWaQA1UYqgkULU/B1b+GMeg05rSKrjvm8b8h+TTNvvRu/K3pIa4whsVW2HLish7Eg0kou1puWoNrrJZB2xRmQss7E0O3BHDqmS99oyXOb3JjKFVNtWwvd5lMuhRcdkbO3pD1inkh3ipvmo+Ebr5n+POa09yo4447HSFyYf4SvcxRvdytu8FuBcxpcvhekL2HLL7QeT48ZaLkKB/Obqrf5P/Ee5ec+zTd1M2qbgcAle85wLKwDpCN2K60WdvtMahXWfGgFwLqDOkrrCiOCstr6dpyMS+JtISS3X6rmWlpbOSLzS3HabaQuoPgK0V920B1BvIA8x9Ywq61+z0hHbe1W8Hf8sSwgImk45O715mfLsvn96F8SF8cgIfmDbQoZM96L0Mk00od+CkA669kb2rMJ+B8U1qI/IeKDA908BvcYPaNm9Mm/WY70bTc/zYZSjAHQc2l1azr57I3i7ubk56UNDPDIM0bayNTXOCBKMECfjVsFAbq2NVpRaa4GgDxOPx1G3ytQTJ29Gl+ZPp7a6o4+GdcrniwdeidZDaY0LAEYhRItMoZKCh/f9Vv7zGMKKSS2TxBkfJHbpVzabAZlkxXmR0JLCpwqUoYRnHaCRqTTgUOzgU677BBXu3et4/G1749Q/w+a8Cf81A3OffzPqEt+DhrzYdoADsx3D8CBw80k5TR/A3zJJfmf4dyd/6p3b5Nl05ZmNyzOWy4BECD5rGJzLqOpaDDodrY/aHGxzZdRZ0KYtjoukJbp6TBE9sIDJg2+5O05Dx7e66yhQqRcpmwkYN8to6/qXnIe+DDkGd6vbbUtoJB13HrfoiN7THGwhvoGTAZSquckQvHLOVwfphn7VbT7HxxhbciQmvQPfbjVjgA233a7QHfg+Wj8DiErzowcTNPUw3kGWESNFO+KRhasqZ2qXcLx3TGrTraUlw9v7OV/DvCpDnG6psNFOePYiZ/j/HvH4Ld2jo7AsDTRg4S0rcuCgZxUtTsJvWOFJaCmlobZ2b4PDU7VegRHFnyh60gqp//IIljZ6Ow7XgnHMhWSksFDKQGmPAijS1lm2P5joQVRVJWBFsllg2CXaHon+RSf8NIio2RNgSZbMsWZt5NoCi66hjQfoKaUC5TGCMt7rvH7v8bf3VP/sRfUgf0n+3rLh5z4g9EW4shItjYVgh1QKdbCp7V+DhK/D2QPgVOeFX+KzYu19z01t0FnusF0dcWkx5OG8C5HJsGPQcftzlaG3E7mCb/e42J7LGEqiWe0R390mPFvTrQMcIkV1tws09NWj73eKZyFVMXhPX8IkKsTKm5kPw1lrjzi5TCLXO3YRX1gZ8US/LAWvcxZG1N/0eJZZ7ulGfsDVTLt96mmdffoLxqwN0zzQNJE6pGLLiAD0C6l+DW9IIb9bjNkPuN7/YOmutaP7hfj7hKQ1XkFOZJJTWget72KMdZTOSSDZUn+qWvFQt5XCKPXLEs4jUGTp1M5I3q0JHVg5KjXJ4CE1EasvIX9UhvpUsW5mxNVogFcxnKYO5+0GlV+/7NDExV7hCnz49eqyzTrSav5QCmSAl2NDWVg2PpZaGbx5Vnrgs6ZZL+tWUnj0hMRvkbki5eZVs8jrHceBeVbLpGxckV1RYH1iPTcNBqBQd1Ei3RkyBYe3Qdq78v8VTf/NafeVXt/UX9jb0+A8uMnltnd3eti79BYY3Blpn8PyH5zz7cMnGesZVduUR/3Wz9drvRJPXb/emd1g7PuBiNuGRKudhX3MJZRgb6l7M8VqXW+MxtztbHJgdZo1QBlJfpzM5YjwvWVPoWyE2jQLNyhDTQ5uVm7ZwbZeSUdiqQYxDGcHuBuyOIN6A+jGCc9y8us9ndajIjjS6mA3SzvuSG9MdRrf7bNy9xsff6rH10oDRy+59JlgLlJKKDtWLXXixudcHNBaexjVZiF1xz5tU7jt7QcpZ0OhqPKHfOUgcn0XZhPQxJbETSGoK00BMyroZyfuAVT2V9mnSKbMyrz39Xol7rCL5LKJXancl6md9Pf76mq5fi8TdH8I/8DOlS5cneAKPx2DaGUIjThFyh8mcmtoEafjihaEh4ShUXunUnqSo6C+XjNMp484RJ/GY3F6g3n6YsnqMxXHJ3uSE60dzOlmFFp6toiZG2KoUKT3iPc4ocVdJMcsTBi/NRW7lvV6n7lzo+gvPjNSvD7Xa2QjFxQfVL3cwJscO7mDSpZhsaVx0YMO9O2lx+84w219sLI64NJtwZTnnoVDzgIOxM2hiORom3NwY8OZ4nRtui0PWyTRH5XU61U1GxZytKrBtDUOxxLZZYJU1LJ0lE9s2VwyBCKVjNBSOIO8UHW7l997aQmZr9LPLrMXXlfqSEB5QdEvQXlMA5BW8ecKLf7DF4Ns7Ki8lmDu91iVO3qHHXajwFpk94LXOE3xBOrw0u38drwyUXOu7Zk8Fjr/zLnr+uPnexCU+AzyB9sYBdmrCck7diDuIF4wNmHNKGqdfp3WHnP68UnLX00DRttflUBI09IYU/iN88NtOnkN56H6I+w/8slh6jSnlfR/bDJjPnW5MY1xtAjGVTVjGEZNYmYhQBMX4hug/mGVsRhO2kwMm9FnKgCLeJN+5SBbf40hq4tkCq57aB2o8O1lJzyy5SIPK6BEY+pJRf6G7Mpod0p9NZUhmUyr7EHV0EZ92YdA/vXdNSTzFcp34+IjO0T7D5S47iyMuz6Y8VBU8EDw7RhkmDtOLmIxSbm8MeGsw4s14g3usMcFQFDewu68xuLfL5jzngipbkWVgGvFxjSx5N2LWSZjbhJyEuskbUDWNIGwQabFGp4jPhvt5awtuCREV6cNLeDtVXCp0Ym29f2Gu8HYNbxV8/o0FfF0RBsBlFMcEOCIQWBJxD8eLHF5a8LWnHuGLDl69SeO4c+7Dabu/Ys9OkFNK9HvtvOclmb7XNeSeeBF9bQG/9bdTFeBLT14glKLq9FT3Sc+q3PvsjVXPnRwtz+Adp0qTzcYoKeo3HqRwz/IgCU+ibK/KAc5kuc0PsDQ/G43erwJ6CPLyYaof3x3oehQHBpS2z7LX4bCGA4XMB9QHotLTm+VsOcPJIGGSdljogKVYlvEa5ebDzEqLHM3wWU65yt5VSYqSwQmkQRniWdOCsZnTS8Z0dJ19s87MrrGkS8Gw7cqXBCqEgNUCF3ZJlrfoHt1hvH/A1nTClTzjobLkQe/ZtkKaOMI4Zbbe4e72kLdHG7wV73CLHU7UUclNOP4W6Zs32DiYcLH07Ihhw1kG1uKMoUocs37KUb/Hieu3xjoW36TFkdZ5TF1Jm+CsrkFDaWpjWlF0T+EPBG4JJK3Sl7TU/5PmUY+eArmacyAQsQd8hcAddsnjf6O+95tMnvo5XnvSyZsKu+V7BIicplcN7krPWK5yVpjfN4TW84HyPeQs7qc+Bx97FIafyeR//cmOij6Er6fULlvFxLskd87ZHJzp0GqraCJnOd595yEQ4ke1rH+YBY9yh4TFuWXs2kbNxg8E2VvRNBlVYPP8KFJp1TJeebsvD79yVdce7AXZoHIJy1GHw7pmb+E5qT1bZUUPxdXCyCo7XcsMy6IfsbSe3D2Edw8Qtl5mmXkOnIU8x+UeU3ik8lwsM/pVxXpZ0llkJJM5cXpMJzmiN97kcLDFlG0WrLcwwRrlBMsRTo5Ip7v07u0x3jtk83jKhfmSB+qaSwY2XONJnw0Sjtf77G2OuDHe5Ea6wz0e4IR1cn+IPfoWvbtvsnl0zKVlyWVr2LKWoRi6RpDYMosd+0nKXtLjiG6rX6ZUFINaTy6G+a0dXdxyJCfnJUjsu8e8SxppxJUzd7gfGPfUETy/24wm/LmbUrQP+yqZ/rOHfxc+9B/gwieFUdHAgqP3rlRafaXz1inyXoSh87Z9hlNJVvluFGE3fBKprsJsx6q+fFO+9p/9l+jkGl5yxWgQwZ8OYeB+h9XzTqvS7J0rZXfltI122lfQ7AHKyQe5w8Mc4ojPiJcMgY+3MEb7Rz45JsBb7SteSVRb1RZycwLceaXDa7ee4+FffCp0fui1OrZkG109Lkt2l0t265qNHMTX2NrQsYGNY2GJkBlL1jVUpg9ykaL7GOERYbmecLDYxx5N0YM51UlGtiy5nBWMlzndyZLtowWuN6U7mjEiY98WHLmKKRmZtAESjok4JKn26R4fMN4/YuNoytY0Yysr2FBlEFskjjnpxeyt97mzs87dtW3uukvc4wInjCk4QRZv0t2/wcbRMZfLkiuqXHaWtcjSoVFrKVLHYZpwx/a4K30O6MqMtJuH/Eqlx8/4xVc+pW/99pM6yRw7u7xLGuddxcHK1N6eW3wVsIs+9CW4dL0pZc7nkitgYxfD06M+L+0gjBdg81Mj+Pe60+F8Xv+Ok+L03/ulYbUV1EN4X3PuswC5+SnYexj8yMhLZqSMtkhNEjpOKo3J44jMNGOjVZCciibrOX6INFqzpl2J5jSq9UzN3F8bav7iiAWOW+eGRyvxsfIHcnLcA65L48JdtM/6qMIOM7q8Bbxs4I1jRzh+nAe/9pf0w8+MfGz+VbE1mE+ygnuzguvLikFZYrwwwmELYTAvuCjzBkpTCzqyGFFOzEWWnSco4oJ5t4eYu9TBs/Ql01qYFJ5LlbJZBzpFzVbWEJZ2QuCoKDnqzpgmfRZRTKUByiVxPiddTOgfTVmbzNnIS8Ya6DRDC/JBzPGow+76gNub69wdbLMXX+SIi0zZYkGOn71C9+R1xsd3ubRY8rAqV2LLVuIYOksaFIkN2Sjh7rjHjXjMXcYcksRzzzPFZPLT9c3P/XQ4+I0LfPXaZe5i2OC7u9i+795VQPzyd9N2aCAbDUmoNVp7L7bi2RNIi349XW8tsuQ9c6s2lQ8ipw2k71iRuN99EG5vwlOp8GJnwOMba7recbV0yWcpc0mZRRE5ppmah9VwwZyyCs1ZKtieInJKY1xNYoUS/Bdjin/gqLbgziW076F7E7GT5vP4ow8OPU0jasUmmAPXNJBQsMZdunwDeDlAjGGx3ucL7of0o7/0V7T69SuV25gvlobDzHPjaMZwltMPEKkhCYFO4bFSoApeG/8/0zE4C4eySTDPUfa2mZtr1KmwiIVpNOdkXnCc11wpAxf/f+beO9b27Lrv+6y9f+3021+d12Y4hZwZsQ7FEUWNElKKugUnjh0nSGIkQgAjSAI4zUFgx4YlxBEcJ4gNW0kAJbCsMLYiyyoO6KhRJEVyWKb3N6/Na7effn5l75U/9u+ce+6bGXEoUwYfcPHaLafstVf7lrJinZwVhFWFzbxk2B4zaqRMY0upCnkZID6jGa3RjM6spEWg7VZRzH4j5vZKg7fWu7y1vsGd3gl2oprTTpuqGuOHL5HuvcLK4S1OjQacLxwXIsNJG7GSWFqRJQKqZkJ/tcPt9Q1uJVvscIIBpNOyOFu+dev7/K/97A+w2hkjpHwK4UStLhP9cd4eE0TltPxWkVTDVzULBZGpFyT3EXz4WKh6CEvZ4x595HvDTpf6jnDXH9U47x4gN2s6364RfqkFf/2+jj52bVLuNHRyJ6I/tRwSMRWD90fqdYKpFcWD7KgRj6lndlbmUDGLXZbm10NDiWX6AOw+jLzlwRh07Tlk9TtDE5QjGP3FOqMYhvS4QsYbBu76gNj4OKLn9m+wsfYlrvw/PyvRk/8TFFSbzzKOm+w0bnL71k7oQ6LAw2+qkhQl1Dq5RiFeg3hFA2ZJ7mdoV3HtNtO4Q6lvUGbb5JM+k8mY4SCnP6o4XcGJPGetLOkNJqwmEXkSURgTDIgqF0CipSP2ilqhbMYcthL2uwm3Ow1utDrcaq1zt32G/eQ0A9YY06NiRjS+Rmv3VXrbtznTH3JpVnFB4HQcsZrENK0liyNoxIw6HXbap9hunGPXnGLIFjNc6Wx54Nvnt7XFRB8e7vBhTklGRFqXw+0/UeyDqWlVmyEUEwlKgivAL9bxkSK1ZOJRpfJOwaGLfuNoH1H7N9YfS/5d8g5j3poBs4vw68Df/Mi6PjzdrW7NmEVjRnsVo5Ejx6A+yItaDQINhmB7ZWU+gAo2L5EYIrHEWCIEiw8ZJz0x4wwldzpwZQX+mYHhBjx5zCDpX4SbHtX328qxSnQqwusqvOwdKxQ8+h+M+cgPXZbe+V+HlV8X1p4TErFk2O4Z6E6ZMWMwHjMYTZiIoVML5SWqdIsKkZzIDElEiBHiRkQcw65pM6LDLPkoxYkt3MZlqvwWs9Eeg50++7sT9oY5h5OSM9MZm2OlLeH1TBaobF0ocuRJxLiZst9L2F3vcHezw+3VLnfiNXY5xaGcZ8IGOVOq/BrReJfO3hus721zqj/l/MRxEeFsbFnPYppxRKKGOLKUnYzxaofD5hpDu8aMrJYpTWcmbn3ZXnzidfefHfxXyltPwc2fhmsPwdMN5R+2kMl6Lbb0ncU+hMvtIxzJB7aPpGyWbKZtPwiD+yOqhVmsQfTIo7Fe3cxljo6yR1iE+hqq+K7lS8QNlMeOajx5uAGb+Pg5yvQyRdonn8yoXDB7tw6ihZ/FcgBIPasSYhUShESEBK0xTCDN03354E+PNZ7AjboYvGrg49/RLeHbn60RmCmqDPmezVd59M9+Tbof/4bQfsbgXg68gKEmHJIypIUjywxRI8YXEZUPgoHUZpGJh67zxOOczA1o5kp73dNZHdM2W2xzgn3ZYmQvUdmUcbJGYXYY+Vscxjvs9gbcGU+41ofNUUGvdDSdI/FB3Z1IgsB1FjFrJQy7GYe9JvsrXfY66xykGxyywZBTzNisIaE3SUav0t25w8m9Hc72h1yYOs6p4VRqWGlYmmlEYiyRAxMHCdOiGVEmwTQ+YZeMkpKeQmuKxG+JrOBo/45y/8izc05JmsLvfVh546maXf6dXPDOjfF+tD6QzXDZeQkK17VvjL6IDL+KaI51GoZCywXTXFx/6TBYPRq/qoATg8PWO7oIXUg33OtR+Eu/Dtsfhi+U8CvAwx/891UVLffw9jbOjqnEBGMcH5aHdh4gEkxfbN2k29pEMSJIqqRAgqtVtB0mWt2VzQdu6H1fOsnpfpOPiOX0ENpLxPp/wdz8jt8i8mgBfPwfP8/3f/hvikl+w7Jto+lln8wmmpYlDTel4Ue0GNCxA3qDMeuV0hJDbEGsQaOAGjUOEoW48mSTgtQNaRil5QtayZgsHhBlBxCdYsRpCi5RNA+ZNF9itPUGh7M77A4PubUzoncwpTsu6JSOhg/oWk0iyixm1s6YdDJGvSajdo9hY4NxdIoJZ5hykoIU7+4SD6/SOLxKd/8WJwYHnB9PuUsvc0EAACAASURBVDQruaDCiThiJbOkjeCtOH+/1JjgdFUUZH6PVTNj6hMiGjRtl1HaYtJoMqNDQXe7pPnPKs6o4we8I/uLyu8+pPzCmh7ZgTW/A1ssqVNFmxqaFFrKAUHu/XL9aV+H8i6myDGlw/qA9DALZZ0Ah7p3KzGvUFQknGnsPUFyTCeoPjs/coDc2YdijP7K8mFT1IKzwcbAw2KKFUa4oVW3phbpMsFRFLSWuYQYXwv+TIlIMLSuCSe+IslrXd3KH+bJqE12/TsSHH9kkDSAD/7ZGQ//5P8ipvi85TaZ23Wt6R3aw3260xndWU43n9Irp3S1oFPmrOYlGyq0a7MgrFmY0IgPM5ao8tgqJ608zVFOqzkkae1iV3bRzhB4kAGnyQUcHar4BLlRpmQMGNJoT2iUMxq+IMURGQEbU9mUImmRp21mjQ6zrMMsWqFgg4p1HGu4/Hmi/AXS2zdYvb7Dqf6Yc1XJJYTzkeF0Yug2LHFmiGKLmHn/WNcLk5JmOWBTR3hvaGM4sAn9rMWw22EQrzKKTjDGM0HclCY5Zynp/GHJmZMVvzDVMAg5UZdDre9cFVBr/nAd2EZoAOfgpz8wgkFb+lOY5JhZiXUOS20LMQ8M1XudIBfgdy8GZ4J4X0AZzjPIO3HSJxH0b8DeFxBeO/oUP0Fjj48M3phgzL6ko2hUsLW3nhVfG7OEes8SavXUO1JyEsa1tEp2XVj9Ms2dB3hk5yIJbe4SLgj5Y8ZDTs6EKY4KIUZpaWjWwZyZafPxN2n84D+Vj1z4VZP/1lfjfU9rmtObTlmfDtiYjtjIC9aLitWiYKUs6XhHpo4MTzOCLBISB4nxRGLCBaGC9UGSNHZKUjgak4JsOCbKDon7B9juHlFvG9Nbp68zptKm4iKVbVB1Dsg7I0Y1SjgmJ6KsE32EJ6WiRUWPkg1Kevc7Gicd0ZjDl1+W534jt5M3aaUDNocTzu7OOJ97zhvLuTTmlE1YM0Jq6pG8n4/eFXESlD2qgp7m2MrRccoJYBglDLIRg9mI/nRMPx1zmPQ5bKzQT7sMaTEi/saEM9+Y8cuXKp59FC5/P7yM6guXKLW1kHf/dgTL5N5h5PJ/JPVkIINxAt/cgcEQM55hy4q4dEReF24Dc9yH0aPlNfMFtghqDZWJqEioiHGLAHFvx6NEn3dw9ZvwzbtQC5GqCPrGz1mXqnNphLMWL0EaBA0IXltLjdq6wVTjayOdIBEUe0/qSlKdksiolpCJ7widl+lxyKM4WsBXgIM/9lBX2WWfr8nTeie7QcNepJl/VOJySxXhvgdv89DDvya0/4Etx5eT0Tbd0ZTNw4JTw4Kz05JTZcnJyrPllDXn6agno4YsGBPwPVXNQqvAGL/YAZlazhIXsmcyU+JBRSRKkg2IVw5JzB6m0UVNhyrawHFFlJHxRFqSqaNFQduEJlN9oKA5oIyUMvPsec9w09F+yqu8D7n7tNx5/Y346q28vZ+zaYTzXrjkhYvGciZN2CSiZyCT4BUipcO4cHi0ZsIYHwI8qpRW6dh0PoiwRZ5pqoymjuGooN+csNfus80KO9Ea23aFHbrsowjn3pyhU6Vbekm8lxc+qU15P+hKmCF/G+ozuhxRSf17Wo92T6K1JI1WPueLO0hWYhoFkXHE3hNLOIthx6E1/8gc7Ufq3YgVEGNw1tYBktaAzKj+Gj2+iIxeVrj1DOw/g/w46H+Iyk8h6u+c0ix5yycWV9uB+bn9MPfo8i6MK8N3th6SypEVJVk0I4knRJJgaaqQvi4RA12hYvWPCVYMPSXsorzBhF8+/Tk++5G/C+mf5qnnYv3Aq0/IRVZ48oGXpb3xpXj/4KVse5tuf8aJacG5qedCrpx3yhkfnKfXxNC2htgYVDylKKV4nPgA3Velmm9s5YhuIku8L+MUU4WGe7UKvnbTZMa4HDBZ7TJZ2ad0X0715q/dr9MPJ/SeGlZb37eC2XxAaDtovwnl12G3KZPbP8rg5iPM3uzg/k5bu3zS73NV+t/3+eiyuOzKlN40ZiPJOJEmbGUJq1FEKzbYxOBiQ24DdH/h/DW3iPOC1EEdttBChCEmmF36WYmvlKKoGE9zDiYTdvIpt6YTbnZGZK01jKyinEXZuF1xwVZ00ZVf8vrDEyWffUB+U7u8IOZds4VZUp7Zrte7eQr+Q0j1PpSk3qR1mG+g1UXwO395XT/+55DVcBlHcSB8xVaCsKGt3bWOGoUjStT87FuDMxGlhABxtemDUpZK6fDOL9qeyNSogCboYyiP1OOsVrxKGr3lU0tlDZU4qgV48V7L46W1va8zSOlI84pGnJPGU2JaGKK6lvyJsbinCy3vhBbv26Xeap11ngdeRNjtRXASHlt5RtJTv6iPf6iv/8rdT8naiWdsaW43Doesbg85uTfj/NjxPgcXxXLWGDZtRC+KyOIg85MnQXp2iqfwjkpdTf7yOPWBdSpmoWo/H8saDzZyeCKmhZJ7jx1XNG9XdGc5rdSRrsyY6inrd3+6459jhYZd4ScbH9LGwZPKwAv3fVPpfh3fOccL4z8nL/Og9OMG5t+z+onyAgezL8rrd/aj22OX3S1pG+h1Y5qZYBsRRTNh0EgoGjFpGhHHtdDfQmTjCBIejI+CfJ4kQSon8rWXX6U08pJOUbE2yVkfzdiYFqxNc7p+irUlmiQ4u4GywoSNOyqF+O7PRPLYjuGw6vC8f5gXXALLxu/e13pRsiBD7yJ8Q4SrCsNzUF6A4mR9TupuSX0omt1fDme86RDjsWqDGLgIsREic2TqtLxBXzTqtSGqM4bSWEoiylpf0QfFhQ0YrTF1CXeAF1Zqiu88ooOF4E0A2llJI8UflEElUSpKD5UPzME5g1Xrxn/eEAUiCkTOkxYVqatItKp3JW3gJFL9yB09WO3z4v8Jr9bIqfVvc9aR1a3hAcpW7viZHfjYhcs89KnL8miyK6s3viIHV17MDie3V3dKzgwqLk0dl/KKiyKcioRVY4gimGbCoGGZNGOGWcTIClM8uXdU3lFpRYULAVKXoAue8zxACNI5JIZyZphVjon3HBhlTERl2igXEHOxNKd6h0qB9k6PSM58Q5gVwdGidRkSkAsHnBm9JByqTEYtTT5RyUPnv8CNZ79ibvyTPWNedBL18XHEtJXS72XY1SaTdkaWJURpTJzGtSPvEj97cVJqcuW8GlDqcsuT5Y72rKJXODql0gRsVdFVJfKe2FdQKrKeIJ2MiFPs0auGXLyh8lOmar0e6f1X7vP3jS/CNDkipPtC6d9iRw/Yoa13iOUGwpAOL7R7XHvM4s7CzjpMMo4k/PfCbTir67WDXeTX/oqYYltjo6QCDTE0jaURGRJra3H1eqSrNee6PrMIlBYKKxQSTFUdReIpHtBq74f17guf4Yo9w40nU319FYnmr15MiWUb+O2QQVp3sA18o6CKhxSmJHeeUj1OQ5bw4usNSHgAC4aWKpFzJFVF5koSqroHaSFsIu79t+U62/q3fxMOY+R0gV4cginfe4CsAU2EFpbtO5ucuQyf/qmGrjw+NbLzDVPeej3e98P2XtE/0XdcLIRH1HAhsmxZoZVafBqxn8UMmin7rZT9Vka/kTCKDLloECNTV39UeFydXu8du9VGpk5hWuFmJVXhKZxnYg39doth4zyORxDzQGm2elfZcIkam6s1V4Tk9XrXOqhL8R1Otf4PthpbqCaIVhrHY058YM9eur1rTOJd6w5j69ldbVCuN9lfa5C1EuLEYhODiYOHpIgsuDxHW7KlArkG/Bnng2/JNKc1cqyMHOvOsemFNa90c0NL4XTlwQum0cA2m8S2iZDhyXCcu6aSp2518oDc/9LHlN/pkK3BegJdmWJ2XyGqvsI+BU9vVvr6SsJk+ASvt57kzgNrFKdEBikctIDNuj6ZALdRJrVsEMjGmtrDPZLSkyG0jNCyhqaNSCN7ZO4033v4kIU8ijNKbmEWQS5KRYGj3/BMzmvx1R/RL/21T+uVT8zk5ffHXF4LfqQYBqxymxXeIOVpAdQ2D5W2eDvRMorIrTArlNJ5nPN47/H1jVqzzDlSWVGs96EPcSUpBXEtIRNWiL0Z+Qcn/P5fQnkR3C0YXQZ77b1PswJ/WTjNKk+NfxTHQ2x+8Oeg85wc3tqL9/b2mncHrPUnnM5LLnrh/jjmdGzJEoNrxgw7KTvdBrezBreTFttpm37aYBLFlLUXSHiODq+upg/XiB5dKjJlPikSaCpaKL5UnLeUJiHPVplmZ3GcxdDUyDLz1s7qb5FLLY++ZGHsMfIGxr5xDJzaPYV54CmkdxF3uM3UjfENz6xtSTsxcSrYyIP1SORqEKlhyXL3KEjmP80L6g24AlOOiRuHNNJDurFjM3aczuGch7OibKmnXZScGs9gOEbSA2i2yBPLjIScJhUrd9VuvKarfFO5tcHJW10ew3CGDMP72SDjEfOrFB/6n3nuHNyY/hlevVZxJXkSmhvQsaErfKBuULMa+DUB1VjKt0rTaBH3TZgyitAylmZkySJLbOcXQ/20lzlNBopImCXCNJZwCVLhGGWe8qTK188zBl5MM57twNV6iY9lSos9seyS4zUH0U4bWRt5HVHamJk1R15wzpHULvdHUlw6V5pHJZjMpM7R8CUZeZ1FAmZJtFWJ6Y7gQ6FDfKEFTwzQ6Nq7MibfNUp6WxmPXzpD+sUnVM991ABm2ifZ79M5HLExyjmjcJ81nI4jVhKhaFoG3YTt9Q7XN1a5mnS5rV32TJexNCkkqfeytfc7Hr8QW9V3oAfLkTSQtzXLMtw8XiK8iTEmJuOQVA+P3rSlbCQq78I7PoJHALBlkM1zGH8SoyUeTyGCN4ZCFKECqVDKWt1DliDob+c2KxbVFK8VqocYdomKO2QHt9g7OGRwWFJNBeuEVJV152gXBSfHE0gH5NEe+4nhgB4DGuS0Kx+t7fszzWv8KfYZ0eYkhg0SMZzlBG0uMtGyc4u97rMyTb/B9vYlveIeAVkLQdFyATHUFZja2uAAOPQih1gbtPkzD02BljE0rSWNDLG1tfpnLfNTU2wNwauwiIVpYpglhtxILU01SVRHPaphTBu4mqGv2aCVFYUmuY1yH3fxvMRNvsi/w58+8Qckp0eOIWV0i6kVJl6ZaSgdEu+JFm+04uVIKkK9YL0hrYJRS5OSjJIIh6GB+NUB4ztXhOuXwd0HccrULiEu3+uvFphzd0k+/AXR/+KvwujvC0Mi3aU5G7E6zdnKC04Yw3oU04wFUsu4k7C92eb6yhZXWme5IV32MUwpUAY1gUSWXBmW4GxHpOPjB3w+27PyDkzPI+0hxNc2db5m7tSml97U8/p3nkqoLEGmI1k2PV8sbcPf5iIZfukxyzuUhce0PxYSaiXrlOkK46hDZa9ScUBkCtKxJ80dpgqW6I3plLXZkK0yYq12P84kZiKpdY1ewz/aSP2/jupXF/SQ8ABmdHhTPyLVrZi95j/S7XLM4fhTYLbCSC3fhf6ucquCfgP2TsC0F1gLlxV2MIyJnafhlZYJlXZmTIDRmCAaEvqPWgPLQ6TBI6VKYvI0ZprEzCSiQHBaWD8bZvrmJOKbwLUlvZPoPHCXNiMyLmMZc8DPcT+DU9c0ed9Vzx3KKGNqDSNVxh5y58lcsAJbDhCdo8UErAqpg6bztKqCLJmRMMGSIdrck2p6GbZvwOoJMCm9Vtg5fFvQ9q0hPPEafN+vw8c/KwyMYZ9ED2hVM9aqis2qYj2O6ERgEmHWsBy2U+6sdbjWPskNPc9OqeSzW0T5LdpuRNtamiYiMybM1+89rMdC5F7a2HJQLNHc5u+WDyagoS84ChDxZkkV8N6fV7+uZm5KWX+ZWRJmXvzuF4/xnelAcuwxBl0Bh1NDLimjqMNhusZhdorZasWed2Qc0MwLsklFVIG10Clz2vmEtdywmhu6cYNG1CYh0SpZkepEJ5LHiDSvEeo5c+/zmMu6yey57+HG9YK3hp79kx8Huxb8vQd3YPBFuLUL8gDkn4S8F5Yqm4gMsDIk8QGa01SlIYT3ygTvTJ3r6NTcJeOVWIQyDgEyixOmJmZGRIGhorB+Oor1lYnlF+AYrTh6qoa4bBPp11nlFh8CVih7n4PW51U6VGnGLI6C4of3TLzS9GE34BWMLB0ZCQt9q5A6pZk7mpOcph+RZPu1H1xyl8xe4dS5PnzAc+EObD2DlO953FsPek+9Ak8+DZ94RTgBeuit7JMxoO1L1lTZQFk10EgsNCJmjYhBmrIb9bjDGrsuYbJ3jfjui6zcvsWpIudEI6PbyGilEam1x0ntc4ZaLVK2oBzPJ1r3UtqOTZGWJn3LC4F6qhQGL3KP4MD8dV3mWocgebvbsi6x5I7KuOP6afOSrg4Q59CqwilMIst+u8HNrVWku85Ousp47YAdP6B5UNL0BU21tCWioRWNqqA3mbBqY3rtMc0oJ2G1zEkPJV7v633YQEcX+IrWVRMEPaHxCpvjj4sFna53uTOXPh8pbL+sTD4L1X8ZBIimKP9clP9RRCZYMyFVR1OFFtAUIbGGqPay9+IXJL15YWPFUMW1GHkdHDmGAqXSSaTVYcZobNklkLQXAXJ/PY9uGvjSRpN0swEvCjebT7HG76qkN6o4crPYMhZhSMgiXT+X+lkqJOSoDzFA7JVGUYUAkRGNdI9EOhTR+qg6F70sf615RX/vxMfZH/Vo+G+HqaZhOJy+BBsvwHrwbSj6WL9PMh3SrkpWvLJKaPvSOEji5M2YUdrgUFc4oMW46ON3LtO68SZbN/e4UMDZbouVToNmIyGL7FFFw1HTd3Q/y0JF4zim7ChAFn6OyzGzUN446kGO5yA5Gt4vfs7RA1FZOvzCsRJw8fcl3N2idF0KECAESOnw3jO1sDuLSJMJhVGmzXPkrQ0mxQEH0QF7lKwLbImypp52Gd7brpnSaQRGfUpSTmjdFbn/iqwyVD25RedOaCHaS08vJsGG4b68rxAtx3C1LUxmXRg9CfkDUNyPuZWqf7H+on3MpCDRkqYR2iK0DGQm7EGW15JhcKdHDFgj+DgiT2KmktRDBUMVhFSs94ep6tjy6BFoOATIvH+TCDgJ+XkRfgyeNh/Vx/i01+KzLtZhboWxFYZOGPvaP8XN6be6uJnC7Rb+zfqgTNjMc9rZhBYDmuQUMVSnzZ7+xM7v6Km3HvN/5+VTRDfCyPG9//IwrODAwiRSHDK8igzvkuwPaU5LOk5rj9CgmOhiQ96ImGQZE9smR/HVbdLDO6weDDg9KbgPw1lf0fYVqRNSXC0Jvyx3pPfomMqxQDhW0MjxRCJvUxQ4OrDH/m/RtB9fzC7UOhZfrseCbnFRLUWG3gt5kqXSbL5NLx3lzNPxFZpGDGTGIFFm0TreHFLIHhOZMBZlUi9RtayIUZpRQdsFgYuM1Ce07s44+4rw776CvH5OzZ1Ezr4DC1FqH8Dzh0j6KpSF0dc3tuDiZwTxSGWINzLNXwzPaCfHTiuySmjbiF6ktI2QGILq59y3Zv7+eAGnqKuF4pOIcZIyNk2mNCiI6rlkafATiy/kbciOaA75UzsO0tztJlwwfN2ckh/ixzUa/1aV6XCWWMbWMBBl5KGcO/l4MHNAnBi80aND4R1xoTTygrab0WVMi5ypKEXacO7Eym+4H/p6yeQvPkKTmB6teoVq3sMmpAl7D8DrkfLgNsxeZ3wd+kOi8YyscrRQWiLBfFQkQGZiSxEn5JJR4sD3ScsxvcqzYYVNa1lLLVlqiBMhscH73ddzdK+LFekxlrS8i2iZwD0H+J2Ia/XS7lgwLWeQ4xChY4Z7yxlK3mHqpe+AB5wHiNSYMls3+c7Tcsq0gDuVcFcNh6RMtYvXhMJDjpLXhpneVUHeqHQ0gjAoGaIxZmrpXRc+8xK++n78l1r07sFm9YCtGmntxrD7VciGhuSTbbm20WbUCvTc/CLwy+FrDkuiqaNRQMdYulZpW0NiA7ghuA4sGLjgFa0X8U6EIo0ZNxqMbIsZbUpSHA6PGvVljK/MOweIcIjwGrgtsBdgJeVrtsN9/BR7B/+taye38v2McRSFAHFKWUem8VKXx3JUA9t6tOYdcelozpSum9FlQocZQzxTWpRcQOL8WfkMn9WKS2R8AMuF9xgg67D7Yfjq43DmOow+p+U+UiqRd/WGVchEiGtYSEA3SP1hcPW/WIEssrSzmFYS0WjHRJ0Yk1jEzF/0cDO5egeiS60wyNsyxbvAVPmjZf/uEfBaZoEeEzmoJzQiR62JLGWgt+kwy7HvtcDOicGIAbWYqSNVaESG1TiiZ2PaEtMgpiJGKsGVFYWJKNRTeofz4WKMFTKEDK2hfx5LUhjO7Yts5OqWhmjzWu808MGa/1kCV4GDGXI3h/0IRj2EJjqX+9G/jnlmW+NxRauALoaeIQRIPbyoTD3OJQTGInsoVGKYZTHjZoNx1GFKj4ImjgKvUayVZlo58zavmogaxBtLGb6VFaSFfNVGCpBMT2i793yZDphEMQNTMfDKtPKUlcdVPhBw5kZwZh7CHnEBctI0SreY0SvGdJIBDRkywmI4hXBQsvJDfyhcKeH1+947KksyOMzg14DOBThPeDWCtH0ExBJ4KaYmdIVD58PkZrHlsGAsJjJE9YdNbAiOxIA5UpA8JpCs1FTNpTP5JyFXf2wDfk881UoyIsGa++1ZQpeC455MJlI7ggXDGa0UsUJsLXEUEUUxkcRYbKjAfbCfZlko3wdXY6taU458bYjpMEgkmEysM5Jy9MLNJ6iuDoz5hwNcG4p1cCt1agnDdvX/6ffKePfLtihIJ45WpXSNoWugGQlxJIit3RlkCb3rw+8eYWaFYRzTTzKGMs8gScggWiVa9ltUM/s2EnEUuGArbNjHFNMQ4ghtQD2AUM6cUISSQ6ZRxNAKA+cZOce0rGjEkBjBm6A1ZJbpKTXkJCuUTl6wMp3Q45Bmuk/CKhPWEFZL4WNDJS/h9W/z5Mx3+A8M4CJi30SYLSDOhqXgmEOgvcP4EqsVQhMkw9sYF9lgcDSXWJ2LdM8XzvPg0DBC1PkUaJ44Rb61Ut8fraz8boTht3/+gvi2HBT3iDDr8T/IPeQMUfBiat3DoOjuahxmFVvKKKaUtB4aB5MZu6A5mMVqVJVamtbVNVSFUqG4DCYbRIOUlTkca+kh3ayRvPPg2Qde3kBfPYscriILNO8a7JY7pswD5yZXul7pGaFjhEYU8HRiFTVaB/ySRptCZSG3lkMbc2gyhjSYkVHh8ExR3cl09lyHat8s096PAqRDwhPRJv9RE36vh77SYTH9L8+cVho4fZVZahgl0J95Bt4xqiqaJYi1QWl7joExtRWvBNJK6jytvKI3nbIS92mne6RkWDaArBDWtqG9H8wn3jOudwRb+/BDM/j4i2ARexuxRUCqvs3MPfQSxlVEVYnVPKzWJMVHcUAs16XU0VJPQsM7t5db0ihbdCK6nEG+RQ45VibJeyq53qYfpe9wR8yHV+9EUFriWSy3SMd9MQSDp8JD7VBcRAmVpLj6ejfqghX4UpCYmgUusKQNMn/APlJmLeKZ4VL9Q98EbteBsV+TBdMaTT4EXmjAtTm8ZAM+tun4t99/yM6XRmb6MunI0Z5Zut7QtZZOJGSJwUZHO6L5ZWAJ+w8DVJFhGEfsm5RDGoxokBNRsW+UN61yZUXd05lqMzyZ4dItFbk6ut9n4ckO+tom8kpvsUOWF89/Wj/Z/B+cc1K00EkuDAo4VM+wquhWwVDZRGCwC21UrTOKoEQKjcLRmxasNEZ0OKBBr2YBp7mw8U1l5RyeSVjJ69u5A7KgsMhi5sfK1+DRy3DyRWEGNkPsCOacgCUFvQXqtnLYqiTSon49U7yNqaIQIH5Jqr7Gfy5q/rpyPEbpvHcXoe81ON7NH0U48vU7lnX0nn5iuabXo55F36H51+MNkiyVWPNFp1NPVT+fog6QUsItq1phvMN6JdawBLaE/sUv5a8lWQSUCphajSrhbH3GRsBbgf+ht+vAOE+QfIoIxA6imrl7Bj5xesiP8dvmsDmLd0saw5JOkbBiY3qR0IotSRKwVwt4yRydrIKtaRQutgzSmH2T0afJmAY54LhhlS/cB2+shkczFWLgnIPX6p2DuQpcAb22C3tVQCgTH40B/3bzU4ig8bTrVg3TlmEYKX119IuSaV5SVi4YuOtS/SvhkKoJuSirPJ2yZEUn9BjQZlyb0mRqOIv4cztyyIQ3255XCDD4V4BrNTkq3Dtv1XdQESrXaAdab0IyAIOY4ASjNYe+UsXVtz41aci6UPYFl1NBJEVNEjgCCG4O53+bCLceux/vbZ7f1Q9I7wkO/VY5Ur911rhnaXkkKB5cW7wefcyHC3OhcV3e5dS7Au8D18XhKUQDFNyYGmJKcH1RR6QQa5A5mtOtMUKQp60Lq4UnzMgp2wWuCNliu34fa2Ef2awR2fESq5B14AHgArCJ/qvjy1x8/p/btJimM0N75umVjhWFnjU0I0MSWYyRI+G4+bLVS9BkVChiQ78OkENajGlQYHDsi+dzXeX6KiUNKhXWQZ7Yho/shF109PcEnb4vTEyvnoLXbV1LBui5/LbPALQ7XPUS9YthxPiw4LDy9POSCUo7tpg0qjf0Mn+MIYsYQRwkTumUFSvVjFU/omNGNBkwJULZQHWj8rsm1y+2PDvDIwmkCwTN3jajmiKVAI+HB+kJwOVZsH2pabJehEqFUoOPlKsPsPFCVCmRC1ZjQR0yxZuYSgylQuXB1V7bwQjrntMsx1WQ5Y8S83rXYHg3xJkezw7vRZpC36W1eZd+R+bTrzqrqCrqw0dVw8FnojWQT0IGocTig/5XPRWMjAlKL0ZwBirxtUelx1HiOchVX9vTw3ysT9OTa1QMgRThUsCsLvR5y/rKi3r1G346RNEjX/pD9OYzMZOqWUKvglUNomcdIzSsJTEGN68d/VFzbnyA8jsD09hwmMXs22awryClBON8vur15TXN+HjITwAAIABJREFUT61pRZMuhhNA5zLiJmjZhejnE+AzwPtqoZ4mwi5gQ/lwmAMjle7PPuptgyKbMkoMBzPHQV4xFOiUDlt5Yl0I2eFr6XnEYERJPLQLz8pkxmo6YiXbp5XsMOIEFas4TVQn3suLCF8BPVffMGuL5q6oM8hhfToKyPtwYypcKWADJMJbWytWQK5Q+HDo8bWmV6XEJUQqtYNritqEyloKhEIV5wPXXDyLJvze5aAsT4nm8I730j0dK4v+CFUD/RbiBrpEtoZ3TmH6LqE45ybM9yzOo94vTISmVsnFU4jD1T7iVgLve87es9ZgrEWtUFmhgADbmGcQnQ0ZjV/gBf0Cf8DD2q8rusfpyeNsskK2aM7n5VZ3Xu9n4aFFz37F7A+vJZO+tkvHihdWjdC1hmZsSSMb3IhleWt+xLlHDEUkjLKYg2bGftxhyCoTMinLYsv19ZLf4TSznYwU4UPAG8BrA1gbIE+ARsTAOlKPGsKLeQfYnW9bEG6j8fkPaJq/WKY5k0bO4bhk3zn6hWGldKSVkvrjG4w5AlU0iMk1Kk9vUrBqx6yaA3rJPkM2KehSyZnc2z8/kNErE/3C3RZPPADvH0JxF6YaNlQxUwzP1sGyCtMGXNmCCw1YQ43FxxGltcwIXzZTpQwYQYwL6OXYBXRnhMGYFB8nlNaGN1mh9IGvbb0uxta6JGO5aHyXumLRb4M1LN+yY3lv0653jDyOb+IXsER55ymXDylWVPEG8qgOEOtrrsQE62fBxEMMSZ1FrBGIDC4SisiQy7zuDWWWKiX9dMBX/LP8Lb7BA9yiT8kP8m/p+/mUrJHh6sZ9GIb2enIXGKA/XBXyZJxQTL5sd3Z3stGIbuVZV2HNGNqRIYstUWQwRjCide8YymjjQnnlrWWaWA6zlINGk0PbZcQaM2xczoqL/qXkSf0cp/WC7fJkZTlXv0TTmq1qQKJa41kZIqQLaPYRUbyWYL/51L/GpcHVKp48PWtNdDCYsa/KgfOsVUrL1cJy/vh8Xuf1oQixV5rTilU7Y6MzYpUhfUqmZJTy0L5v//jz2uZ9yiThygc7NK4ZNu6EnFpiOE+XFu26mn0fDB+AKxPl+16Fi8+rvYZrJ+Qjw8QoI+8YO0/uPc4FxyjjaghMzUa2kqJJSpVYZgK595TeBzWQuUEQR3pLyxTrI2eUfwmGpN+y2ronOPSe4JB7A0WOmngfplNqbBh3J5YyMVTq8VWO5FXgqyPENW/d+tDQl5FhFgfbthmGouZderWntM+PMJs8IRGv6Bv89wAk/CgZvhYpCaa5g8CHktOXgS+h//F9z+iPxf+7vHr6arJ7m86gYM3BhjGsRSFA4kiQKEyuRFhQBcSDOI/xATUxzlIO4gYHUYMhGVNSSqXlZvoB/3r6af0bnOOvbk00vrEunZqntbY0Dop+sITiau1nnR6lbS/QN3BtBZxDfnfzk5x88FWfvvjNordfDg/GHMiMPYUNB6te8S4oIglh7b9wAarfv0iVRl6xEgkbxYxNN6YvI8Ymp5D1Pdf94Bfd48N1SE6Tn2jz+20oNmF8AMVeRPNuB9k9h+MkMfcTlw8xHXZ41lzikxd/Vfd/+fGqk74+O4ymI6P0cfS9Z+KUsvLElWIsRD6oPSYURCajSmPKxJBL4KGX3hP7YD3nNYyr9R0v6m9H+OlPOkjmtaC8vfdZBLccGwUvdMy8EqkJOHYb4+KE0lgqV+KnU8y0DIEhQlRz00WVygizNGKUJQxtyoSEHJUqhNY5pf89XBo+yH9Ch6f5W3yeawzZYIghY26aU/IWTg4xap6N4WeExx/+36TY/F+j6YTGsKI386xj2LTCamRoxkIUCVpTaRZ4QA1EPXGgYiiymEGryX7c4pA2I5Jaidq1/Xj4kN6cfAB+7Cx7l6uay2cWJk6LPchjDnGvQjUETertmocyhZsnYNSE7QP4vVdP8/7v/TQPp3+3irvldHtAP5qx54RDD7kLRCmji9V1qNlNOEjGg3VhJ9KbOTbGOVvJiMPGAYNkhal08qJz8Xn5hH2Ev2QKPrsHgy149RHE7aLmLYu8gp7YPSfwUe7jFGfaLa4/LPIP8vsUIG8/pd3ZqEj2r46s8/vi2FOl7zwbpadZeGITyF4pMzImxKaNa1iqDHIzDxC3oBRrrcSvx7pu4bvuly7jt979k3SZb1KPgK0TUgzGRBib4iQL9mt+DNMRdlYSeyURiGs9AhUhjw3DTsJhr0k/6TCmTY43FePTXu5c1FP/cJ2PnWqScl4K/gyesT5LxiqpbhGkY77AvrzAFCcN6ZRrQKx3/+AqkzWSwR3asymrTtiIItYiQzeNSGODsfNxuNR2hWF0bmpOUWWFaSvhcLXFfqNHnxXGZBSA05223/naJa690hNydH8SyWjprV0mAEUfV5BXwF+GkQkiEuUEyvfBpAmpDY37Cy7jc7ce9x9vNVzj9HDWGDPIJuzNKg4UJo4an6VHsOP53N3MDU6CF32z9KyOC7biMYfJPgd0GdHx0ySdlRcuvOb/fP8b2vj9FX6rtSkvtyK+2oRXmpb/N434nirRR97syfcftrCJ4Xob7irCl5RB8ff05OzLRRxdH6fq92PPTg77LgifdKUK4gpVSexyYgoiA9qIqTLDzHgKdZQuqJlEPsKrX0yq9NtqEr77IkgJAg4qSyQrDVrLiRiwMZgETwNHjPMFzKbYabGwYoh8aOhKA7PYst/I2G+26NNlQpuCMnKMV725vs4aMckdU2NUm7SBpx+A3z8vVC1wlbJ3p6A6yOldifjRT094+b+7Jf7yzfjuq7T6+6zMcjYUNqLa1ySxxJFdiOApiplvz2vjJhVhlkT0mxn7nTYH8SpDNphhqdxt/N7T6/rql1b0TtcKD4K/8+6mWdEP1FJ73oUZ0ddrwSzJQQqQNnAJXjppeaa1xV95tOPTwXaeTBi1+uz7EfteGFTKtHCURmspIQ0bbQk6vmJC4BggcZ72pGQzHdP3u+zRoc8ZRkAR2Tf8w+u/zE/n1o/MZ3irt8akKzKw6EBSua0vUdhY15/+iBxwlmsSc6cecvVbW8q45yJrpm3hcAQ7M9h2nhPTkrUqiBzrNEbynKiqEBOjzQZlMyKf9yBaa2Cpx6tZEMKOh4R+94aIvIcp2BzNWwtOWLGYusQKCiUpzoPOSmRSEk1LkllFhMV5z8gKozjmrm2yS5cBzRq+gThIw7CYiWaqXBKkrUICsncC7j4AL64ShrDra8p2i4MrLf3MTz3Dww/+vLlycD0bOnqDKZtFyQlr2IgieklEI6mb8zlAtt4phKFKuIiL2DJMY3aTBntRl75ZZ8IGBfvi+l/Y0K89s8YfnB+x/b2VcgDtt9DWC++shxCdCcoaeEYUVFhihjQgyZiIUCRhYFRsepA+dy8+pie4XCUvM+026Fc5+zPPvlcGRUVPDA0xqAkThgUJzsz3IqHmbRaOtfGMrcEBe9LmINmhH3XIJdrVrPGb+uClNt8/vqj/1+qHoVGC2RO5dKCTB1/j8yd/n1T/gp45+H7ZnW2wM0lg27B3eoMqWnWplXzNMhxH7E6U2xNlIy9ZKSqarsI1wAwnmEaBaUR406CMkhAgqhQ+qCi6uZbSkkPeMuJKv0uiQRbN9xE27Bhy9h6CiixpY0ptW2HFYGyE2gQnGY4E1SkyK7CTgmhSEuUlWJigDFLLbiPlhu2wwwpDmjV8wyQeXVH8CaBNhGGtlvwfAsMERg14vhFm78lGi0JbCuhHT/6i8Pw/Ttwd2uWM9bzkhFe2YmEtsrTjiDQyGGOONL4WWTDsrlShjC0HzZS7SYtd0+GQLlOaVFxV3/9v7ueVtfN87S8Y6XdUNyo4ad/RI3SOxVIwh4h9gdjcZmpi/eb0EZrpQ9xMUhnMtcC1BLkh/5SH+Dd4zDeq54tezDhPONCKba9s5RUrdS0bxxYjto7KsMjwteiA8UpaeXqTnK29IYfVLvsbNzmIMmacCFKQ2X2vVh8svuyevHRWf6WzD/aKKFeE3ZEOZjvywvV/wv7LY51ef5KD6H7YTbn96IaOzp7Wlm1VcSOfjCv2pxU3q4pOXtEsHJtjxZkKs9rCpjNIwEcpXiMKNcyAGUqpAbzn9WhlEP6g99Bhv0uCROYl1FJTLm/PHMfxWHMcVihTiCzOxlSSBUFnP0OmU+wox05LTOEoM8t+LPQ7CTdXOlxPV9lmlSFNChRP0fDM7lPKj9ZbPyuANoEHQWKOXNQwUDThTBe9iahcecDsXSebHbLqRpz0nlMibFrDShzRjC2JXdrh+KUA8QFeUghM04j9dsbdpM0OPQbE5OQ4LVd8/87jerD9fuLX10g6lo/tQPca8m4owAi5Bg/dhDNfx3e/gEluMtj/SV4c/im20weUoinsSwgxbfL/pZ/kY73Sn/bPl3SZTCoO3ZSdScFuUbGhhtQINo2Ia4FnjxwhY214ctbV+KzhlC3bZ7dzl92sw4Q1Smnizbm7erL4vP7nqXcbnSZ/Py6AFlJ9j2inp6+2/pBXG1+Dp38erp+HD6S8ZE/yveYpfaS87rL4q/lG461h5bjrpjRnFdm0ZDorafQrZrsDaAyQ1QKfSggQDLkIhQfvucc3Uo4B/fS7qbhaglrpO5ZXi7HV0cBrmZ07j31rcFFMJUngvfgJMh1jxjmUjpnAQcMyaqXstFrcava4wwoH9OrttMWRtBW5BNP7qYU7mRNWe8Cmg46r4exr4WHc/BuiehXZ/603kls36O4O2MwLTgInI8NKEtFMLElsiexcnJqFyEdwVQ78lsIKgyxmt9XgbtpmX7qMMBR6+KAb9X9QL/MTuvNET4rplvJaTGsbooO3e4QuBcjvwakd9KGvU3WfI9NDebT7Wa0uZ2ybfxNG98FlC3djmJzh/y62eOzCA/zXJ/+RS+yN2cgzqJTdvGR75tj0nqYVkjImcbrgavvafhdb+8opRE5p5SXr0zEnZ3vspWuMkzEz26KSjT2fjb7uH965qT/uV/UPT36S5+ThAEK1PbIqoe1yPCn9U4J7BK50e3L92g/oQ8PSm5JybX170oiLA7EkhcMUOePp/0/cmwdJet73fZ/f8x79vn339Jw7s/eBxWJx8wYBUtQtSKQkS7IiUVKlnFQ5JZXLLrvsxDmclJ3EVqSkXMVUSU7sWHJKUtkyJR4SKYECSEIkwQMgzgWw987MztVzdE/f7/H88sf7zuzsAuABytFMddXW7HRP9/s+v+f5Hd8jpT60xNtd4nIHm/ZISUkxxGKIjCFWQTOx1n3f94MQk9tBefLX29O6kwe/13FTfRPgsL7le1URrGNIHIdUnJzzMoThAAYRsSrbocvORMj2ZJVWocEmDXYo0cVnTEhCiMWrKBsL0A/3ewOZvqAVQTRxDWkgMC0cvs/q0oOGjfO/Klz4P72hpdQa0dwaMBelHHKEqYJDpeDg+Q7imVwUJP+suUKMUYPR7P0PCi7bgc9GGLDpl+gQMsQSx5vH7erKB/Qr5z7ApftTvTjhMS3et72+LlyBYBNTvIqGNzAWwqAjRr+qdH4YWguZz4BrRMYhWgz5789U+dWH/4FWLv1fcWPn5b4O2er1WeumTFgoxkIYpxRii4vJJGryrW1/aCWZNFshUWrDiJl2l45sMmguM0JImIis6A1b3rrBQzdJ/07rHfpHE1P8ybAE7QoPbZ7So9sTjJjlm+JyPUBSx4GVuqS/90E1dofif3chLlYu90YkzjiGeMxwMKBuI8xgwGA4ZGDHjIlBlcQYIiezvBZrcNXJpu3Y3PBRbyvPDwo3/PU2fg+geW9T7zoYOHLg53e6L2mGX3MNsesQS2aaZyWbig/UsuNCv+gRT5TZbjbYCZp0qeezD4jxclbJIFDWasqWk1e3Q1lnkT5tDCJrJyZ19Z2H4HjA3z6xwj/ijxidecK5+mmKrQ0anQEzo4RDRphyHWoFl8B3Mki7c+Aj6oG2rrWocYh9l91ygVYYsuGV2CIbDo7okSTrE7q2vcCfP1xmuZnFbzr+9h17N8bFqEuqHolm3SxNodZzOXqxh3RUt6eRbhG0DCwADeRPmj/ET4y/YSdef3loOrS3Des7SjVVyqmlkqQU4xQ/94pTOVDi7nFGAE+hNEqZag8ZutsMK8sMXIcxXgZ1cCx2ZgP7A8+NtFOv65/ICRZeSPT0c4aZbV96xuFazVUMVCxUY5CyL+weh+hhSxCNJ/TGrmfTlIhBf5ftfozHmMSmdMQyysF4seMQuy6pOGRILQcPc5tqyG16U6oH0Od/XUFyYNp/h7Tdrfd5sLl1x3eOdk5yHsjYNURiSHBIHI9x4LNbdDOYfy1gNFGj25xiEDYZU8rBiSNSiigj4IWS8kQRFrNm/4gBN3hZlvgmQ7Z1c/4Bdu/9Yf7x8SJ/0/m4OPymGW6sFFZ3qG1tMdMfckiVWd9hInApBi6ebzJClBzUIsvtnGwmwBeL0A88tish62GJFmV2COgDEUM/jVsVu2mLvLTH6LYZ6ScVg8pbU7zdVyUGyT7nRgxbuzV05Sx3bxzjnmWX/o7KxVPw/Bw6OJbDoNbgP4bHeFfpvfZM9d9FaZWu36LlKSVrqaulmaTUopQgb/OqI7dzpiU7WSS1+DY7Rea6uwzb6/SsR79YZGBqRBwhdhxMc6Otdz+b8PhflnXqVWQ2J9v0z4M9k7EDje6JfoXAWVj7iDJZSEL3y8MwXEx63mDUgt1ChOuP0bLD2IUoY12TuC6x5xFLRgnyMHj7mib2gBuq7utVqcp3KZf6V117yG1gF73tXHjjkBDZC6hbv2NRUoHYFcaeEJssJ0rcMuNmjWS8Qz8ekpQLRLUqo8okEXUsRWxOqFI6xrJ5VHn2OHymCLvZiNgS0WZNVryv05t5lkLc4gdNqO8sxMzzR2b4wqLfu0ilu8FUp89CkjLvGqb97PQIfQfPk2wwKLdSWtlnMmYT/bHvsh0WWC+XWQ+qbEmZLpYRa6WEleOp3Wpqfy7IKFTLwKjDUDZZ88qM3BncXJryDQHyeZ2CVLFpmfYAXrvc0NJz55jYXhCXkABhsg1BEwYmZ71cR/54K9AfnHpEz0yTODEDb5WdwCG0ShNlOrE0ooQiSkGdbODoHPATMZlWqjpZIR8mCc3BgOHONl08On5I1zeMmSFGUC9a16OV6+n7hufp3+OROkIvgJ1GwrCeZtHWM5hYM6cLGvD1+5WtHWWqrRpEaXX3anR2RN9uYQpFpDqFBm5O0XaJfY/Ic4k1kwHdMyrVXOjB5PuW3qaleAu4+NcSJwe6V2/s6t4uTSQHWrz7tsg5OzIxytgTRh6MTUyKJfXqjI4fJZmJkfE2SWr8pFSaSbU2ZUWqmW1ZqQftHeFSDy4dQZ+fJ74WELuypzlNisGUQ4rNGabtN3gobnGarknWLnmta5R3rzE56nAoSjiMMucIE55DueBS8DJTnNtqrT23qLywjjxDu+SxWiqyGtZo+XXaVOizS8Q3pxOu3GOT6hntv7eaMYQ2BsJwiba8wJcLTR7x36sudXlTn/SWfh/R5gqd1S1W7ZN6+cXrnFg7g8s59ZlgUDfSOQ/RXAZalBHoJso45TcPDfjb57Bugbi6SH+4RZsRrUjYSFOaIyinGW7Hdx3EucWfyDzgswDBWpxUCaIxja4y5xvaFZeu4xGZMqkUEe+uyywcfUrfd+/h9HOje3l+GEgyVnbHPXZ6q7A90uCmobSWIOMcV/xqG17tAKkKiU5OkE5u58vlofxRw2WAFY/U94n8iDjKcnKTPzSnl5rbCFPkAgYHxUffZpDI25+q6IHu1S2qutxO6xIOzDwyFV+T87YlJ1pFogxdoe/DUDJTgMSExJU5okonO2Wwhyy1f4l88CO3srqv/Jmw/iRc+GO43EVfcbiBz5UkO1h9KtR4UB8ohzDznJbnPsZs4wbcxHGXCbrrTGzvsBBFHBXhsOcyVXDzibnB5LXHbbTmPDhczfKZgW9oVTyWSkVuejVa1PK5zA4JX5ixfPKd2vkv3qc3FqdAN4Txa6Avk+grQEkj8TG8A6H2hj3GRe8m2ppiqdjXrwU1Bicn2Dz+Pqp6H05SIZ40unMC6VczkIpGOSXD71KWa1yoNDlxeDudnNOx3aKbdtjqRqyPEyaimEpqcUVwAs14wmTHvJWctefspfKKSWNKw5TJAcz3HPoSEpdKpEwipvq6Vqrd9PTxsn0phaXWPWy1fbPdiVTWVpTOBSauXdLwK4GIVPNEswtcwZo249l3avf7f4G1HzjP/b/yUbv1a39Xag8+YZzNi8pubCUk8QtE3pgoSbAHJs3k8jjmoBh0vgjlwEzhbQfHbaJZ+l0+XfJ0Lx8X5inUwXx9zwYhEzPY16HP26NZKh5hGThCzwhDUiISYjwnseUjSWzO6Fr4ffbi9IeZe+kIGx+OpXrFyWBI/3QISQhbDeL2mK3107xUrchTvrA1gvP9Mj+iD+vp8CjupKf+6f8X02+b4SJ+d51ae4uZ7oCjqeWo73KoYKgHTlaY750e5lYXUVQzOm3e1o1dpRM4rFV8FoslVqTBNlUGuIXEmiNp0nmXjXlUF/tHWb4YC+Eih+VTeKVPoNZybXhVjF9Q5TSZMOodAbJiPN0+3uD10++XzeI7AcOAChtSzfYlhz0JllvcyBTojNm6kMqz1cdYmPy6bRxdjkdt+iPYli5rO33qo4SKQhBbgkQppOC6ufr2niKNs9eAUSRRfJtQ6w05ZNrEjk9SdkiIsIiNxVuOC+azdsaonmp67BTvIg4cqe+k+u5ui+bq50SJED2dQ858oMLIPsar0bv5w598F//8x6fgl39R/hs6/K+oNgpbVibWrNRICiGRNyAaJfsNXINBRcmc4fd2Z/vGFEbkoDLo25pjvF0gpOb5lRwQM9qHVe4LZkme2Wamq5kBaaY0r2R89CHQxzBAcs3aUT3t7Pyo/Wryc/ovzr9Xvlzy+ZsO/EQHHl2F2a8DLxaB+1GOsIaVr0mBp0/WeD50GPegGAlrka8PXTykXHwQ/s7Y0MK7eZXK+grTO20OD0ccdWC+4NEsGIqBk0kvOSbzy5UcP2YVk4KTSpb6ejD0hM3AZ8UPWPFKtLTMLgEj2zmatJZ+2l588XHd4BwvJl2uxVe4p/Ycs7Vviu9exloouajUdpC3EL51/9yBwUyB3eY0FA6AKpA3B/fs/XjosHttlmeSD3DuoZK+8/zn0kpvbZwO6RrL5nDEyjimbC3lNKUUp4RxiifObULXSObHvjeZNoklGCc0uwPS4g7j0BCFELuZSXJaKj3PA+4wtYVTdsGb0i+kjo4qMYWqR+/Bh1mpL1PubhBurGNuHgGm2WKK54qz/HOnBJtWqBviQHTV3E/N+5w602upVPMTxGSIz1z8am/WbERxRPfNZyQ/CQ/S8JHvEef7Np68V3DrQcl/OchjkVuC1ZKfIPlikwPeLrEqIxWGOHuQESz9kq5++SH908K9fF58KabwtAMPemgiGTN7DFhCYoxcN5anF4Qn5zxpV2B+F93ZRn87Qh9HVL+GGS2K1+tQ2rxJc32D+dE4qzsKThYcezMP1+S1h+YU4ayla5JMKSd1hHHBZbvksloKWXXLbFCiLUUZYIJ4/M13pH/5X/6s/pZ/N6+S4Iyv0o6/xhnnOQreGr6XdWyLPuA5b3n13WXy8bbAd9WP0QrD5B6+vlqh/Gwqw/pA31H9eDpVZ8CInXaXtcGY4lippCmVcUzJgCsuKYJ18ptqDnTyc/l/N5cJam73GVtDPOkSNQokVNDCGHNEro4a7hPRUVNK6sUF/eKRNX11WKfoPyzR4eP6+toizSsOpZtXVGjSwuMrXQOvlME5Did9Nk74slo4whm/ro6TAfRch8gIkVVSa9E9xQdDZnWda2xZzZSkzEGFQ/4KAuTttHgPClfrAc9IOdA8kNvrJJMn8lmAGBKxpAiRGsa4RBRICLA6Ftx6Iv2OpwzQeoKc3ISpy+AvZcy7Kyir7DJkWV+ajuW52aJcmp9GJhqUx46mq+jXO6L6PIYRXretpc0bTHVbLAx6HE2VQ75DwzUEvmC8/Ow3t0sa7dElTGxJJXOJ2gldVuolbpZrrLk1dqgywCvERCdt9M3zrDArn4sscFFZfAqC17UdXBKhpa6XMfxe3YFHum9NEnC/FcP/W293BRJmeXZkaC3Db3zxEXl57jG9p/YHUTR4Ybe4NfT8PoU0pYZSjxMqBjyTpSuYAzFp8pTAybN6yZThK8OIWfqkrkfkBqRhBdwACSZiCaoftxPOM2kxfNBW5h7kD+275ZP1Jp9spTJxc6DhVA/XXcL58peYmvgYzXuO8tilGpdGZVadaYZl6IUlrCnCBCopqQuxZJTbJFE0sUii5DYcGV4JUMy+15TehnH6/7+TpbeNLXkTy4Osw2Xe0MHKvAYzNyxDihDjEOERU8BSREVivLPLlL66DttlThaER1fQU89CuI2MgEs++on3bvPK8VfkQrFEVDgKzRQa6KuC8q9F9V8hnWeN27e2uLlKs73JfL/HERux4BimfEPRB8fLQI3q6G2oY7PnIpxmJ+bYgXbBYbVUYKlSYSXMpvpdyozUNpJo5367unqebUKmSGixzD3Jf83sALrr6HORJ0nw88Ap2DGa9I6jBG8KNHC/9058QxZtCbY9Ph4e4lB5mBC0BgVzRcLMlbCaCjW11JKEYKyUxOJ43oEgyR42ly4Vx2CsECRghjHs9El0GzsZoFVBM2hIEjuFxfhcuGgL3nHtHTpCpz4vl6sO2yZPkEZtgUBPFX6fkyduSGQ/RbRodbX6QZHeRLas6wbuRtlEnSSbB2juxZhYJE6zJoNkCif7xL0DOlC32xl8L4Snt3cLbvdNvB2avyegd7A4zymfmS5Mkqm+pAhjDDEuCX42+NPyLuJ+CffZs3BzklPlmj7SEu7azcrSXWCriNw4mXDxrCtRowaVOZisKVOiTEFU/IgQfcLtrthwvcPE9i7DG1yLAAAgAElEQVSHdvsci2KOOsqML1RCgxcIxiebYzl6m/h2plKS0YJjI/QLDq2qz3K5xLJbZ50GO9To4zNOWieSK8//sH7m2sN8mQo79AHLqRNw9BgyUkjXHtBn6z8lVO4HDcRRV2HiTW+g+71vYj7gCwKf1Vk9V/4x+0jxyXFJr2jV4HqG1ZFSH6XUk4TApoBHyZXsJHH22Id73Ypc6CEVTGoJ0xT6Y2J2SV2XVBQbpiTukJQy1ptkfKryVfuLhfN61nlQv9at8MnA50ajAQ/MKO9+VGT0L1UXP4mz/O/Vv76I2T2vs1cbEsTAccn6+dukEhFpyiBN2bWWzijCE0sh07UBN5cx1Teu6X0DnbcVHG8/sG73ANHb5ui35h/sB8c+USq16DjBxilDx7KL0lVlgDDGybzDhR4l+xQPRPfC1ffr9GRVDq8JjQOaYJEPOxNFis1DHJ8ocWLS08JR9GcmXuTDO79vkvpXvJ3LFLfaTGy2OdQdcnSUcFRgznOoBw5hwcH1sppjr2u11/neU5eRNFNoH/qGrdBntRSyVKqwahpsM0GPYnlM9GgSPfUR+43/9kP8P94sr2Qjc2DAPRbuG7+X0ugBHr/0GO2Z99CfOYS363K8f8t1+j9BgOSFRABXQlf+UE7b8+mjOrX1xNh6Ya9UGG3uJrqcJJSizA7B2IxMFSoY30FdcqVxbpPzV0dwrBLEMc3+EDU7maXvZEJaHgEzGAL6TvDq+JTze/EEz6YTTsWu+ye5Uf9+MXPHsHPH9ZL8mESfS9T+6V+wvejwkUrKmZsp1V4MQw9OommPRMeM0ohOHLEWK8uSEsUuxYJkW4ArGOGW5OhBsKLIX9MJ8iYBogeSrvx9mQMC20Lmm8EoxlpLu2BY05QNUjpYhkBMgpUdtH4RHmt1+WdP9Kk8oFpayoxC2aOmuqKvTEzJZLPMfRMD/anZ1/Xs/FWO3vxzE7a+7O9EW+X2iObuiLlezLGR5ZjCgufQDFzCwMX1M/FwyekQewPNrCi3mCTLLmLXYSfwWC0GLBVKLHs1NmiwS4UR/SMJL/+0Jt/4QQwzqG9yjEBMgR7nLv8k7948QX38XszKeyTZmiFecXAGUNhAgrfY3b73ACkAISoFZB3hD4YhBffv6UdP/AynO//7uGK+0NHhlbUuNiDFSxRPBcdJcDAEe4f/vlwot+Q3HQM2E8AopykyHOUmloq1CaaU4jiGbfHaXc88OZh0n9T7aujPzv8qQfyY/m7BESYcriaH9WrzcaE6qeeCp3n09dc5T8whFjF+Hc49rKQvpl4cD52YbSIW05TCOKaDQ0kNTj5dN3kRbPflSeU2K+jvevHL9xQdd/yBO4JjrzjaP5xvcaAlUTRNsCgdz2fJt6wapY0yJCVmiGUlwLtwksNLM/xCWxl9PlOY2ftrzh6gPSjqZr3I7GHR7z/2H5kY/KYkq3itRcpbK0xutVnojjmaWI4ZwyHXYSpwKBVdvDw49sl1OVPQ2GxzdPLma+w6dAOfViVkpVJm2a+wKlW2KDs9gvlIF9+fbnz6A7po5rn5uEuiwBacftbnvuRdVF87JQ2gxiFgMkOnfwdf7vd0UwxQRKkh6uWd9CHytFuU37nrbv388o/b+9utfmm0tBnoyBmAE0PBKoWxJZAUz2RwDpNLld6Wdbg5rMOAb8FJUtzBMCuRbYI4Fik5GC0gIqhTReeK8Oh8P421wyYjloynftvI0DmqF455MtXb1Puvfob7mKeKh7uyAH92N8Eji2morWExZTtMuK4JiSS0jEPZdXE8B+MJxpBbKNyyYttPYES+JdhW3mpIKN8Lu0Tf0PfVN5nPkC88kSzrEFdRSUgdoVsXVusOq76hAwyJSOhgWSmhV+ZFW1NM42PL4I4hjW99mIKD0lD+wdFNPtp8gvLSFw1b+J01Sq1lJrbXOdTucnwYcxyY9x2aoUspcPECJzPvOehxkotKGKv70kuJMQxCn61KidV6hZuVKqtujU3KdJDiiNG98XDjR/XzzkmeOSY8L7Ca6wwefbHCkeRu0dwrJ1vy/nd8ed3veefKZO+VEcIwuxNX1UAMV/WMfad7LKp5bm8Y4KQmK//GEKaWcJxggBKKJ262s+31vvdwRs6tJeCmKcXI0kxTEpsN60zi4FZcHMkBIU6dYdN7LX4/Tyaz2kk77aoMbta1vTPHleGUro7eQ5kF6gguAhtGZeNv6OjUMeuWW1FN2Z3xWBkJY5Qtz6EYeji+i/HyNFDTfR3cvV61HDAovJOzJCq3cfjuPD30Fn/0uw6U24Jy32A0Y3vpwdlMDhDNAiSbg2hssMYwqJfYrpVp+wW6QMSIhAjVNUd3bzqs9Xxad7lEoeBfhmKc6UsPQW8uwsd/7us8VvykNG98wdWl1wqbK1Ra60xstpjv7HJ0FHHCKguOYaLgUCq4uAUXJ7+e+8hczecdms07JM1WV891aJUKLNVKLJYarPpNtmjSpcmIcRDHG8ft5Yv36R/7hj8Ic2cCL0v7C+LgH3Dz/m6/3n6A7N2YfobPqgla0iwv1QSWVmCrV9b27JxtlprjIOx13QEtd0TQjgj6CYUoRtKEKTyKjmKMiyM5qDIvho1kVN0kFziTxFKMUyZtTrpSg+c6uKGDJwU8gV2n9MrgkDcYTidfIO2WUrtxTsetn+TCEw/z9OaDWO5l5IDfUKIZC69Ar/YrlK59PJ1prg0npna2rU1GGrNjHHzPx3H9jEKcbwqqSa7+LvsnCG8BCD3opf7mYEP7Nu/eLel7OcBOQpNcXf3OY8tkQULG6c6MhDwit0bfm2DklYmwxHRJ2cWmm4Gud2r6VL3GN+Z82SmBcwwt96Fm0bnTI/7G3/oUp9L/Q7i+6sZLm8XBer+2s8FUe4v5bo8jo4ijeXA0Cw6FwMEtGMQ1++mfaH4Fc+FBk1okzSRgB65DK/RYrAZcq1e44TZZZ45dJhnZKkl6pW43Ls7ok1shf1DOaonRgbGGfo8ZrHvbYpfv/khnBGEXzvVgJs4QZMRw73Xo7zTYfvB99tC5S0mh+MXhlHu5I6769PHjFG+QIGNFHJjwhKIBEScDqJk9YEvOtzYgOfLXkHFOnEFEQboUrKFQE8KKJfB6tKTR3XHKL+KELyp1lHu6Wh4/omfW9qa+cMGD3fvg5r3wT/6Zyq/f3eGd/+Zx/YnW78SF+p/34VJEQg8PhyKGQtZ1IyVToR2hRJluVu6EdKej+ndZiLzNAHHJYLN7DZtx/t4G+cl+5+96+fvdMytzsZSJCUmJUDaxjFE6qG3N6fLEh3h69iF+b6oBDQOzsOeI87s/epFT/K4pvPoVd3CJ4uY6jc4uc50OR7p9jsYxhwXmfJcJXwgDB+MbxL0FrsxGYWa/lWtixUkyb5aR59Au+qxUQ24Uy1z36txkgm1t0hs3iLbd+XRr+z59Yelu/qxYFnId879KPT/3XQq7Y1hJYNf9Dl5Z7uB5xtBcRB9+GY5oRspXC7YL1Sik+/R9DKY/Yotnu3Hdv9IPS+qowYliTBIjwxQ3BhkLxigiLi5OZr9rbmmImLwFnKFsyZT+kpSgN8KPoZBCKClBOMR3+zimBqYGlBlR2oo49XQy87HQ1rfrevHCjHzz1TovV31eqBu5GKJFqfDKkfvYfObv6+PJw/H8macS2+yKTPXFTHQFLxYLaCLKyEU3fLVLBZVKKtKMoZKK+G/ObNZIYOAoieQj7FEGd9IA9TwIreAbVPzME+47jQ8nRfyhGD/KIP6JQM9T3fBVLwdqNhwcJ5fJLFqYTEQnE7SSiPrZsEHGqrRiuGHQbQ8GDkSC9gfa2T3HyrF7qZ6a4ZeOJNTmt5k/1ZOF2g7H20ty/vqnjRm/7u1eprh7nfrmNnOdIccGY07EMUfVMus51AuGQsHg+Dm7VA56RuT8jj0YSS6kHPkOndBjrV5kqVHlRqHOMlNsMEEvKfujm+lC8m+W32lbq/dw0ZnlYujmKb+ikkuWJ4ZbQKa3GSDvTpH2EjwfoC+Vvs1up2SmypW8zsk/6GQP3nsFzuZNrb2nJ6TsdLd45i8TPVea1NmHbVKE/pSHSTPPCWdb8WKbiZPZFCe1SNFFAhd1TT4BBpvLS2JkX87USS1hpJh4gGsVP0koVIZ4lR5u2MAxQ1ya7FJZGuB/bsx7XksK3aY9OndOO8+9V1/447t5tllh65LAkmH81YLUvnicOY7r4Xv+czU/hTIDzCzKRrnLa3i85hb1T71pPtH34YQoz2amEoTww84YP/cy22uDjhCeSArkopfZD48dYLgvq+DBD5gxVkXi72AosqfoMW8i7nXb3MUWs1EPogKLvSP6SzIFH32jMYP+DyrbZ+GZabgURhgSylt9pl5eYu4PVqR4KcLBik5Z+v22bsysM1W5wC8+0MK/O6V0fFvqjZtSiZalOL5p3KUrBbuzUu6vMrGxxex2lyO9EcdTyxGBWVeo+IIfODj+HvDwdnEYybNLE1skSiFRRkZoBw43ayHXKhVuhBOseFNsMsUuJYmG0bH0+eWH9H95/bygs1AVZclCl2zmzhqMurA2TRpPZM5Ib7cGmVAIXoa7b0LVv2WyeOdXrNBK4fIDKKfyIzrPg0oOHAXOZHXRfoOrR8w2N7n0/OviPe9p/ZOP2sL8K1HT3e6FCWiSdXN3hrijGD9OcWJLHcXdKyZzJuIB8DZqJEu9ci/2QpJS7yuOTfGTMZ4d4acjCmFE4I0pONXNNtLp4V4YM+sl1bkgffeDZ+zUjV+wza8+zpc/Ps/hjQxfdFKQUwq6BPI7KvyxRSfmdOjPsFSAV46IjOaFE75l+9etFJ9SaiZzKu3sFVAWJMnuvgLvtAlDKyRW8BKl+V8l1NaU8YLI6LdTkoLSqznEDcT631m+pcC1pMD6zpReXG1yfFkptoSkZ+Qf76T4TSvv2xIezjMiCYB/q3h/ZAlCJXKFvnosJXWe7NYod8+xUFeCRFR6MaPhVSZnP8dj7/4zTty3KO7sQISRMZs9N2kN3fHiyO+tRtV41062OxzqDbN6I0lZQJlyDRXf4AQGfIN1Zd/jdW+yv2f8KIkikUUTJRbYKTislAtcrZW4Wmqw5E2zYSbZpcYoTUjb63P2+uV52GlQqtV41Pg8dNVq7RMRg7tXWJ76Ahe9q1zc/CFm7AMcJqSeu1181wEiQKEPC31k+lukwxGwBHo5Oz2UOYTqwfQ2axw4t5NNUInpq7DESal/o8nJipcWG0+OiwvY6SjfRSxObHFHKSaxOMZQMi4eBvH11owkb/9aMryO5vAUsRlepxJF+J2EwjimPI6p1SKqlSFFp6o+pcilHnUpM6ZB7DmryfG7E37mVGjv/fVfYirfZUqgs04uOb4rsOSQ6aqhY2Dpx+CrdWhXgRLSNrCyd4zr/sVS2uxZYx1AQAMb6E++BoeuInoKOkfgwhw8nxf/eN/F3RsC14BvwH1fzUSXvXxzqgCegKfoWYGpETiLGeCqC7IBXAFugHwzf7n7QAvALoG+zl383w9/kUM//00p1C4JCQ6buOwSpKsUe8tUOttM94cc7o85Po45KjBTcKi7QugbHE9QT7B5WrWHVzNikFzZRhKbkUAtjB1DO3S5WcuC40qxyqJfZ91U6eAwjNtE2zuql1ozXBwfUrwpzmwd1p+/cpRHXvOkwg12o6/x4vzTVBvPYcoDve/1gMeiuzlEkeLbLdL3jH0Kb3EMSQ5rngHSV+D1Rbj+OEppX3zsTbsFgkNd6xzhJAUK0v/TmH5btPhTXsI7nkunTYtSAYkEZ6w48QAntjjjhGk3piKZdIJ4WVplTf7XJNcRdLOLL1YwqeKlFj9K8ZOUolrKaUI5HhGWehQKFXwvwXN8eniMqBD5/pfiM6fXktMbX7Jcf0z1T+6B/6mKpFG+d9SBIlDAxUhhCg1CmPGhXcyi6U0t3ccIo1zEIL8+fgpHh3D2Ahz/BlIxYJ6BapSpqhU9SLu3v9xB6RF7J2VE8gC8BObV7EZG+X3SHCe1pplR5s9r5ke+Zx4WsW9BJBFwOqf8HAMeOdXi/h98TY5++IKefP/vi5decujgsYWXtAj7O1Q6LRo7Laa6fRaGMcesZr5QnqFqDF4eGKkDanTfYGgfgZ9rjpkk4wCRWCLH0Ak9VmsB15tlrpTr3Cg0WXPqdDRo9JPte6KrH3tX+qVrBb76ww2+dropOKEuvFTTB37H44izIz4rlL0brHjbhIXruIXfoJicZoIpSkxkDkl3GMinedeikPtHyZsFyHy2e1B7k7bYXj3ey/hW0gVsF72eficoLZ/jHGeKaRRV99WEMD4NCx9SfvXfKelvRcU63UNu5jPnAjsjNLGk/ThbFIlFCwYpOIjrZOT9A7hy2cNQ5LKmRi1BkuDuDgmHEeXOgLDSo9jsE1ZTQnHZMS5d3Bx3ZK9HUnki5uyVRPonLb89o6zFkm0H9wEnFKbzJXTbQSEHRRy+3VcVuGsMJ3czueM9GfLCTZgPoLn25j1JfatWpWQdRL2ZnXZyx+/v8boaOUva3vGaAZm1/GTWmJNJ0EdQ3vfIX1K/91NSOPGiceU1Q48C24S0KEXr1LZaNDe2mN3psDCMOKyw4DtMBR5V38F1yU4Mo5ke84H0OAv0nEIQKzJOkMQSiaETuNxslrharXO53ORG0GDNqdOmwDAdnYxXV37c/ttP/DyfQ1g7s8xm44qi1/BuruLSxKQOsIm7M8ZbCmj1VV9ZhVP2K9QpapPJO65jilIi5YwUmeU0wqE7MiAAt8YaExSYo8zEtzjfd7MUi1L+wHz7ReHg0Mi/92YmvITu/kO4+No5zv66pqXip8az0cpuOUI1zuYCO2M0itGBZTpJqKQuvvVwA9mHpRxspEk+DrBCbrWm+GmCl6R44wQnjgnShPJQmQgs66UxW6UBbanRo5j2Ca8O8K+NuecvYj5etlxpQOth2B0rayP4fKLJa4c0aoU4m3CoDf1KtjZvY1seJJUV8gs1yrZtbwS1LpQii0s/7xGHmPWQUkvecPzv1XFNYCp/KffNUmDNhBGW89NhOl/8e6/hZmegXM/6KtrON7mQmEc+1KJ2rod3V6zzZ9ucPHFBQv8pQ/olB1l0WMQftSiPtqiPtml2d5jabjPb6XFoFHPIWqaNMOEIJU/wfEHdTPnQyu0uwCYPDknz4IgtNk6JJS/IKyFXG3WuVKe54c+xZhq0KTCgSxytHk6vtB7U3/jloyQtIEih8yIBX2Z6epHkwQWxr88RDwq011Pa66ovH59j7fTD/Ouf7vJ78klc7eUJ5TJYQ6fT5tzrP8s9N39N301BZqnk+e0dlNspLkhAE+G48i0CRO7kUH/Htq13fFmkB9z4DxXKd32IU0cuWbewMg6bYg8NVB0llQ7JzojxYMw4MsxZn6oKoexBOnLl+OzguPUuRFFHsL7BJJoHimWqH1GKlJmupVWOWZkYs+oNWS9M0qLJFlU6FLVHyIjz3ZgjfaXjWvo9y9brMHtG0//xUWTuXua3K0y+pNSXBXMYXTqDMHHH1uMBNQQf2ELpQngTDS4jZicFbgIrwEngcGao94bLlMXYCeB8XlPIW1DactdGjYAHgIm9bVsyg8wNERYdSH1M7KK9MRz7z67zyAN/Tv3uK+KcHeBPbBrPXTGYmw7DVZ9VCtEK5d4qU50d5tq7zHf7LAwGzMYJk46hVnAIPYPrG9QXkly7yppMJMnuIXLzIWBuPYxECaSWsSPsFD2WJ0pcrje4WpplyZ9hw0zSwZUhWxpxFTtaPqyLlUMk70JooQxiat4aD5qnmZrflSRpEbdvsnOtwjN4+jRrXFuYhVN3kVQq0hUFNvNrvputlh305c5XePnmCc7QU5eHRZh6Y4AcwaWBo+63mVbpHS1G+vkjQe3gzZ+TkLDLLl069BlQwGeaWVIqxH1h9R8dkvr7HtbqTzWT4l0dO2Ne7wTuUhph0wTiaEASpyRRwqwYJhBKFow6WZvQM7f5UUKmloJrUJN5lThxtt8EuVh2I1WaScLMaMha0OGmt8VKqcp6qZrDFyYYMWljpq+mpFdTIlJ5EJn6xV+xj25/v9790jF6v1XTrScXeIQJvvj3Uv3U+SHMjqCY5J5NmYEf/QISl7jvhstdl6H+7H7uT0KMm+tozL+JXMDe7n88/3/3WxMO9BSQkjDPDmXtAAPQhASP8UMTbN9XIry7R/HIjhw/uarTR56Wpv+EeJWvZtZKfVyW8JMuhe4uxc4ate4Gk4M286Mhh4cRC3HCrKY0HKHku5lHeV6EWwcSY/fB9jYHTsoedTkFiS3EmTnR2BV2ij43a2WuTja5VJllyV9gw0zSxQ9G8e6JaPj82TT+9FFdCd/DjccmoZpAtcOkWeYcyyzITZwibEx3Ce+/xM1p9F91Fnji6D1w+DBUq0IQ5hd2xD6oXYGxEYJlhX9Bn10cziBMvrFIv4d71MMnPJBjf7s5oQNMXYFoiHYSKC6++SESEbHCKle5JossUqPKo7xffSoYKywzqVx6WCa/8KCeqtg0PPnZcaH0WTtf2UxlhcisEXeHRGMlHieZOU+cYlIP17qIutk6lNtYS4gBazIxZnUFN80eXmIJ+iOq/TFTOz1mgx2mqps0mhWqXp2S22NLY3bNJCMpE2OICEgISIr1zydHD11P5+sNm47mSY89Ts95SM+P2xzyn2Xp1DpMRhqL0jWTtOSQbGwdwl0/xvygzvwIKQG26rJbWmA7aGgzrcqRsXC+Bwv93DD0jmLcv3WiiLxJdaLGqlNXDk8oUt4gqLwAky9BbUUwA5zQZe7MnFYfm8SfXcXzV8XxVoxrbhjDsqMJro3xWSewi5R6G1R2tmlsbDG91WG+P+JImjDvCJOeoeILbuAghSw4siI8PznkgKjpnmTjnkR+rDBOsTaTF9qq+NycrXKlPsk1b54lf4GWmc2U2O36dNK9+qC9+vxjuvkX53XtA0dZ3q5xkjYyfpFz9hlOsEQV8LTM9aqwcSJlrTRgfWUOjp+AiYbgedypyXprl7eI+igRDg0ygMabEKYmbnNk+3bZUfaog3z/ayiv3XIEjfPd4vbfN+xSYJkqV5niCCVN8GkApxAWabLUOqerny7R7U5y6p/O2ekzm9Fc6UlbSCIrY9g0pO0RyTAliixRmjKplrJaAtUMZeuaTLnR5MDAnOiv+cxEjCA5y9e1FiexuOMEL43w7ZBi3KPe7TDtt9kINtmqT7IbNOhSYkCQ6c+Kf2PsFm5E7jwJPzdl+fDIVuJXteYt6gOljzEopxL5EINu8H6+xiM81T/PEz3lwgtHmVyqM7zXEJ0UNs+WdeVUmWMj9PxNpPFNmPjsm5/aqwJrioRAmb0gSoFNItbYtRsyqHdwfiChcc8O86dfwW08C+ZZIYlFDISH0XAuR2N18nZtF5cxQRoRtkdU+jvUh1tM9Ns0+10me0OmRhHTNmFKNDs1XHB9QX3B+pA62dDa7p0YB6VO98hOsUXizGo6VqXvGVpln6WJEtebdW6UprjJApscyfBVdEi4cczaZ96j3tPvoEiNmWTID/av8QGzAr2vEY5fpkIBlx/dJ71E1jIeblN1ShCEgl/ItpQkhfEI4g7I6q0Lu4tqb4Yp/j5F3kN8EMj/dsGKfj50Cg80kvaU7M2btnl9lAVSprRBwhwORYpUgLsAnzpfp8gSHr3LSvixCWon30EhGKahXBwemdxshV4ch9uMNvv0dyIGEQzVMqOWqiphwcXJlb9NPnnXfRvaDJaSOJINF032bxKBRPFszMQgIRxFTO4OORz22arssum2aZk6m1JjhzJtCnQloGdCBlIkknA7ofREIvI1W3R6GjoZWGxv8zzCBTvBQGdlWR/wl1k9fC/h7IPaPjQlrSOGnfsNa+8QvhHABy+qulaFa8AVhOSW+3kKrKjKBcdSrSEzdUUn0Ki2C96LJMFfMKxcEj3RluBsIuHJEXpyRym3hCQVBhiG2VBXW0gyxLUdfLtJIdc9r/QHNHaGTO0OmO4NmB0MmR6NmVRL1QjF0Md3wHVBPUg8sK7NmJ1yu5aB6u00WUkUYouNLKkqvYLLarXAjekKV5p1lgpN1mnSpio9iuFI05lY16esPvcA1ace1OLmApZllGeweh0drMDVFWSxiTH3IBRzMTAhtgmN9jqfOXodJMbThIoITjJmuLGqC9dWWOAModydkfF7u5SXH2aaR5nljOj+Kn6bAeIDR/JguLNl6JBh2O58MQ/DIQKc3DS+nmeBJu/KFHM35m0D6c2Uy/9+DvgRLf7I3Uw/8EI8Ofe0LZivpI4lsZbIpowHKcPUMkpSZkYxdasUU4tnHTxrUMfkLd+Mnaa57YKaW0EijiBuRuP008yYsmgTasMh02lCNxqxvdlmywlpOQEt32czLLBVDukU6vRppkMai5m/ewEr5pbtOGDLbKen2E6nZtfsOx9fY3B2Ve2LG3Jp6x36+/OneW4qgIVsef0a8DP/WwSn+/B6Ts3E11vXNqKa7kiVsZa+b4zz7hGcXMeEz+AUPiPGf9G4JYxXQUpVJPTzjNPFEGMY4LCOIzu4/Q7BTodit0151KOejmnGMdOxZTaxTKUpk9ZSd6HiuASuYJzc28VRrGNJnawITyXNTU5lX5NrjxqbKa4rJJlH/dAz9DyHVjnkeqPCtcYE10tN1qmyS5U+QTkapR9MNpffa/vPLhB8ZpqJF05QoaQwgvgS7P4FyEuZP+CL/xB4jIOGzSkxZa7jLawCixyhx2mEgg7Z6C7xY1/4IR7lMeo0ckGBHMrMnHiUaXyvjMICcDgvGPUt6pI3BkgmBj93oG3p3RFYFWDOZsG0TZNn76qwPXVeD0f36gcvT2l9ojecmns9MU4UlS2j7RHDjjKKlWGSMmctjcRQTl3Ud/A8k9Ulbgb8EZMLLOROolnKRUaf1Zz7bgU/Ffw4odpLmOqPmDNdOp7LVsFjveCyVvLZiAO2ghptd4eu02AoNcamQmpCUlPAGtLgSZgAACAASURBVIcEIXYgLitJKd1I5tKepX7Bcvqz+o6zDf3Z+QnV0FdZ+TC24uGELl78y8JHHbgRQusU2HsFJnHtmHu2Xueu7guY8pY4s2Pk6FCk2RVMC2TZ4IiDqCOCSw9HLSYe46YDXDvA1S4e2xTG2wTbHcrbu1Q7fer9Ic1xlFmcGcOka6h7DiXPUPAcXM/BeJloXpqLBWabjWKNzdzQ93zk9RbYkCRrjqhVYhF6rsN20WO9ErLcaHCj1mTJn2GdCTqkjOgTRZcPJ8+vfVSfXnoPvdernG0b3o1PkT4OfRga2ClnfcvRCc16e/fmDfCsWsvEIUMQH/hDGtzFYYQSuzhmzFn+Luc5L1XKORfA5ooXBiXCzaSY336AyHfFw7r1HI+3bh7X8rbkXftzN5d+1+XrG/DC7r2c/sSczv2tw0n4yO/ZwuiTWuxjPYfUT4h3Uwb9lF5smUlSJhNLPc5cUF3fwfiKeE7m227MfpWbQR72AJBZXaI2m84bzQR93BSKaYqjCX4ypjwQml3DvOvS8XfpBNt0giK9oMQgKDEKioyDMmNCRngMcRgKjMUmEeluQrKbUlxNKZG6IZYAxcdSzveavSN4lnyefbdCFSHFH94Uv/UVoYMhyhFwu5jcsSSjBll8YnzGFJIhwWhIMBgSjkYE4yFB1Kc07FPuDaj2R1SjmEqaUsVSdaDiKCVPCT2L54N4gvUs1su2Wbtnapp/617dm4tfk7sba6zY2BJZZewI3YJDq+yyWi6yUq2yUmuwFjbZpEGHCkPWSMYXSF/5D67+z3qOT3/oMNSEfxIoD7NMhgNYgY5CK8lS587ZbPxJKd+2Dy7lcL/QdnmdAlCQDBMRUKRAgEeUt9n7+Zad5it7Lp86mf8Eog1vk8pQ3Rs6HvjZcAO852DJU0qlBoO//BBBV6139HJUr17sFoLE1sZEKwP6yYjdNGE3sfRTyyi1NJKUYupQwMNDcawDjmKNwx6+UnL4g+RkrD02G55inCxNEJuBH8sphCk0RhBJzMhP6I3HdKMevbhAPwrojwP6oxIDL6CHR1cNPSx97D5rJFJDTEDMJikOqbhYKWJNMVvmt3zRlpR0Q0UdjFXsIJa0K07aV8eOcVVwrOCq4ojFEyEQSyAxoY0oxSPK44jKKKYyjiiNY4qjiPI4ojyKqMYJJYHAM3jG4DpgXDKEgqMkbq4K7eamqyjW5r2pA1TjfU7bXnAkShpnTZS+gbbv0Kp63JwIM4psqSlbbsPsUiz0ScsjXW8kyaWm3Xylrq+ePIe9d8DxQ1251v3/2juzGMuu6zx/a+8z3PnW3FXVI3tkd5PdHCSSIi3KkSxLiG0lDuxEcOAkRhDACRAHcYIAcR6cJ8MvBgI4DuwYsZ0YMYI4shzYjh2LtmhRptQcmoNINslu9jxUdc115zPslYd97q3qJilKlmiQSm/issjq7jp9z93r7LX+9a//L2v/zWWNX39GhLc8PLtQgvYDwEehvbdoh9p3gZC0aDFA4iBKIRwcR+nhvI0o2Gdh9gpUDfQcLO6A5NEi8D4gATJsxpvbepHVDA4toQ2EFpZX3phm/o0f1l0/0crDu39DK8HXXagk/ZRentPahFbP0UqUllNmM8ck0BCo5o7YOmxg/Qy2NbiguM5QYmhIGBEQC3khPTM0hQydEDtvFKkYr66R5yT9AYMkY2B69MTSNSFdCWgLbODYlIxNcXQM9EToiaEnIQMJSY2QWUMexWRhidz4MRAvmqe5StbVIPdKaekA0+0T9vqE/ZRwoEQpRKkjclASoSpKDUdNlDqOukJDoe6UcoH2lQTiOCCOLT4LLWggxuHEkUtObhzOOq96aUYmTqOvQ+hWhhCuc945w3kUtx8YNmNhuWJZbETcqHnVw8VKg9WoQotwZoDbldI5kHfzY+7ynrt4aXInT21OyqVSwHp8CfoD0vAcwleANR8MyUFY/YQXW6BUbOTSOzx0FSdtEFh1cKMDM9fv0/FLxwUukxN7tlrzNTj5KkxZWK5DGsJC9j7K/nyXg2bYmH6uYJwmVKid/jw1d8w5fj+xwcvpXZNnkpnK9f6Nft5fG9DbTOn0Mjqpo+NypgbKeOao25zYWoLQz0BLLkjoYV81hbzMsNtbFPXGDI3pBdQg6qWr7dCvUP08jmpGnvsH1UCFAdARR1tyNk3GpnF0xNDd9krEkhrxQRKEZDYglxAndsvgRnKwDjUOyTPMICXsp0SDjChRolSJUyXO/cavAjWUmkBNDDVjqVlDxRhigxfGsIJE1tdftlCzFMWRk6kWuIuvL3LjCtpUUWMMn805hcqcDxCXF5q+InQCy2ZsWKoE3JiIuTFV40ZpjCWdCtcknm/TPzLg3L1Ozx1zg+w4pz9/SH/vwbI8tRaycMbJYnuBLDsL/QvI4E9RTgMHi2AYB44C8+8wsbedeFiTsd5nlX7KefPnnF9U/aGvnuTY1QdQGjhW/AkSrSpjC0JzDPr7IdpZkFLlAx0geiuPy38oi8CaGG6+XufB1x9jH9/nxUT+wz9NI/eFrltfotTG1dv02z1amwlr3ZyZNGUmhQkVmtZSCQNKoSWMDCY0SCRewdH4At5sE1cY4vluBLj6XDwvBAXEOT8frx4OCdUjONZBgFdrqeEYF8/rTTEMVEhFvCi0ekMeZwY4Md7bT82WdbPo1hZQh8n9IJnNHYFTf51cCVQJRIlFiVEigZIYYqPEYomNIzCCseoVYgKDs9ubew6nObkb1hhezkjdNqcq51Mor82haOpwmZKpf28+nTKsVAKWazE3m2WWGnWWKmOsMckmk3Md8h9MOPXjOf/+hCY0eZ2S/vrfh9+u+YY/A5SlJgym4foVdYuLOA4VuGlp20BF8E16dIaEHcwu/Ig8dL6mzzSehms9Nq4eJ+f78LPXxTBVqyucH8DaBGw8Cq2TRdpmPvgnyO0nyaFiCH+8QLwUFU72IfwhZTLPJsqv9+pr624gvf6G67YWs431lbS7upnqSuKYzgzTYhnPHY3MUskMUWQJc4MNDdYan38bL0YtBc9saLfmZ04UwfniXr0HB6IF7b54EjtfsAbqYZEIoaoUxpbGQ82jaTQzGhHQUVC60fdEZJvWrxf0FlHEKphC9LSAj0RyxDgPsxb6wYGA9cP75MbDsmoFFxSpk9kSeFBynDic+pcOfy46Yt5q7nBOyXMly5UkV3piaFtYjQw3KwGLjZjF8RorY2NslMbZZMp2dXJikFdPpMnVT+aDLz+mhopsHlZ9+WHkt5Pi6bcBs8vw2RebPPD6ES0/b5nVEmWS4jGpBXoRvkdNa6hS5f5rOzm4/Jj8dPiflUEH4R5CDjBFkxDnGxWdNjw3A0EN8mOQ7XlXCOoDGyBRQdSbLwrrUnEIAnA9hq8/Cgd3OIleT6PB5TzIlwdZdrUzkZ1pkb2xRpYtGZhKhBmn7BDHtMJY5qjjqDhDKS8UUQJff6ilSLMKk58RZ9zc5q9YFPlWISgMa0acTa8YEiJEI2eqIkUbvQqPjm1SoGwTBtqyShsiRUNuk27f1v4fceSSkZGTbxOyU/HyuyPdLaM4cVtC4TJ0Jxy5NHu5ILcVGKKgzn8/AwYGuqHQCg3rYcBaKeRmLWShEnEzLrNUadCKxujRZEB5Nm3LJ9zi8qf0+ksP6+ZXK8Sgy/cKT95fzMycA7rovuvojz4DHzkTS4n9CLNUJEU037YbGu852LQLGNcI099D0J8WzznwQsMRUBnxo++HLIXMFvyE8H3SxXofV1Bknu+4lgR+e6I4Yz7q8NyrdPzBJ5Px2f84GAvPdcM4a20EbA4smynFyzGVO8YzRyMXapmhYh1x4IgCSxBYrDXYYa+kEIkQ40ZC28PNtyUeu+XgSyEQbdSMxKLtNrfcAEMgPkCGblsj050ivxrJbo7gAx8YrqgJfAdCyQvfxFwgLbyv3G32zqN/DweWREcnhJf88f0Kzf3QkuZ50cMAdd7NL0MZiNINhHYgbISWtTBgNSqxUimzPFZhqVZhJWiyYSbp0SRrl8bz3//GP9Gf/Gf/gs/T5FOIVIt68s0qvBYVGmpdXxKMXYY9Z3wJHlH2T3n99jOOBh4c94/Sd5sfLL1jgf+hC5Bvp2gZsXnvO+o4FKZlV3UTWZLVE1JSHfR6dNpdNlsDVtoDJvopY6ljzEFDDI3AUgkspcAQWe+N51MvU7gcCVivHTvyWLxFKWkLCdMiWIe443BzOnVeUF2GzlUycqwS9BYr6VuNCradIEWN4Lb9f05Ort4hKsMVkqhyy0SCip/LUDd05i1SKVWcc2jm0DRHM4fLHHleoFLiNU7aoWEjMKzXAlabEavVCmu2znrQZDNushmOSUemTI96kGbX5/WVsx/lF2404EcvMf3FkzwElFC+AVxYhWAJP31ejD6ale9M/ej9flB/KAOjUwxxhUDjHrj5U7DnX83qL+lbfKb9w/m+81911beey1k6n7bXVvvLG7TDDdaMY1lTmmnKWKaMq2E8tzRzSz0zVKylHBjiwBbpl8E44zWbrGHkqD38MM0Wm3h0kKjnKQ1lPj3TVchxWz4dt5vtyDa7gmGQjMxHhhtbbzkJhps9x3OdPPXD36CiTNoGOgx7GUWAOIc6HyC581YPWebIMqWv0BVoGWEjsqyVLWvVgNVGxNpklY1Gg03G6DJBj0kGOr0z6U+fzJZbj7srb+zjq6mR2kEnHO3q2ONrOv3lTepPtEm6ymAhoHulwl8OGhDWoBMg3e9c4O1OgNwWICvANwp88+gOx8Ujjs91evJfgPOVz/L47uP6WHo4m7d/mNvGnye1AZ3oOhtjOSuLA6qL0OgqY06ZEMek8ar+TYVGplRVKTsldpYw8IiRVYfdVkAP2/AihfSoFKO0RbQMA6OoYooi/3arhNskR7eN827XS9wyxtkuVF2kX+pBAretgedLD90mR6oj2NY5V/wZ/zVF6RvoW6FvhLYY1gLLWilgtR6y2ohYLVk24pjNeIIuY/QJvY8hrYbrph93r135MX3itYe5eCOSs0dvsjC9DJNlavs7mOunKJ86w4FuQu1SQCsY11+3j8P0Uc+K+wCvD22K1QeuomR0SAeXuXD1GvUzQn5wUn6lOcGvjB+BB+9zfORnVZW83CblaRIsvaBEO99ksztgQx3rRllDGU+U8RSaGTSco6pQdo5yKsRWiIwhLMx0jPGIkbEGa3ztghkKRRd0+yLvGgbPLeiUbOeFvx3mFr015xiFx0i2uAgaV7gFu6KeUEaKIYx+vQggIFNPRMqK/06Nn89oG0M3EjrWshHFrEYl1uIqa/UaG2M1WuWQtgnpM0vCFBktck6h/Nzf1gv8FL/Lx3iyohL84DLpfIej6wP+USJ8aqMitcXD2LROmQ4TS30mlhT2l2DKfHBzqw97gARAxShn3QoXgj+geumPZX91BmoHSUr3cyF4hLLbKT/S7rO++m+ou687u7eb5dXEVRc3s71L6wPWk57puJbpspH0WVkb0FxPaHQS6v28MB9VqsNgESn6DIbICKEVgqJmCQNLaIceJzpiEY+Ke7MVLFuA2DaR7m/KyZGts2MYU0UAjAJjFCA60pvSAprNnSNzSlrM0Q2sf/W90BXt2LIZW1phQLtaZrPRYCMaZ5Np2sEsvXCH9AlLiWojo1x3uTTUtccgm4ZP75Dyl/ocZ4Oa2YAzL2vWX2Vyos4j6W6OrtQoXz4mbBwGct/DMkP6a/Sh2GcfuiUFwnWi7oiOr/PK/S/K/P6/oF41Ul+4V/v9Gtbex7m+8D8vxaRXf4EfOnSOPXffdI2Dm7pj+hU3s/iVvLL8Wsb6ckIr6w3abEqXVelQCduUuz0qvZRqP6WWZdRyR81BVSwVY6lYQ9kaylYpqy0+be9lsqVOPxJVZ8uNeVuQoLfM+N9uhTNSi79FbHFbAT5s6g1PCMco1XIKWe6t5BLn6AM9I3St0I0t3djQiQI6UUg7imnFEZ0oolur0Z2YoiNT9NjBgP2kzGme8qhb50FdZb+uZrOsM4YxA2Y6Z4i+dJ7jCHe3N7BvXCN8Yz8VjjDNHGWiIqOMRvytEsiP9OFlB5eGePSdAPnuBsgYUIoVOzYgq1sadaQaxVQWXpf8hQ21WY51kPaQVqvCKy8e1bMzh+nO9bHBXr0nLLtPNmLdNfV8Htx1c4Cj09wgrK4Q5DcI20tEKy1Ka12qrZxqH2oZnu9klYZAzUDdQFWUslHK4mdLTNFlNwwZwrrlgTEcC94uwFDwnoZ+8bcEixbViPJ2r2m9pW1BpkXqJB4jSkXpG6WnQkeEdmhpl0Pa9YhOvUS7UaZTqtCRGl0qDKREYsdJ8p1BKo19aab7XeJm3Xpyt77KY7yS75WrUY1lG7M+F0hW7eju9UT/4b5f5Z7FkpR7FeAYwi6EObGUENKi4WdG7yjQTOe6juuJ4ZIK9cS+47jrnQD5DjvtlQHsXDUEV6bQWhNb30Bv7tOZMzXKPYMNoR/A/T3hsTORdBz830NlfnnHMZir66/tmtDvn1hm7hM3tS5IvEnGBQyvIhNgpUyQD4hcQhRllExOJXbUgpy6U+oOairURKhaoYwSZ0qQFrSQPMc6r59ut/rnIxel0V4fNtYLBOyWE0S3ddRlyxlYR11+IUPIREgCIbFCEhgGgTAYESUtbSLatkInqtOrjtNrNBk0qgyCCgNqJFTIKJEzSb64c2f+Mj/jfo2f5AuMeQG8s3i22V78GEaAUg/g3mP8xE8/QumLv0t8aqlInQ4VJ8bwNcVQMCFnoIleI1hYJWpGHElndH5hRhIs7k6AfJdXSxh7tUnj+iPoS9NKqYtpN5ldO4LLK5SKDXUogXtaMEghySCulDk1tZf/cSHjlVe72nzi03zmM6kevuusK5W7Lp6qkmWttDJ7RuYq17rTDhMvE0TLRPEyJd2k0ulT7aRU+kolUyoK5Tyn1B8QkhM4R6iOwGUETr1BgepIm3bbXvfd++2ayMP0aZSnbcvRitrGGR8kuXhmcGoNg8gyKFkG5YB+xdKP/ff6QYmubdCTGQbsJjF7ycyUJ0k6Kbhhhjw3omuhda+4+/Rpc0hWiowxkKLp3AF6I1ddCAOO7NoFJ+/HfeN5eOtlaH8N+g54S2FK/JzFka2e/sQi5enn2Bu+QP9mW2ubn+PY6gPENHkX5a87AfJXXs5gWjswrY8Llx8uenOWOjF309D5wjqjCtLwv6ofuQjlGWGxVNL/3ryLLyc/KnztOr/7x1f5u587yO6ZgB2Lj+rf+sWjW2mOP/8zvkLCefrEdKIeG0FOFAthBpFzxPmAsNwmSLsEaYJNE4JMPdFQfYAMEaaCKuX3fCiolVHTEKeoG8LGBrUWNcNRYs/rGsLHToTMWP8KIpKoRBKXScolkrKSxhlZEJExQcYucg7imPU3pefQfoYmCa4vuI2q6ln5LM/wGM8yz4tEAmgWAJNFFlS5FXFrRSE6FsF+Cw8BL7/qVexYBObVz6GuF1XjgNruBY4f/Qa18WepBZdlfHGcezdhbvUIIfPwbYkT3wmQbyHRquP5NFvLFgpHhV6LeFZGAiA7JdbsGcPhTeCRisQVGOxYkt4LAad+c552tc6efoA7mGHOBUPRDP1vv/QNDjQv5vt2vJQ3dr2QkLzVq+iSqYVrxmjXygDLBlYXMKxgtItJu5hBH5vlflY7d0juvJp5BiYvuvNlvNC02IJWrlsKCFGIlkJcYMDKKFicKKp+ptAVSVxOlYwZMnaSs4dcSuT5lZ3av/IwLm6InetqOHldpHNTeittWU77sp44bXXLeiOe1Gf3HeJLzYe1xXFZpUnLCyKCRZkugsRuPeQfyOHxDUetb5GKkMxA/xC42fNgF3w5ThWhBhr4Udf5HuX5TRq165SzOpXWy4zFZSo0EGbuBMj7U7KL8vbO9Lb+QlvgBmCx6rn/zbeQzzThpYZhYVEZrER0sp302VGocm+fWFP5B78FPH4P7P1hOID+Hv81Pxo+5Q7UXpWw9vUUEDY867dQkJay90CRxEAGkuVehSbJkSRCdByxMVLK0MgL5oraYt6i+PtHIVoOIHR4oDZDyUeaA4wUM3McFZTdOD6KMlswiLkG//YL8nNuUfbs3uDu8dPa6PylrHfekosLC7LcSmjn43pl7gh/Zo5zmWMCB/Rt03UGxd7qOXIa+M3fyWX+Uh1zuazXAuTiUehLryBb3doBFUBifwpt5HBlZVPXrmQSrQ04TMbuDyDw+z0QILc0025LYHO87PYVhXPifRssKbPYtMTsc4bUGObyqpbcpEwyQ8w0bQyvGviTssqvdeCZMbh2yD8IWYZjLyX6xdUT8lJe5f7Og+6+k58j+GyV3vgka9lu7FNzHG4rNZNBlmM1xxT72Gmf0jNnkZ//M+ynz4upZ0gvgMwgtQTCfMgW2SpSAB2EyHoJLtSVLzXgtIHPz8CDcxBOwmv7WP3iXl6MYy6WI/7x/54Y7c35P1L5zb0zhHM7qMyNazxhSbpGOwuBCdY7jJVKGo9XmW1FzOdomOWUklXC5KqumpDlvMrJN6p84bYb/kf7VYJ/qbCyGzf391h9dFZP73pClsIXCIouvjFeM8gMHSIcpJmw2XqYs+c+RvPPDumAaRljnPlvRfD5ToB8x0GybXWAN/CklHMKMcomwgks+5nKS4znAYn3ztaAKhUMV4FlRVo92AO6LHCtVKCVFl6bD6U9fZg3e7t49XzOqf8UMnalRFIpc/m04eRZL6ZXY2vU59Z1CP6XAzmgTDvvfZcYGE+glMst1TrFtFIrUG5E8GIMXw59M/wXD8KPPQLhDJyCjTPwOnAG+NeotIA/n4azR1GmENrAUyWh3oRsDFZ3695+iwOdBZ3Qs8hmD2uvE/RfJOz2obsqiwPR0vKDzD7zSX6eXPzYjH9fr5xHriOcYJIjVx6l8eY4rcGqniq9QNOP49KowdwMUin7YB/ksLRi9a1Lj7Nw4e9wL7vIsTgqH7j06nsiQDp45y0YFI4GbluCtYLyBvGRr1KZO41Np5GLCbVrVY4QMUelEJz0FcpNBtxEWCQgLwyoU3JMe+A7HGJHVf9lgcsNy6lKVU5M1vW+DaS+BvFdwH64Kp4O8/aV+qJVZ9Gnx/z4krxzeN+WSfoOfAR8lgJyGEeXfZNE98DCHq90qUBPoB1A0CzMjqrFgXo1AJ3DS2Jf1Xl3iYn0MlM3v0QYMmJjDkUJqzeh9H/+HeGV75fbvV79MCBMFPrd7RciXX6xypOP3wfTR8BY7su6lLsXMO4ljEC3B9cvZfzFn+wi4i7uY+ZdXc3uBMh3uDJgAXhFctaiG7j4WVWzVli5CtprIckb3Lv/NY7uW5JadyfSzpm6doEKa+RhiAS+i9cuzpmboiyZXJdNjgL9Vp+l2XWqUkdpMlTTcOrITJ2sepwL+ypCZr2ydvF3uvg26GD7LZ8HnfCFhMo2GvC7x4hs25kyKgUCVCuj37CBcsFngR5hMnAjQDwCMMSPh6NoVUC4ki5RullTsTA5hYTRNqgZP3esFfHzuJW3K2jmOM6adRbMC7qy+SSn734d9p+A6VkhCLiUJsTrkU5duYnNb9DtweXLu4GQmSHn/wO8PrRs3i6whHKeAacnl3j63uf0iflfgvCZrU+wB1yCX3bHiQcnmOvPMZ5ZYpaIg4vwQB+mMrBKqXjIGtMnLJ2TRvQ1VYExhR0Cx5t/QzpmD7lGxY1LUd3Bch7xiqvycnkSTAQJ3NWHmymU3Ttt+Pca6PkWoQmFvoG3QrhqU6BVPM9vu1GpgbRaXM+AtRBVIdgBHOGqMVwtRRhrJbEDYlkD3gTWyWWCheq8LD9S1+ZxR5LdbvU+QFlmPTzHqdLvccH+KgQ7kImKaLkKpslaUOJUOitsPqK89So8tw/4AU7wAAeoUN0y8rwTIN/NAFkGTqO8zgqvTT2hrx74Ikyfl9EYM8V+SdGXXjiMWdjPfWmF4wvQoEN+5Lxy9LrIVI6xSqqQIxhJGDdLTJrbUDHzJsYsI4R+Ukkcg7zOjY0bXFvvaXfn40I4CUuid5+Fg12k7N7H3EFhYGGspHq1tEJov86kOVugsIIqdJ1D8zHuch+jwd10csPCNKzsQXq1MshBCKswkcjrIiyZnIiFYmDxeXLTZKN6mPVSSdp5n6qmXlJ/dIPXgJfpmGdZNG8V0bOB2tMg+0CPguyA+jSETSFvKqcPssv9TU6wn33EEhUnreXOwNR3dfWB6yiv0+fF0tPcqPwBRF7TZjg8gQIxvHZxH8pJLZNJtXyW8PGLbBx8kWj6EqUyWDM8kYreg25jDuEZuTv1Gnu4RhXv73FNPC62lHxV09XdMPuwv5tdqP2F786U3ud7EJFS5yaPPfgV9h35HaqVPxzVD87BwgrwzKf4/PWT7EY5Dzx1N7wQoadnjVApQzAD5l6usZtrOLyPWFRs2R7YMtiUVa4wHNDfWssgw6RuDPQh4Bm8IqIF9oCUwR4BHYdSn3uDKU4k+3iIshzBaz0H+H67vRMg373lTZw8WrQva3ApBZdbcvItwDf3r4vMk/IRNunpa80rNHddIZ7qSBhB4PyQU14U/GkRFEO5AEedWBvMacCJogrpAxVR1rISS2mNPW43y7nFFQJShXo82fvc/cnIyLjM+OyfMr3jValWtsBu5yAN0Wh2J0eu15nDSArsugLtDO3ch164C0nKZbzT1fBdN/Bd8GtFsEDIJuPyMiV5/RZLxoSUTdcldNPUmCFljjWpkfJykdKFREwyrncTJ7uJEst+NcwTyu4CJhjfthGDOwHy3dsc48BJoEJCvtaQ5esH9UU951lPwwDpAStwHeE6YzzLTlj4FJ/YyDlQ+w0NQyR3vmltAOvF4wA0LzZ5kE3I9OAegrxCBR1NMeyVDLIZ6je+T3orH2FprKqX6v56qwrL3rz2PcGp7+QeDDCsMEGy+hCt9UuaJxdGWYpz6MY6xJ2Mq4gkxXNeOzB9DjlZQvsxemnMFpouwz8ZXMuYzQAAA2xJREFUFzfuKvA8MEEalORo9SJT0QCzbQRyM4NTnRpz7Y9xID1Mx+Q8GZ8Ee0DRV0H2keR3y7Fklql2jdJVpJKP0PKhPMOdIv392BxjeCEAg6G1uI+xZ39SfmC8palNMQV02kkGvLna5smd0zBtIW5geYBzrTLLF6pYc0VVQ08IzHPotjTqJtRcgyli5lWYzOo6kTSk7Owt15+SnFI+Qd5+gE5/Pzs3Ym6W4cw6nJmHG1NQit+/4lOAlIhVOUBuSixcLhMHJ4rLGdQp1zeXOLB8iKcJdAciIZ5XOwXsv4Ac7aKbVU8j9sDYsGhqAB8HHsMla5T2XtKxYzelFLZHSnogpMk0D11+SIOXjlFzxyWzZR6OT2rf7EP0FVQepJyf1LGkIvEAzIZvFFreTcfwA7jXtNAR+3AuxyprLLGMokREW1IgCOuk+iRtfvbTTdi/EymV/D7QdlFgplsfU+qUq11O/EHGCSp8lFAeAibIyUlpFHSkaFuVnBOxzAyrNLEIXdCngJ/5FF41s3zL3Pn7iFokwGrx5B/eGoX1nh58PuPjZ/ZwmKbci2H3toI4fFver3jAe61ItwYIr+FOPkH62NfIZ168pTgzG/+c8IUfR798DylNDIYQb2OltBHqOBqkxU/bfhuaeNZ86c4J8n4uwxjjNLfZZ20HIsdQ2YfqiVh4uWJER+f5EPbU7Y9joaE6OQ2TSyIzCLuBuUIQ5J3UYC3CNMJUcdVNkCugD8bwfKWwiP5rq8hmbn0/DuYS5K5INcZIFcMe4HDxu7e3U289l2qjHomvthI0WYF2jtYiMJ1iu4dI5zD09gPjt/B8hAZDX159lzRTgA/Dk/lD30k373GbBeTEVVipoNfqsE0B9/Z8BRah1fMf/9AUyLzn9W/9MYDccxVuVtErjb8ugP8d3k8Oxxfg4JJXpaR4PyFvU9X/Jj8r9kjUuoGLEWxYMF1G0nntcViK3vvv8yFe32tcrLd9TFPAD7wCj1+A/JtQRcX5DMX0/Caa/ivenAngk6/BY5e++fX+GnJnoh4S9Pxp0SwKYv02Hz8wBosRrCd419htaWm2BwYh39N76MNdg3zzlQAbxdfgWzzSHR6eHcLI8bd5vU18f/Jbvd77uYb6PkPP9ca25OnbrfX8O2vfFmLl4qdGdwLkzrqz/n9c/w/R/gXdA11w7QAAAABJRU5ErkJggg==;" parent="oUWo8qwdKe1J3eEg0R9K-1" vertex="1">
          <mxGeometry x="520" y="350" width="118.6" height="127.5" as="geometry" />
        </mxCell>
        <mxCell id="nLnD3QO4Pnx9JwxPBYmz-0" value="" style="shape=flexArrow;endArrow=classic;startArrow=classic;html=1;entryX=0;entryY=0.5;entryDx=0;entryDy=0;" edge="1" parent="oUWo8qwdKe1J3eEg0R9K-1" target="nLnD3QO4Pnx9JwxPBYmz-3">
          <mxGeometry width="100" height="100" relative="1" as="geometry">
            <mxPoint x="190" y="300" as="sourcePoint" />
            <mxPoint x="472.5" y="300" as="targetPoint" />
          </mxGeometry>
        </mxCell>
        <mxCell id="nLnD3QO4Pnx9JwxPBYmz-2" value="" style="group" vertex="1" connectable="0" parent="oUWo8qwdKe1J3eEg0R9K-1">
          <mxGeometry x="300" y="220" width="61.56999999999999" height="60" as="geometry" />
        </mxCell>
        <mxCell id="oUWo8qwdKe1J3eEg0R9K-2" value="" style="outlineConnect=0;fontColor=#232F3E;gradientColor=none;fillColor=#232F3E;strokeColor=none;dashed=0;verticalLabelPosition=bottom;verticalAlign=top;align=center;html=1;fontSize=12;fontStyle=0;aspect=fixed;pointerEvents=1;shape=mxgraph.aws4.client;" parent="nLnD3QO4Pnx9JwxPBYmz-2" vertex="1">
          <mxGeometry width="61.57" height="60" as="geometry" />
        </mxCell>
        <mxCell id="oUWo8qwdKe1J3eEg0R9K-3" value="Client" style="text;html=1;strokeColor=none;fillColor=none;align=center;verticalAlign=middle;whiteSpace=wrap;rounded=0;fontStyle=1" parent="nLnD3QO4Pnx9JwxPBYmz-2" vertex="1">
          <mxGeometry x="3.2899999999999636" y="20" width="55" height="10" as="geometry" />
        </mxCell>
        <mxCell id="nLnD3QO4Pnx9JwxPBYmz-3" value="East/West traffic" style="text;html=1;strokeColor=none;fillColor=none;align=center;verticalAlign=middle;whiteSpace=wrap;rounded=0;" vertex="1" parent="oUWo8qwdKe1J3eEg0R9K-1">
          <mxGeometry x="450" y="290" width="120" height="20" as="geometry" />
        </mxCell>
      </root>
    </mxGraphModel>
  </diagram>
</mxfile>
